<?xml version="1.0" encoding="UTF-8" standalone="no"?>
<svg
   xmlns:dc="http://purl.org/dc/elements/1.1/"
   xmlns:cc="http://creativecommons.org/ns#"
   xmlns:rdf="http://www.w3.org/1999/02/22-rdf-syntax-ns#"
   xmlns:svg="http://www.w3.org/2000/svg"
   xmlns="http://www.w3.org/2000/svg"
   xmlns:sodipodi="http://sodipodi.sourceforge.net/DTD/sodipodi-0.dtd"
   xmlns:inkscape="http://www.inkscape.org/namespaces/inkscape"
   style="font-style: normal; font-weight: normal; fill: rgb(0, 0, 0); fill-opacity: 1; stroke: rgb(0, 0, 0); stroke-width: 1; stroke-linecap: square; stroke-linejoin: miter; stroke-miterlimit: 10; stroke-opacity: 1; stroke-dasharray: none; stroke-dashoffset: 0pt; font-family: Dialog;"
   id="svg2"
   sodipodi:version="0.32"
   inkscape:version="0.48.0 r9654"
   viewBox="0 0 580 616"
   width="870"
   height="924"
   sodipodi:docname="The Netherlands.svg"
   version="1.0">
  <metadata
     id="metadata1014">
    <rdf:RDF>
      <cc:Work
         rdf:about="">
        <dc:format>image/svg+xml</dc:format>
        <dc:type
           rdf:resource="http://purl.org/dc/dcmitype/StillImage" />
        <dc:title />
      </cc:Work>
    </rdf:RDF>
  </metadata>
  <sodipodi:namedview
     inkscape:window-height="753"
     inkscape:window-width="1280"
     inkscape:pageshadow="2"
     inkscape:pageopacity="0.0"
     borderopacity="1.0"
     bordercolor="#666666"
     pagecolor="#ffffff"
     id="base"
     inkscape:zoom="1.219753"
     inkscape:cx="409.90121"
     inkscape:cy="782.57354"
     inkscape:window-x="-4"
     inkscape:window-y="-4"
     inkscape:current-layer="svg2"
     width="534px"
     height="616px"
     showgrid="false"
     inkscape:window-maximized="1"
     showguides="true"
     inkscape:guide-bbox="true" />
  <!--Generated by the Batik Graphics2D SVG Generator-->
  <defs
     id="genericDefs">
    <inkscape:perspective
       sodipodi:type="inkscape:persp3d"
       inkscape:vp_x="0 : 462 : 1"
       inkscape:vp_y="0 : 1000 : 0"
       inkscape:vp_z="801 : 462 : 1"
       inkscape:persp3d-origin="400.5 : 308 : 1"
       id="perspective481" />
    <inkscape:perspective
       id="perspective4069"
       inkscape:persp3d-origin="0.5 : 0.33333333 : 1"
       inkscape:vp_z="1 : 0.5 : 1"
       inkscape:vp_y="0 : 1000 : 0"
       inkscape:vp_x="0 : 0.5 : 1"
       sodipodi:type="inkscape:persp3d" />
    <inkscape:perspective
       id="perspective4069-1"
       inkscape:persp3d-origin="0.5 : 0.33333333 : 1"
       inkscape:vp_z="1 : 0.5 : 1"
       inkscape:vp_y="0 : 1000 : 0"
       inkscape:vp_x="0 : 0.5 : 1"
       sodipodi:type="inkscape:persp3d" />
    <inkscape:perspective
       id="perspective4069-7"
       inkscape:persp3d-origin="0.5 : 0.33333333 : 1"
       inkscape:vp_z="1 : 0.5 : 1"
       inkscape:vp_y="0 : 1000 : 0"
       inkscape:vp_x="0 : 0.5 : 1"
       sodipodi:type="inkscape:persp3d" />
    <inkscape:perspective
       id="perspective4069-2"
       inkscape:persp3d-origin="0.5 : 0.33333333 : 1"
       inkscape:vp_z="1 : 0.5 : 1"
       inkscape:vp_y="0 : 1000 : 0"
       inkscape:vp_x="0 : 0.5 : 1"
       sodipodi:type="inkscape:persp3d" />
    <inkscape:perspective
       id="perspective4069-5"
       inkscape:persp3d-origin="0.5 : 0.33333333 : 1"
       inkscape:vp_z="1 : 0.5 : 1"
       inkscape:vp_y="0 : 1000 : 0"
       inkscape:vp_x="0 : 0.5 : 1"
       sodipodi:type="inkscape:persp3d" />
    <inkscape:perspective
       id="perspective4069-3"
       inkscape:persp3d-origin="0.5 : 0.33333333 : 1"
       inkscape:vp_z="1 : 0.5 : 1"
       inkscape:vp_y="0 : 1000 : 0"
       inkscape:vp_x="0 : 0.5 : 1"
       sodipodi:type="inkscape:persp3d" />
    <inkscape:perspective
       id="perspective4069-75"
       inkscape:persp3d-origin="0.5 : 0.33333333 : 1"
       inkscape:vp_z="1 : 0.5 : 1"
       inkscape:vp_y="0 : 1000 : 0"
       inkscape:vp_x="0 : 0.5 : 1"
       sodipodi:type="inkscape:persp3d" />
    <inkscape:perspective
       id="perspective4069-6"
       inkscape:persp3d-origin="0.5 : 0.33333333 : 1"
       inkscape:vp_z="1 : 0.5 : 1"
       inkscape:vp_y="0 : 1000 : 0"
       inkscape:vp_x="0 : 0.5 : 1"
       sodipodi:type="inkscape:persp3d" />
    <inkscape:perspective
       id="perspective4069-70"
       inkscape:persp3d-origin="0.5 : 0.33333333 : 1"
       inkscape:vp_z="1 : 0.5 : 1"
       inkscape:vp_y="0 : 1000 : 0"
       inkscape:vp_x="0 : 0.5 : 1"
       sodipodi:type="inkscape:persp3d" />
    <inkscape:perspective
       id="perspective4069-8"
       inkscape:persp3d-origin="0.5 : 0.33333333 : 1"
       inkscape:vp_z="1 : 0.5 : 1"
       inkscape:vp_y="0 : 1000 : 0"
       inkscape:vp_x="0 : 0.5 : 1"
       sodipodi:type="inkscape:persp3d" />
    <inkscape:perspective
       id="perspective4069-0"
       inkscape:persp3d-origin="0.5 : 0.33333333 : 1"
       inkscape:vp_z="1 : 0.5 : 1"
       inkscape:vp_y="0 : 1000 : 0"
       inkscape:vp_x="0 : 0.5 : 1"
       sodipodi:type="inkscape:persp3d" />
    <inkscape:perspective
       id="perspective4069-72"
       inkscape:persp3d-origin="0.5 : 0.33333333 : 1"
       inkscape:vp_z="1 : 0.5 : 1"
       inkscape:vp_y="0 : 1000 : 0"
       inkscape:vp_x="0 : 0.5 : 1"
       sodipodi:type="inkscape:persp3d" />
    <inkscape:perspective
       id="perspective4069-16"
       inkscape:persp3d-origin="0.5 : 0.33333333 : 1"
       inkscape:vp_z="1 : 0.5 : 1"
       inkscape:vp_y="0 : 1000 : 0"
       inkscape:vp_x="0 : 0.5 : 1"
       sodipodi:type="inkscape:persp3d" />
    <inkscape:perspective
       id="perspective4199"
       inkscape:persp3d-origin="0.5 : 0.33333333 : 1"
       inkscape:vp_z="1 : 0.5 : 1"
       inkscape:vp_y="0 : 1000 : 0"
       inkscape:vp_x="0 : 0.5 : 1"
       sodipodi:type="inkscape:persp3d" />
    <inkscape:perspective
       id="perspective4221"
       inkscape:persp3d-origin="0.5 : 0.33333333 : 1"
       inkscape:vp_z="1 : 0.5 : 1"
       inkscape:vp_y="0 : 1000 : 0"
       inkscape:vp_x="0 : 0.5 : 1"
       sodipodi:type="inkscape:persp3d" />
    <inkscape:perspective
       id="perspective4243"
       inkscape:persp3d-origin="0.5 : 0.33333333 : 1"
       inkscape:vp_z="1 : 0.5 : 1"
       inkscape:vp_y="0 : 1000 : 0"
       inkscape:vp_x="0 : 0.5 : 1"
       sodipodi:type="inkscape:persp3d" />
    <inkscape:perspective
       id="perspective4243-6"
       inkscape:persp3d-origin="0.5 : 0.33333333 : 1"
       inkscape:vp_z="1 : 0.5 : 1"
       inkscape:vp_y="0 : 1000 : 0"
       inkscape:vp_x="0 : 0.5 : 1"
       sodipodi:type="inkscape:persp3d" />
    <inkscape:perspective
       id="perspective4274"
       inkscape:persp3d-origin="0.5 : 0.33333333 : 1"
       inkscape:vp_z="1 : 0.5 : 1"
       inkscape:vp_y="0 : 1000 : 0"
       inkscape:vp_x="0 : 0.5 : 1"
       sodipodi:type="inkscape:persp3d" />
    <inkscape:perspective
       id="perspective4274-2"
       inkscape:persp3d-origin="0.5 : 0.33333333 : 1"
       inkscape:vp_z="1 : 0.5 : 1"
       inkscape:vp_y="0 : 1000 : 0"
       inkscape:vp_x="0 : 0.5 : 1"
       sodipodi:type="inkscape:persp3d" />
    <inkscape:perspective
       id="perspective4309"
       inkscape:persp3d-origin="0.5 : 0.33333333 : 1"
       inkscape:vp_z="1 : 0.5 : 1"
       inkscape:vp_y="0 : 1000 : 0"
       inkscape:vp_x="0 : 0.5 : 1"
       sodipodi:type="inkscape:persp3d" />
    <inkscape:perspective
       id="perspective4334"
       inkscape:persp3d-origin="0.5 : 0.33333333 : 1"
       inkscape:vp_z="1 : 0.5 : 1"
       inkscape:vp_y="0 : 1000 : 0"
       inkscape:vp_x="0 : 0.5 : 1"
       sodipodi:type="inkscape:persp3d" />
    <inkscape:perspective
       id="perspective3344"
       inkscape:persp3d-origin="0.5 : 0.33333333 : 1"
       inkscape:vp_z="1 : 0.5 : 1"
       inkscape:vp_y="0 : 1000 : 0"
       inkscape:vp_x="0 : 0.5 : 1"
       sodipodi:type="inkscape:persp3d" />
    <inkscape:perspective
       id="perspective3344-7"
       inkscape:persp3d-origin="0.5 : 0.33333333 : 1"
       inkscape:vp_z="1 : 0.5 : 1"
       inkscape:vp_y="0 : 1000 : 0"
       inkscape:vp_x="0 : 0.5 : 1"
       sodipodi:type="inkscape:persp3d" />
    <inkscape:perspective
       id="perspective3344-3"
       inkscape:persp3d-origin="0.5 : 0.33333333 : 1"
       inkscape:vp_z="1 : 0.5 : 1"
       inkscape:vp_y="0 : 1000 : 0"
       inkscape:vp_x="0 : 0.5 : 1"
       sodipodi:type="inkscape:persp3d" />
    <inkscape:perspective
       id="perspective3406"
       inkscape:persp3d-origin="0.5 : 0.33333333 : 1"
       inkscape:vp_z="1 : 0.5 : 1"
       inkscape:vp_y="0 : 1000 : 0"
       inkscape:vp_x="0 : 0.5 : 1"
       sodipodi:type="inkscape:persp3d" />
    <inkscape:perspective
       id="perspective3406-0"
       inkscape:persp3d-origin="0.5 : 0.33333333 : 1"
       inkscape:vp_z="1 : 0.5 : 1"
       inkscape:vp_y="0 : 1000 : 0"
       inkscape:vp_x="0 : 0.5 : 1"
       sodipodi:type="inkscape:persp3d" />
    <inkscape:perspective
       id="perspective3406-9"
       inkscape:persp3d-origin="0.5 : 0.33333333 : 1"
       inkscape:vp_z="1 : 0.5 : 1"
       inkscape:vp_y="0 : 1000 : 0"
       inkscape:vp_x="0 : 0.5 : 1"
       sodipodi:type="inkscape:persp3d" />
    <inkscape:perspective
       id="perspective3446"
       inkscape:persp3d-origin="0.5 : 0.33333333 : 1"
       inkscape:vp_z="1 : 0.5 : 1"
       inkscape:vp_y="0 : 1000 : 0"
       inkscape:vp_x="0 : 0.5 : 1"
       sodipodi:type="inkscape:persp3d" />
    <inkscape:perspective
       id="perspective3446-2"
       inkscape:persp3d-origin="0.5 : 0.33333333 : 1"
       inkscape:vp_z="1 : 0.5 : 1"
       inkscape:vp_y="0 : 1000 : 0"
       inkscape:vp_x="0 : 0.5 : 1"
       sodipodi:type="inkscape:persp3d" />
    <inkscape:perspective
       id="perspective3446-4"
       inkscape:persp3d-origin="0.5 : 0.33333333 : 1"
       inkscape:vp_z="1 : 0.5 : 1"
       inkscape:vp_y="0 : 1000 : 0"
       inkscape:vp_x="0 : 0.5 : 1"
       sodipodi:type="inkscape:persp3d" />
  </defs>
  <path
     style="fill:#b9b9b9;fill-opacity:1;fill-rule:evenodd;stroke:#b9b9b9;stroke-width:1.04999994999999990;stroke-linecap:butt;stroke-linejoin:bevel;stroke-miterlimit:10;stroke-opacity:1;stroke-dasharray:none"
     d="M 739.4375 34.78125 L 736.4375 36.28125 L 724.4375 37.78125 L 722.9375 39.28125 L 718.4375 40.78125 L 716.9375 40.78125 L 715.4375 42.28125 L 712.4375 42.28125 L 709.4375 45.28125 L 707.9375 45.28125 L 706.4375 45.28125 L 704.9375 45.28125 L 701.9375 46.78125 L 698.9375 48.28125 L 697.4375 46.78125 L 695.9375 48.28125 L 688.4375 48.28125 L 683.9375 49.78125 L 677.9375 51.28125 L 674.9375 51.28125 L 671.9375 52.78125 L 668.9375 52.78125 L 664.4375 54.28125 L 659.9375 55.78125 L 658.4375 57.28125 L 658.4375 58.78125 L 655.4375 60.28125 L 653.9375 58.78125 L 652.4375 57.28125 L 644.9375 52.78125 L 643.4375 52.78125 L 637.4375 55.78125 L 637.4375 54.28125 L 635.9375 54.28125 L 635.9375 55.78125 L 634.4375 55.78125 L 634.4375 54.28125 L 632.9375 55.78125 L 634.4375 57.28125 L 635.9375 57.28125 L 637.4375 58.78125 L 638.9375 58.78125 L 640.4375 60.28125 L 641.9375 60.28125 L 641.9375 61.78125 L 640.4375 61.78125 L 638.9375 61.78125 L 637.4375 61.78125 L 637.4375 60.28125 L 634.4375 58.78125 L 634.4375 57.28125 L 631.4375 57.28125 L 629.9375 60.28125 L 631.4375 60.28125 L 632.9375 61.78125 L 634.4375 61.78125 L 634.4375 63.28125 L 632.9375 64.78125 L 631.4375 63.28125 L 631.4375 64.78125 L 632.9375 66.28125 L 634.4375 66.28125 L 635.9375 66.28125 L 637.4375 66.28125 L 638.9375 66.28125 L 640.4375 66.28125 L 640.4375 67.78125 L 637.4375 67.78125 L 635.9375 67.78125 L 632.9375 66.28125 L 632.9375 67.78125 L 631.4375 66.28125 L 631.4375 67.78125 L 632.9375 69.28125 L 634.4375 69.28125 L 635.9375 69.28125 L 637.4375 69.28125 L 638.9375 69.28125 L 640.4375 69.28125 L 641.9375 67.78125 L 641.9375 69.28125 L 641.9375 70.78125 L 640.4375 70.78125 L 641.9375 72.28125 L 643.4375 70.78125 L 644.9375 70.78125 L 644.9375 72.28125 L 643.4375 73.78125 L 640.4375 73.78125 L 640.4375 75.28125 L 641.9375 76.78125 L 643.4375 75.28125 L 644.9375 75.28125 L 643.4375 76.78125 L 641.9375 76.78125 L 640.4375 76.78125 L 641.9375 78.28125 L 641.9375 79.78125 L 640.4375 79.78125 L 640.4375 78.28125 L 638.9375 76.78125 L 638.9375 75.28125 L 637.4375 75.28125 L 638.9375 73.78125 L 637.4375 73.78125 L 635.9375 72.28125 L 635.9375 73.78125 L 634.4375 76.78125 L 634.4375 75.28125 L 634.4375 73.78125 L 631.4375 72.28125 L 629.9375 73.78125 L 629.9375 75.28125 L 632.9375 78.28125 L 632.9375 79.78125 L 631.4375 79.78125 L 631.4375 78.28125 L 629.9375 79.78125 L 629.9375 78.28125 L 628.4375 76.78125 L 628.4375 75.28125 L 628.4375 73.78125 L 628.4375 70.78125 L 626.9375 69.28125 L 626.9375 67.78125 L 628.4375 66.28125 L 626.9375 66.28125 L 626.9375 64.78125 L 626.9375 63.28125 L 625.4375 61.78125 L 626.9375 58.78125 L 626.9375 57.28125 L 626.9375 55.78125 L 629.9375 54.28125 L 622.4375 57.28125 L 620.9375 57.28125 L 617.9375 55.78125 L 613.4375 55.78125 L 613.4375 57.28125 L 611.9375 57.28125 L 610.4375 57.28125 L 608.9375 55.78125 L 602.9375 57.28125 L 599.9375 57.28125 L 598.4375 57.28125 L 596.9375 58.78125 L 590.9375 60.28125 L 589.4375 60.28125 L 587.9375 60.28125 L 581.9375 63.28125 L 578.9375 63.28125 L 577.4375 63.28125 L 575.9375 63.28125 L 574.4375 63.28125 L 574.4375 61.78125 L 572.9375 60.28125 L 572.9375 63.28125 L 569.9375 64.78125 L 566.9375 66.28125 L 565.4375 67.78125 L 562.4375 69.28125 L 560.9375 70.78125 L 557.9375 72.28125 L 554.9375 72.28125 L 550.4375 75.28125 L 544.4375 78.28125 L 541.4375 79.78125 L 533.9375 84.28125 L 529.4375 84.28125 L 527.9375 85.78125 L 524.9375 87.28125 L 523.4375 87.28125 L 521.9375 88.78125 L 518.9375 90.28125 L 515.9375 91.78125 L 514.4375 93.28125 L 511.4375 96.28125 L 509.9375 99.28125 L 508.4375 100.78125 L 508.4375 102.28125 L 506.9375 102.28125 L 506.9375 103.78125 L 503.9375 105.28125 L 502.4375 106.78125 L 500.9375 106.78125 L 497.9375 109.78125 L 496.4375 111.28125 L 494.9375 111.28125 L 493.4375 112.78125 L 491.9375 115.78125 L 490.4375 115.78125 L 488.9375 117.28125 L 487.4375 120.28125 L 485.9375 124.78125 L 484.4375 126.28125 L 484.4375 127.78125 L 485.9375 127.78125 L 484.4375 129.28125 L 482.9375 130.78125 L 481.4375 132.28125 L 481.4375 133.78125 L 482.9375 133.78125 L 482.9375 136.78125 L 481.4375 139.78125 L 481.4375 144.28125 L 481.4375 147.28125 L 481.4375 148.78125 L 479.9375 150.28125 L 479.9375 151.78125 L 476.9375 153.28125 L 475.4375 153.28125 L 476.9375 154.78125 L 475.4375 156.28125 L 475.4375 157.78125 L 473.9375 159.28125 L 475.4375 159.28125 L 476.9375 160.78125 L 478.4375 163.78125 L 478.4375 165.28125 L 478.4375 166.78125 L 478.4375 168.28125 L 479.9375 171.28125 L 478.4375 171.28125 L 479.9375 172.78125 L 478.4375 172.78125 L 478.4375 171.28125 L 478.4375 169.78125 L 478.4375 168.28125 L 476.9375 168.28125 L 476.9375 166.78125 L 476.9375 165.28125 L 475.4375 165.28125 L 473.9375 165.28125 L 473.9375 163.78125 L 472.4375 163.78125 L 473.9375 166.78125 L 473.9375 168.28125 L 475.4375 169.78125 L 476.9375 171.28125 L 475.4375 171.28125 L 475.4375 172.78125 L 475.4375 174.28125 L 476.9375 174.28125 L 478.4375 174.28125 L 478.4375 177.28125 L 478.4375 178.78125 L 479.9375 177.28125 L 479.9375 178.78125 L 478.4375 178.78125 L 478.4375 180.28125 L 479.9375 180.28125 L 481.4375 181.78125 L 481.4375 183.28125 L 481.4375 184.78125 L 481.4375 186.28125 L 479.9375 187.78125 L 479.9375 190.78125 L 481.4375 195.28125 L 481.4375 198.28125 L 482.9375 199.78125 L 482.9375 200.28125 L 485.9375 198.28125 L 482.9375 201.28125 L 482.9375 200.28125 L 481.4375 201.28125 L 481.4375 202.78125 L 481.4375 205.78125 L 479.9375 205.78125 L 478.4375 207.28125 L 479.9375 208.78125 L 481.4375 211.78125 L 481.4375 213.28125 L 481.4375 216.28125 L 481.4375 217.78125 L 479.9375 219.28125 L 478.4375 219.28125 L 476.9375 219.28125 L 473.9375 222.28125 L 472.4375 223.78125 L 470.9375 225.28125 L 472.4375 226.78125 L 472.4375 228.28125 L 472.4375 229.78125 L 475.4375 229.78125 L 475.4375 231.28125 L 476.9375 231.28125 L 479.9375 234.28125 L 482.9375 237.28125 L 484.4375 237.28125 L 485.9375 237.28125 L 487.4375 237.28125 L 490.4375 237.28125 L 490.4375 235.78125 L 494.9375 237.28125 L 497.9375 237.28125 L 499.4375 238.78125 L 505.4375 241.78125 L 508.4375 241.78125 L 508.4375 243.28125 L 511.4375 243.28125 L 512.9375 241.78125 L 514.4375 241.78125 L 514.4375 240.28125 L 515.9375 238.78125 L 515.9375 237.28125 L 518.9375 235.78125 L 521.9375 237.28125 L 523.4375 235.78125 L 526.4375 234.28125 L 527.9375 234.28125 L 529.4375 235.78125 L 529.4375 238.78125 L 530.9375 238.78125 L 532.4375 238.78125 L 535.4375 238.78125 L 536.9375 238.78125 L 538.4375 238.78125 L 538.4375 240.28125 L 539.9375 240.28125 L 541.4375 238.78125 L 541.4375 240.28125 L 541.4375 241.78125 L 539.9375 241.78125 L 532.4375 243.28125 L 530.9375 243.28125 L 530.9375 244.78125 L 526.4375 252.28125 L 518.9375 264.28125 L 518.9375 265.78125 L 517.4375 270.28125 L 517.4375 285.28125 L 517.4375 292.78125 L 517.4375 295.78125 L 517.4375 297.28125 L 517.4375 298.78125 L 518.9375 298.78125 L 520.4375 300.28125 L 521.9375 301.78125 L 524.9375 306.28125 L 529.4375 312.28125 L 530.9375 313.78125 L 532.4375 313.78125 L 547.4375 313.78125 L 548.9375 313.78125 L 553.4375 313.78125 L 565.4375 313.78125 L 566.9375 313.78125 L 565.4375 315.28125 L 565.4375 318.28125 L 565.4375 319.78125 L 565.4375 321.28125 L 566.9375 322.78125 L 566.9375 324.28125 L 560.9375 322.78125 L 562.4375 324.28125 L 563.9375 324.28125 L 565.4375 324.28125 L 565.4375 325.78125 L 566.9375 327.28125 L 566.9375 328.78125 L 566.9375 330.28125 L 568.4375 331.78125 L 569.9375 333.28125 L 569.9375 334.78125 L 569.9375 336.28125 L 571.4375 337.78125 L 571.4375 340.78125 L 571.4375 343.78125 L 571.4375 345.28125 L 569.9375 349.78125 L 568.4375 352.78125 L 568.4375 354.28125 L 568.4375 355.78125 L 566.9375 358.78125 L 566.9375 360.28125 L 566.9375 361.78125 L 565.4375 360.28125 L 565.4375 363.28125 L 563.9375 363.28125 L 563.9375 361.78125 L 563.9375 360.28125 L 568.4375 351.28125 L 569.9375 348.28125 L 569.9375 346.78125 L 569.9375 343.78125 L 569.9375 336.28125 L 568.4375 333.28125 L 560.9375 325.78125 L 560.9375 324.28125 L 559.4375 324.28125 L 551.9375 324.28125 L 550.4375 324.28125 L 544.4375 322.78125 L 530.9375 318.28125 L 529.4375 318.28125 L 527.9375 315.28125 L 526.4375 315.28125 L 524.9375 316.78125 L 514.4375 319.78125 L 512.9375 319.78125 L 511.4375 321.28125 L 499.4375 331.78125 L 499.4375 333.28125 L 497.9375 333.28125 L 491.9375 333.28125 L 490.4375 333.28125 L 490.4375 334.78125 L 488.9375 339.28125 L 488.9375 337.78125 L 487.4375 340.78125 L 487.4375 342.28125 L 487.4375 343.78125 L 487.4375 345.28125 L 487.4375 346.78125 L 484.4375 348.28125 L 482.9375 348.28125 L 481.4375 349.78125 L 479.9375 352.78125 L 478.4375 352.78125 L 476.9375 352.78125 L 476.9375 354.28125 L 451.4375 370.78125 L 446.9375 373.78125 L 446.9375 375.28125 L 445.4375 375.28125 L 445.4375 376.78125 L 443.9375 376.78125 L 443.03125 376.78125 L 433.4375 382.78125 L 431.9375 384.28125 L 425.9375 388.78125 L 424.4375 388.78125 L 424.4375 390.28125 L 427.4375 393.28125 L 427.4375 396.28125 L 427.4375 400.78125 L 425.9375 402.28125 L 427.4375 402.28125 L 428.9375 405.28125 L 427.4375 405.28125 L 428.9375 406.78125 L 430.4375 405.28125 L 431.9375 405.28125 L 437.9375 403.78125 L 439.4375 403.78125 L 440.9375 403.78125 L 442.4375 405.28125 L 443.9375 405.28125 L 445.4375 405.28125 L 448.4375 405.28125 L 452.9375 406.78125 L 455.9375 409.78125 L 460.4375 411.28125 L 461.9375 412.78125 L 461.9375 414.28125 L 463.4375 414.28125 L 476.9375 426.28125 L 478.4375 429.28125 L 479.9375 429.28125 L 482.9375 430.78125 L 485.9375 429.28125 L 493.4375 426.28125 L 494.9375 426.28125 L 497.9375 426.28125 L 499.4375 424.78125 L 503.9375 423.28125 L 505.4375 423.28125 L 506.9375 417.28125 L 508.4375 415.78125 L 508.4375 411.28125 L 509.9375 411.28125 L 509.9375 408.28125 L 509.9375 406.78125 L 509.9375 405.28125 L 509.9375 403.78125 L 508.4375 403.78125 L 508.4375 402.28125 L 506.9375 399.28125 L 508.4375 397.78125 L 512.9375 393.28125 L 515.9375 394.78125 L 520.4375 393.28125 L 521.9375 393.28125 L 523.4375 391.78125 L 521.9375 391.78125 L 523.4375 390.28125 L 524.9375 388.78125 L 526.4375 387.28125 L 530.9375 382.78125 L 542.9375 376.78125 L 544.4375 376.78125 L 545.9375 376.78125 L 547.4375 378.28125 L 548.9375 378.28125 L 554.9375 373.78125 L 556.4375 370.78125 L 559.4375 367.78125 L 560.9375 364.78125 L 562.4375 363.28125 L 562.4375 364.78125 L 563.9375 364.78125 L 563.9375 366.28125 L 562.4375 366.28125 L 563.9375 367.78125 L 562.4375 369.28125 L 560.9375 370.78125 L 556.4375 375.28125 L 553.4375 378.28125 L 550.4375 379.78125 L 550.4375 381.28125 L 548.9375 381.28125 L 547.4375 382.78125 L 545.9375 382.78125 L 544.4375 384.28125 L 544.4375 385.78125 L 542.9375 385.78125 L 542.9375 387.28125 L 541.4375 387.28125 L 539.9375 387.28125 L 536.9375 388.78125 L 535.4375 390.28125 L 533.9375 390.28125 L 532.4375 391.78125 L 529.4375 393.28125 L 527.9375 393.28125 L 526.4375 394.78125 L 524.9375 396.28125 L 524.9375 397.78125 L 523.4375 397.78125 L 521.9375 397.78125 L 521.9375 399.28125 L 521.9375 400.78125 L 520.4375 400.78125 L 520.4375 402.28125 L 518.9375 402.28125 L 518.9375 403.78125 L 517.4375 403.78125 L 517.4375 405.28125 L 514.4375 406.78125 L 512.9375 408.28125 L 511.4375 409.78125 L 511.4375 411.28125 L 509.9375 414.28125 L 509.9375 417.28125 L 508.4375 420.28125 L 508.4375 421.78125 L 506.9375 424.78125 L 505.4375 426.28125 L 499.4375 426.28125 L 497.9375 426.28125 L 494.9375 429.28125 L 493.4375 427.78125 L 491.9375 429.28125 L 487.4375 430.78125 L 484.4375 430.78125 L 482.9375 432.28125 L 479.9375 432.28125 L 478.4375 430.78125 L 476.9375 429.28125 L 475.4375 427.78125 L 473.9375 427.78125 L 473.9375 426.28125 L 472.4375 424.78125 L 470.9375 424.78125 L 469.4375 424.78125 L 467.9375 424.78125 L 466.4375 423.28125 L 463.4375 423.28125 L 461.9375 421.78125 L 458.9375 418.78125 L 458.9375 417.28125 L 460.4375 415.78125 L 458.9375 415.78125 L 457.4375 415.78125 L 455.9375 414.28125 L 454.4375 414.28125 L 452.9375 412.78125 L 451.4375 412.78125 L 451.4375 411.28125 L 449.9375 409.78125 L 448.4375 411.28125 L 446.9375 411.28125 L 445.4375 411.28125 L 439.4375 411.28125 L 437.9375 412.78125 L 436.4375 412.78125 L 434.9375 414.28125 L 433.4375 414.28125 L 433.4375 412.78125 L 431.9375 412.78125 L 430.4375 411.28125 L 428.9375 409.78125 L 427.4375 406.78125 L 425.9375 406.78125 L 425.9375 405.28125 L 422.9375 405.28125 L 421.4375 405.28125 L 419.9375 402.28125 L 415.4375 402.28125 L 413.9375 402.28125 L 412.4375 402.28125 L 409.4375 403.78125 L 407.9375 402.28125 L 407.9375 403.78125 L 406.4375 403.78125 L 406.4375 402.28125 L 407.9375 402.28125 L 407.9375 400.78125 L 406.4375 399.28125 L 404.9375 399.28125 L 403.4375 400.78125 L 401.9375 400.78125 L 400.4375 400.78125 L 400.4375 399.28125 L 401.9375 399.28125 L 401.9375 397.78125 L 401.9375 396.28125 L 398.9375 394.78125 L 397.4375 394.78125 L 397.4375 396.28125 L 395.9375 396.28125 L 394.4375 394.78125 L 392.9375 394.78125 L 392.9375 393.28125 L 394.4375 393.28125 L 395.9375 393.28125 L 397.4375 391.78125 L 392.9375 388.78125 L 392.9375 387.28125 L 395.9375 388.78125 L 397.4375 390.28125 L 398.9375 390.28125 L 400.4375 388.78125 L 400.4375 390.28125 L 401.9375 391.78125 L 403.4375 390.28125 L 403.4375 388.78125 L 403.4375 387.28125 L 404.9375 387.28125 L 406.4375 385.78125 L 406.4375 382.78125 L 407.9375 381.28125 L 409.4375 379.78125 L 410.9375 378.28125 L 412.4375 378.28125 L 413.9375 378.28125 L 413.9375 376.78125 L 415.4375 375.28125 L 415.4375 373.78125 L 418.4375 370.78125 L 416.9375 370.78125 L 415.4375 370.78125 L 413.9375 369.28125 L 413.9375 370.78125 L 410.9375 369.28125 L 410.9375 367.78125 L 410.9375 366.28125 L 410.9375 364.78125 L 412.4375 363.28125 L 412.4375 361.78125 L 410.9375 361.78125 L 409.4375 363.28125 L 407.9375 361.78125 L 410.9375 360.28125 L 413.9375 360.28125 L 413.9375 358.78125 L 412.4375 357.28125 L 412.4375 355.78125 L 412.4375 354.28125 L 413.9375 352.78125 L 415.4375 354.28125 L 415.4375 352.78125 L 416.9375 351.28125 L 418.4375 348.28125 L 416.9375 348.28125 L 416.9375 345.28125 L 415.4375 345.28125 L 415.4375 343.78125 L 413.9375 342.28125 L 413.9375 340.78125 L 412.4375 337.78125 L 412.4375 336.28125 L 409.4375 331.78125 L 409.4375 330.28125 L 407.9375 328.78125 L 407.9375 325.78125 L 406.4375 322.78125 L 406.4375 321.28125 L 404.9375 319.78125 L 406.4375 318.28125 L 404.9375 316.78125 L 404.9375 315.28125 L 404.9375 313.78125 L 404.9375 312.28125 L 404.9375 309.28125 L 404.9375 307.78125 L 406.4375 307.78125 L 406.4375 306.28125 L 407.9375 306.28125 L 409.4375 304.78125 L 410.9375 304.78125 L 412.4375 304.78125 L 412.4375 306.28125 L 413.9375 307.78125 L 413.9375 306.28125 L 415.4375 304.78125 L 416.9375 304.78125 L 418.4375 304.78125 L 419.9375 304.78125 L 421.4375 306.28125 L 422.9375 307.78125 L 424.4375 307.78125 L 425.9375 309.28125 L 425.9375 310.78125 L 428.9375 310.78125 L 430.4375 310.78125 L 431.9375 310.78125 L 433.4375 309.28125 L 436.4375 306.28125 L 437.9375 306.28125 L 440.9375 306.28125 L 440.9375 304.78125 L 442.4375 303.28125 L 443.9375 303.28125 L 443.9375 301.78125 L 446.9375 300.28125 L 446.9375 298.78125 L 448.4375 297.28125 L 448.4375 294.28125 L 448.4375 292.78125 L 449.9375 289.78125 L 451.4375 289.78125 L 452.9375 289.78125 L 454.4375 289.78125 L 455.9375 288.28125 L 457.4375 288.28125 L 455.9375 286.78125 L 457.4375 286.78125 L 458.9375 285.28125 L 460.4375 283.78125 L 458.9375 282.28125 L 457.4375 280.78125 L 457.4375 279.28125 L 457.4375 277.78125 L 457.4375 276.28125 L 457.4375 274.78125 L 457.4375 273.28125 L 457.4375 271.78125 L 455.9375 271.78125 L 454.4375 270.28125 L 451.4375 268.78125 L 446.9375 268.78125 L 445.4375 268.78125 L 443.9375 267.28125 L 440.9375 267.28125 L 439.4375 267.28125 L 437.9375 270.28125 L 436.4375 271.78125 L 436.4375 273.28125 L 434.9375 271.78125 L 433.4375 271.78125 L 431.9375 271.78125 L 430.4375 271.78125 L 427.4375 268.78125 L 425.9375 267.28125 L 424.4375 265.78125 L 425.9375 262.78125 L 424.4375 262.78125 L 422.9375 261.28125 L 421.4375 261.28125 L 424.4375 238.78125 L 421.4375 234.28125 L 416.9375 225.28125 L 416.9375 223.78125 L 415.4375 222.28125 L 410.9375 213.28125 L 409.4375 213.28125 L 407.9375 213.28125 L 407.9375 216.28125 L 404.9375 219.28125 L 403.4375 219.28125 L 400.4375 220.78125 L 398.9375 220.78125 L 397.4375 223.78125 L 395.9375 223.78125 L 394.4375 223.78125 L 389.9375 223.78125 L 388.4375 223.78125 L 388.4375 225.28125 L 385.4375 225.28125 L 382.4375 223.78125 L 377.9375 225.28125 L 376.4375 223.78125 L 371.9375 220.78125 L 370.4375 220.78125 L 365.9375 217.78125 L 364.4375 216.28125 L 362.9375 214.78125 L 361.4375 211.78125 L 361.4375 208.78125 L 361.4375 205.78125 L 362.9375 202.78125 L 362.9375 201.28125 L 361.4375 201.28125 L 361.4375 202.78125 L 359.9375 202.78125 L 358.4375 202.78125 L 358.4375 201.28125 L 358.4375 199.78125 L 355.4375 199.78125 L 352.4375 199.78125 L 350.9375 199.78125 L 349.4375 199.78125 L 346.4375 204.28125 L 346.4375 205.78125 L 346.4375 207.28125 L 346.4375 210.28125 L 344.9375 214.78125 L 344.9375 219.28125 L 344.9375 225.28125 L 341.9375 234.28125 L 340.4375 243.28125 L 337.4375 252.28125 L 337.4375 255.28125 L 335.9375 255.28125 L 335.9375 258.28125 L 332.9375 264.28125 L 332.9375 267.28125 L 329.9375 276.28125 L 329.9375 277.78125 L 329.9375 279.28125 L 329.9375 280.78125 L 329.9375 282.28125 L 329.9375 286.78125 L 328.4375 292.78125 L 328.4375 295.78125 L 328.4375 298.78125 L 326.9375 304.78125 L 326.9375 307.78125 L 326.9375 309.28125 L 326.9375 312.28125 L 325.4375 313.78125 L 325.4375 315.28125 L 323.9375 325.78125 L 322.4375 339.28125 L 320.9375 346.78125 L 319.4375 349.78125 L 317.9375 352.78125 L 316.4375 355.78125 L 314.9375 360.28125 L 317.9375 358.78125 L 319.4375 358.78125 L 322.4375 357.28125 L 323.9375 358.78125 L 322.4375 358.78125 L 322.4375 360.28125 L 319.4375 360.28125 L 317.9375 361.78125 L 320.9375 361.78125 L 320.9375 363.28125 L 317.9375 361.78125 L 316.4375 361.78125 L 316.4375 363.28125 L 313.4375 361.78125 L 313.4375 364.78125 L 314.9375 367.78125 L 313.4375 369.28125 L 313.4375 372.28125 L 311.9375 375.28125 L 310.4375 381.28125 L 308.9375 385.78125 L 305.9375 393.28125 L 299.9375 405.28125 L 290.9375 424.78125 L 287.9375 429.28125 L 286.4375 432.28125 L 281.9375 439.78125 L 280.4375 441.28125 L 280.4375 442.78125 L 277.4375 447.28125 L 275.9375 450.28125 L 271.4375 456.28125 L 262.4375 468.28125 L 257.9375 471.28125 L 257.9375 472.78125 L 254.9375 475.78125 L 253.4375 475.78125 L 253.4375 477.28125 L 253.4375 478.78125 L 254.9375 478.78125 L 253.4375 480.28125 L 253.4375 478.78125 L 251.9375 478.78125 L 250.4375 480.28125 L 248.9375 483.28125 L 247.4375 484.78125 L 242.9375 489.28125 L 239.9375 492.28125 L 235.4375 498.28125 L 233.9375 499.78125 L 230.9375 502.78125 L 229.4375 504.28125 L 229.4375 505.78125 L 226.4375 510.28125 L 223.4375 511.78125 L 220.4375 514.78125 L 218.9375 514.78125 L 217.4375 513.28125 L 209.9375 511.78125 L 208.4375 513.28125 L 206.9375 513.28125 L 205.4375 513.28125 L 203.9375 514.78125 L 203.9375 516.28125 L 202.4375 517.78125 L 200.9375 520.78125 L 202.4375 522.28125 L 203.9375 523.78125 L 203.9375 525.28125 L 200.9375 528.28125 L 199.4375 531.28125 L 196.4375 535.78125 L 197.9375 535.78125 L 199.4375 535.78125 L 200.9375 537.28125 L 202.4375 535.78125 L 208.4375 534.28125 L 209.9375 534.28125 L 211.4375 537.28125 L 209.9375 537.28125 L 209.9375 538.78125 L 206.9375 541.78125 L 206.9375 543.28125 L 205.4375 544.78125 L 205.4375 546.28125 L 206.9375 547.78125 L 212.9375 556.78125 L 212.9375 558.28125 L 212.9375 559.78125 L 211.4375 561.28125 L 214.4375 559.78125 L 215.9375 561.28125 L 217.4375 562.78125 L 218.9375 564.28125 L 218.9375 565.78125 L 220.4375 565.78125 L 221.9375 565.78125 L 223.4375 565.78125 L 224.9375 565.78125 L 223.4375 567.28125 L 224.9375 568.78125 L 226.4375 568.78125 L 226.4375 567.28125 L 227.9375 567.28125 L 229.4375 567.28125 L 230.9375 567.28125 L 232.4375 568.78125 L 235.4375 573.28125 L 236.9375 573.28125 L 238.4375 573.28125 L 239.9375 573.28125 L 239.9375 574.78125 L 242.9375 574.78125 L 244.4375 577.78125 L 245.9375 579.28125 L 247.4375 579.28125 L 248.9375 579.28125 L 247.4375 580.78125 L 245.9375 580.78125 L 247.4375 583.78125 L 248.9375 585.28125 L 253.4375 586.78125 L 253.4375 588.28125 L 256.4375 588.28125 L 259.4375 589.78125 L 262.4375 589.78125 L 262.4375 591.28125 L 268.4375 592.78125 L 271.4375 595.78125 L 272.9375 595.78125 L 275.9375 597.28125 L 280.4375 600.28125 L 281.9375 600.28125 L 283.4375 601.78125 L 286.4375 601.78125 L 286.4375 603.28125 L 292.4375 603.28125 L 293.9375 603.28125 L 296.9375 604.78125 L 298.4375 604.78125 L 299.9375 604.78125 L 301.4375 606.28125 L 302.9375 606.28125 L 304.4375 607.78125 L 305.9375 607.78125 L 308.9375 606.28125 L 310.4375 606.28125 L 314.9375 604.78125 L 316.4375 604.78125 L 317.9375 603.28125 L 320.9375 603.28125 L 322.4375 600.28125 L 323.9375 601.78125 L 325.4375 601.78125 L 328.4375 600.28125 L 328.4375 601.78125 L 328.4375 603.28125 L 325.4375 604.78125 L 323.9375 606.28125 L 322.4375 606.28125 L 320.9375 607.78125 L 319.4375 609.28125 L 307.4375 612.28125 L 305.9375 612.28125 L 304.4375 612.28125 L 299.9375 613.78125 L 296.9375 613.78125 L 292.4375 612.28125 L 290.9375 610.78125 L 289.4375 610.78125 L 287.9375 609.28125 L 286.4375 609.28125 L 283.4375 609.28125 L 281.9375 610.78125 L 278.9375 612.28125 L 277.4375 613.78125 L 277.4375 615.28125 L 275.9375 618.28125 L 274.4375 619.78125 L 272.9375 621.28125 L 271.4375 622.78125 L 268.4375 624.28125 L 266.9375 624.28125 L 265.4375 625.78125 L 263.9375 625.78125 L 263.9375 624.28125 L 262.4375 624.28125 L 260.9375 625.78125 L 257.9375 625.78125 L 256.4375 625.78125 L 254.9375 627.28125 L 253.4375 627.28125 L 251.9375 627.28125 L 250.4375 630.28125 L 248.9375 630.28125 L 248.9375 628.78125 L 247.4375 628.78125 L 245.9375 628.78125 L 244.4375 628.78125 L 241.4375 627.28125 L 238.4375 627.28125 L 236.9375 627.28125 L 235.4375 627.28125 L 232.4375 625.78125 L 227.9375 622.78125 L 226.4375 622.78125 L 221.9375 621.28125 L 221.9375 622.78125 L 218.9375 625.78125 L 217.4375 625.78125 L 218.9375 628.78125 L 220.4375 628.78125 L 221.9375 631.78125 L 223.4375 634.78125 L 226.4375 634.78125 L 229.4375 634.78125 L 230.9375 634.78125 L 232.4375 634.78125 L 232.4375 633.28125 L 233.9375 633.28125 L 233.9375 634.78125 L 233.9375 636.28125 L 232.4375 637.78125 L 230.9375 637.78125 L 229.4375 637.78125 L 227.9375 637.78125 L 226.4375 637.78125 L 224.9375 637.78125 L 223.4375 639.28125 L 221.9375 639.28125 L 218.9375 636.28125 L 212.9375 634.78125 L 211.4375 634.78125 L 208.4375 636.28125 L 206.9375 637.78125 L 205.4375 637.78125 L 202.4375 639.28125 L 200.9375 640.78125 L 199.4375 639.28125 L 196.4375 640.78125 L 194.9375 642.28125 L 194.9375 645.28125 L 196.4375 645.28125 L 196.4375 646.78125 L 197.9375 646.78125 L 199.4375 646.78125 L 200.9375 648.28125 L 202.4375 649.78125 L 203.9375 649.78125 L 203.9375 651.28125 L 203.9375 652.78125 L 205.4375 654.28125 L 206.9375 654.28125 L 208.4375 655.78125 L 209.9375 657.28125 L 209.9375 660.28125 L 211.4375 661.78125 L 212.9375 661.78125 L 212.9375 663.28125 L 214.4375 663.28125 L 215.9375 663.28125 L 221.9375 663.28125 L 223.4375 663.28125 L 224.9375 663.28125 L 226.4375 664.78125 L 227.9375 664.78125 L 227.9375 663.28125 L 230.9375 664.78125 L 233.9375 666.28125 L 232.4375 667.78125 L 232.4375 669.28125 L 232.4375 670.78125 L 233.9375 670.78125 L 239.9375 673.78125 L 241.4375 675.28125 L 241.4375 684.28125 L 241.4375 685.78125 L 242.9375 691.78125 L 241.4375 691.78125 L 239.9375 691.78125 L 238.4375 691.78125 L 236.9375 690.28125 L 235.4375 690.28125 L 233.9375 690.28125 L 232.4375 690.28125 L 230.9375 691.78125 L 229.4375 691.78125 L 227.9375 693.28125 L 226.4375 693.28125 L 224.9375 693.28125 L 223.4375 693.28125 L 223.4375 691.78125 L 221.9375 691.78125 L 217.4375 688.78125 L 215.9375 688.78125 L 214.4375 684.28125 L 212.9375 684.28125 L 209.9375 679.78125 L 209.9375 678.28125 L 208.4375 676.78125 L 209.9375 675.28125 L 208.4375 673.78125 L 208.4375 672.28125 L 208.4375 670.78125 L 206.9375 670.78125 L 205.4375 669.28125 L 202.4375 666.28125 L 200.9375 664.78125 L 199.4375 664.78125 L 197.9375 664.78125 L 196.4375 663.28125 L 194.9375 663.28125 L 191.9375 661.78125 L 190.4375 661.78125 L 188.9375 660.28125 L 187.4375 661.78125 L 185.9375 661.78125 L 185.9375 663.28125 L 182.9375 658.78125 L 184.4375 658.78125 L 182.9375 657.28125 L 182.9375 655.78125 L 181.4375 655.78125 L 179.9375 655.78125 L 178.4375 655.78125 L 176.9375 657.28125 L 175.4375 657.28125 L 173.9375 657.28125 L 170.9375 657.28125 L 169.4375 657.28125 L 167.9375 657.28125 L 166.4375 657.28125 L 166.4375 655.78125 L 164.9375 654.28125 L 161.9375 654.28125 L 158.9375 655.78125 L 157.4375 655.78125 L 155.9375 657.28125 L 151.4375 655.78125 L 149.9375 655.78125 L 148.4375 654.28125 L 146.9375 655.78125 L 143.9375 657.28125 L 143.9375 658.78125 L 142.4375 660.28125 L 142.4375 661.78125 L 140.9375 663.28125 L 139.4375 663.28125 L 137.9375 664.78125 L 139.4375 664.78125 L 140.9375 664.78125 L 137.9375 666.28125 L 137.9375 664.78125 L 134.9375 661.78125 L 133.4375 660.28125 L 133.4375 658.78125 L 131.9375 654.28125 L 131.9375 652.78125 L 130.4375 652.78125 L 128.9375 651.28125 L 125.9375 649.78125 L 124.4375 648.28125 L 122.9375 646.78125 L 122.9375 645.28125 L 122.9375 642.28125 L 124.4375 640.78125 L 122.9375 640.78125 L 121.4375 640.78125 L 119.9375 639.28125 L 115.4375 639.28125 L 113.9375 639.28125 L 112.4375 639.28125 L 109.4375 639.28125 L 109.4375 640.78125 L 107.9375 640.78125 L 106.4375 640.78125 L 104.9375 642.28125 L 101.9375 643.78125 L 100.4375 645.28125 L 97.4375 646.78125 L 95.9375 646.78125 L 94.4375 648.28125 L 92.9375 649.78125 L 89.9375 651.28125 L 88.4375 652.78125 L 86.9375 652.78125 L 85.4375 654.28125 L 83.9375 655.78125 L 83.9375 657.28125 L 83.9375 658.78125 L 83.9375 660.28125 L 85.4375 663.28125 L 86.9375 663.28125 L 88.4375 664.78125 L 89.9375 666.28125 L 92.9375 667.78125 L 92.9375 669.28125 L 94.4375 669.28125 L 95.9375 670.78125 L 97.4375 672.28125 L 97.4375 673.78125 L 98.9375 675.28125 L 98.9375 676.78125 L 100.4375 678.28125 L 100.4375 679.78125 L 101.9375 681.28125 L 103.4375 682.78125 L 106.4375 684.28125 L 106.4375 685.78125 L 107.9375 685.78125 L 109.4375 687.28125 L 109.4375 688.78125 L 110.9375 688.78125 L 113.9375 688.78125 L 115.4375 688.78125 L 115.4375 687.28125 L 115.4375 684.28125 L 116.9375 684.28125 L 116.9375 687.28125 L 118.4375 688.78125 L 119.9375 688.78125 L 122.9375 688.78125 L 124.4375 687.28125 L 124.4375 685.78125 L 125.9375 685.78125 L 128.9375 685.78125 L 130.4375 685.78125 L 127.4375 684.28125 L 128.9375 682.78125 L 131.9375 681.28125 L 133.4375 681.28125 L 133.4375 682.78125 L 137.9375 679.78125 L 137.9375 678.28125 L 137.9375 676.78125 L 139.4375 678.28125 L 139.4375 679.78125 L 140.9375 679.78125 L 139.4375 681.28125 L 137.9375 681.28125 L 134.9375 682.78125 L 137.9375 684.28125 L 139.4375 684.28125 L 140.9375 684.28125 L 139.4375 685.78125 L 140.9375 687.28125 L 140.9375 688.78125 L 139.4375 687.28125 L 137.9375 688.78125 L 136.4375 688.78125 L 137.9375 685.78125 L 134.9375 684.28125 L 133.4375 682.78125 L 131.9375 685.78125 L 133.4375 687.28125 L 137.9375 690.28125 L 139.4375 691.78125 L 139.4375 693.28125 L 140.9375 693.28125 L 140.9375 696.28125 L 140.9375 697.78125 L 142.4375 697.78125 L 143.9375 699.28125 L 145.4375 699.28125 L 145.4375 697.78125 L 146.9375 697.78125 L 149.9375 699.28125 L 151.4375 699.28125 L 151.4375 700.78125 L 154.4375 702.28125 L 154.4375 703.78125 L 155.9375 703.78125 L 158.9375 706.78125 L 160.4375 706.78125 L 163.4375 706.78125 L 166.4375 705.28125 L 167.9375 705.28125 L 169.4375 703.78125 L 172.4375 703.78125 L 173.9375 703.78125 L 175.4375 705.28125 L 176.9375 703.78125 L 178.4375 697.78125 L 179.9375 697.78125 L 179.9375 696.28125 L 179.9375 694.78125 L 181.4375 694.78125 L 181.4375 691.78125 L 181.4375 690.28125 L 181.4375 688.78125 L 181.4375 687.28125 L 181.4375 685.78125 L 184.4375 687.28125 L 187.4375 685.78125 L 188.9375 685.78125 L 191.9375 682.78125 L 193.4375 684.28125 L 194.9375 685.78125 L 196.4375 687.28125 L 196.4375 688.78125 L 197.9375 688.78125 L 197.9375 690.28125 L 199.4375 690.28125 L 200.9375 690.28125 L 202.4375 691.78125 L 203.9375 693.28125 L 206.9375 693.28125 L 206.9375 694.78125 L 206.9375 697.78125 L 209.9375 699.28125 L 211.4375 699.28125 L 212.9375 700.78125 L 214.4375 700.78125 L 217.4375 702.28125 L 220.4375 703.78125 L 223.4375 703.78125 L 224.9375 705.28125 L 227.9375 705.28125 L 232.4375 703.78125 L 235.4375 702.28125 L 236.9375 702.28125 L 238.4375 702.28125 L 238.4375 703.78125 L 239.9375 703.78125 L 241.4375 703.78125 L 244.4375 705.28125 L 245.9375 709.78125 L 245.9375 712.78125 L 250.4375 712.78125 L 253.4375 711.28125 L 263.9375 711.28125 L 263.9375 712.78125 L 265.4375 714.28125 L 265.4375 718.78125 L 266.9375 717.28125 L 271.4375 718.78125 L 272.9375 718.78125 L 274.4375 718.78125 L 275.9375 718.78125 L 277.4375 718.78125 L 278.9375 717.28125 L 281.9375 715.78125 L 283.4375 715.78125 L 283.4375 714.28125 L 283.4375 712.78125 L 275.9375 702.28125 L 274.4375 697.78125 L 275.9375 696.28125 L 277.4375 696.28125 L 277.4375 694.78125 L 277.4375 693.28125 L 277.4375 691.78125 L 277.4375 690.28125 L 275.9375 690.28125 L 274.4375 688.78125 L 275.9375 687.28125 L 286.4375 682.78125 L 289.4375 682.78125 L 290.9375 681.28125 L 292.4375 679.78125 L 293.9375 679.78125 L 295.4375 679.78125 L 305.9375 678.28125 L 307.4375 681.28125 L 304.4375 688.78125 L 305.9375 697.78125 L 313.4375 694.78125 L 314.9375 694.78125 L 317.9375 694.78125 L 323.9375 696.28125 L 326.9375 697.78125 L 328.4375 697.78125 L 328.4375 696.28125 L 329.9375 697.78125 L 332.9375 696.28125 L 331.4375 690.28125 L 335.9375 688.78125 L 337.4375 688.78125 L 338.9375 684.28125 L 341.9375 682.78125 L 343.4375 681.28125 L 344.9375 678.28125 L 347.9375 676.78125 L 349.4375 675.28125 L 347.9375 673.78125 L 349.4375 673.78125 L 350.9375 673.78125 L 350.9375 672.28125 L 353.9375 670.78125 L 355.4375 672.28125 L 355.4375 673.78125 L 356.9375 673.78125 L 358.4375 673.78125 L 361.4375 675.28125 L 362.9375 675.28125 L 362.9375 676.78125 L 362.9375 678.28125 L 364.4375 679.78125 L 365.9375 678.28125 L 367.4375 679.78125 L 365.9375 682.78125 L 365.9375 685.78125 L 367.4375 685.78125 L 367.4375 687.28125 L 365.9375 687.28125 L 364.4375 688.78125 L 362.9375 690.28125 L 364.4375 696.28125 L 364.4375 697.78125 L 365.9375 697.78125 L 367.4375 697.78125 L 367.4375 699.28125 L 365.9375 699.28125 L 361.4375 697.78125 L 359.9375 696.28125 L 356.9375 696.28125 L 356.9375 694.78125 L 355.4375 694.78125 L 352.4375 696.28125 L 352.4375 697.78125 L 352.4375 699.28125 L 353.9375 700.78125 L 356.9375 702.28125 L 358.4375 702.28125 L 362.9375 700.78125 L 365.9375 700.78125 L 368.9375 700.78125 L 370.4375 702.28125 L 371.9375 702.28125 L 371.9375 700.78125 L 373.4375 700.78125 L 374.9375 700.78125 L 376.4375 700.78125 L 377.9375 700.78125 L 380.9375 703.78125 L 380.9375 705.28125 L 382.4375 705.28125 L 383.9375 706.78125 L 385.4375 706.78125 L 391.4375 697.78125 L 400.4375 691.78125 L 400.4375 688.78125 L 401.9375 688.78125 L 401.9375 687.28125 L 400.4375 685.78125 L 400.4375 684.28125 L 401.9375 682.78125 L 401.9375 681.28125 L 403.4375 679.78125 L 406.4375 678.28125 L 407.9375 678.28125 L 406.4375 679.78125 L 407.9375 681.28125 L 407.9375 682.78125 L 409.4375 682.78125 L 415.4375 682.78125 L 419.9375 696.28125 L 418.4375 699.28125 L 413.9375 708.28125 L 422.9375 718.78125 L 422.9375 720.28125 L 424.4375 721.78125 L 425.9375 723.28125 L 425.9375 733.78125 L 431.9375 735.28125 L 433.4375 733.78125 L 437.9375 732.28125 L 439.4375 732.28125 L 439.4375 730.78125 L 448.4375 736.78125 L 445.4375 748.78125 L 446.9375 750.28125 L 452.9375 748.78125 L 458.9375 750.28125 L 463.4375 750.28125 L 466.4375 750.28125 L 467.9375 748.78125 L 469.4375 745.78125 L 473.9375 747.28125 L 479.9375 748.78125 L 482.9375 750.28125 L 487.4375 745.78125 L 488.9375 744.28125 L 493.4375 742.78125 L 494.9375 741.28125 L 496.4375 739.78125 L 496.4375 738.28125 L 497.9375 738.28125 L 503.9375 739.78125 L 503.9375 741.28125 L 505.4375 744.28125 L 509.9375 747.28125 L 511.4375 748.78125 L 511.4375 750.28125 L 511.4375 751.78125 L 511.4375 753.28125 L 511.4375 754.78125 L 511.4375 757.78125 L 512.9375 763.78125 L 514.4375 763.78125 L 517.4375 765.28125 L 529.4375 769.78125 L 530.9375 771.28125 L 530.9375 772.78125 L 532.4375 775.78125 L 533.9375 774.28125 L 535.4375 775.78125 L 536.9375 775.78125 L 538.4375 775.78125 L 541.4375 775.78125 L 542.9375 775.78125 L 544.4375 775.78125 L 547.4375 775.78125 L 548.9375 774.28125 L 550.4375 774.28125 L 551.9375 775.78125 L 554.9375 775.78125 L 556.4375 777.28125 L 556.4375 778.78125 L 557.9375 778.78125 L 556.4375 780.28125 L 554.9375 780.28125 L 554.9375 781.78125 L 556.4375 781.78125 L 556.4375 783.28125 L 556.4375 784.78125 L 556.4375 786.28125 L 557.9375 786.28125 L 557.9375 784.78125 L 559.4375 784.78125 L 560.9375 784.78125 L 560.9375 783.28125 L 562.4375 783.28125 L 563.9375 783.28125 L 563.9375 781.78125 L 566.9375 780.28125 L 566.9375 781.78125 L 568.4375 781.78125 L 568.4375 784.78125 L 572.9375 787.78125 L 571.4375 789.28125 L 569.9375 790.78125 L 569.9375 792.28125 L 566.9375 793.78125 L 565.4375 793.78125 L 565.4375 795.28125 L 563.9375 796.78125 L 562.4375 798.28125 L 563.9375 799.78125 L 566.9375 799.78125 L 568.4375 801.28125 L 568.4375 802.78125 L 566.9375 804.28125 L 566.9375 805.78125 L 565.4375 805.78125 L 563.9375 804.28125 L 562.4375 804.28125 L 560.9375 804.28125 L 560.9375 805.78125 L 560.9375 807.28125 L 562.4375 808.78125 L 562.4375 810.28125 L 560.9375 810.28125 L 560.9375 811.78125 L 562.4375 814.78125 L 560.9375 814.78125 L 560.9375 816.28125 L 559.4375 816.28125 L 556.4375 814.78125 L 554.9375 819.28125 L 554.9375 822.28125 L 553.4375 823.78125 L 553.4375 825.28125 L 554.9375 825.28125 L 556.4375 826.78125 L 556.4375 828.28125 L 554.9375 831.28125 L 554.9375 832.78125 L 554.9375 834.28125 L 554.9375 835.78125 L 553.4375 837.28125 L 551.9375 838.78125 L 550.4375 841.78125 L 548.9375 841.78125 L 547.4375 844.78125 L 545.9375 847.78125 L 545.9375 849.28125 L 547.4375 849.28125 L 548.9375 849.28125 L 550.4375 847.78125 L 551.9375 847.78125 L 553.4375 849.28125 L 553.4375 850.78125 L 550.4375 852.28125 L 550.4375 853.78125 L 550.4375 855.28125 L 547.4375 858.28125 L 547.4375 859.78125 L 545.9375 861.28125 L 547.4375 862.78125 L 545.9375 864.28125 L 544.4375 864.28125 L 542.9375 864.28125 L 541.4375 864.28125 L 539.9375 865.78125 L 539.9375 867.28125 L 539.9375 868.78125 L 536.9375 871.78125 L 536.9375 873.28125 L 535.4375 873.28125 L 533.9375 874.78125 L 532.4375 874.78125 L 532.4375 876.28125 L 530.9375 876.28125 L 529.4375 876.28125 L 530.9375 877.78125 L 529.4375 879.28125 L 529.4375 880.78125 L 529.4375 882.28125 L 529.4375 883.78125 L 529.4375 885.28125 L 529.4375 886.78125 L 529.4375 888.28125 L 530.9375 888.28125 L 530.9375 889.78125 L 530.9375 891.28125 L 532.4375 891.28125 L 532.4375 892.78125 L 533.9375 894.28125 L 535.4375 894.28125 L 536.9375 894.28125 L 536.9375 895.78125 L 539.9375 895.78125 L 541.4375 897.28125 L 541.4375 898.78125 L 539.9375 900.28125 L 541.4375 904.78125 L 541.4375 907.78125 L 538.4375 912.28125 L 538.4375 913.78125 L 539.9375 913.78125 L 541.4375 913.78125 L 542.9375 912.28125 L 544.4375 912.28125 L 545.9375 910.78125 L 545.9375 912.28125 L 547.4375 913.78125 L 548.9375 913.78125 L 550.4375 912.28125 L 550.4375 910.78125 L 551.9375 909.28125 L 554.9375 904.78125 L 557.9375 904.78125 L 557.9375 907.78125 L 559.4375 910.78125 L 560.9375 909.28125 L 563.9375 913.78125 L 565.4375 913.78125 L 566.9375 912.28125 L 568.4375 913.78125 L 569.9375 912.28125 L 571.4375 910.78125 L 571.4375 912.28125 L 571.4375 915.28125 L 572.9375 913.78125 L 574.4375 912.28125 L 574.4375 910.78125 L 575.9375 910.78125 L 577.4375 910.78125 L 580.4375 909.28125 L 580.4375 910.78125 L 580.4375 913.78125 L 583.4375 915.28125 L 583.4375 913.78125 L 584.9375 913.78125 L 586.4375 913.78125 L 586.4375 915.28125 L 589.4375 913.78125 L 590.9375 912.28125 L 592.4375 912.28125 L 593.9375 912.28125 L 595.4375 912.28125 L 596.9375 912.28125 L 598.4375 913.78125 L 601.4375 915.28125 L 602.9375 915.28125 L 602.9375 913.78125 L 605.9375 913.78125 L 607.4375 913.78125 L 607.4375 910.78125 L 608.9375 907.78125 L 604.4375 904.78125 L 602.9375 904.78125 L 601.4375 903.28125 L 601.4375 901.78125 L 599.9375 901.78125 L 598.4375 900.28125 L 598.4375 898.78125 L 598.4375 897.28125 L 599.9375 895.78125 L 601.4375 897.28125 L 604.4375 898.78125 L 605.9375 895.78125 L 607.4375 894.28125 L 607.4375 892.78125 L 608.9375 892.78125 L 607.4375 891.28125 L 607.4375 889.78125 L 605.9375 888.28125 L 605.9375 886.78125 L 605.9375 885.28125 L 607.4375 883.78125 L 610.4375 883.78125 L 611.9375 882.28125 L 613.4375 882.28125 L 613.4375 880.78125 L 614.9375 880.78125 L 614.9375 882.28125 L 617.9375 883.78125 L 617.9375 880.78125 L 617.9375 879.28125 L 619.4375 879.28125 L 619.4375 877.78125 L 620.9375 876.28125 L 620.9375 873.28125 L 619.4375 871.78125 L 619.4375 873.28125 L 617.9375 870.28125 L 617.9375 868.78125 L 617.9375 867.28125 L 619.4375 865.78125 L 619.4375 864.28125 L 620.9375 862.78125 L 620.9375 861.28125 L 619.4375 859.78125 L 617.9375 859.78125 L 616.4375 859.78125 L 613.4375 859.78125 L 613.4375 858.28125 L 613.4375 856.78125 L 611.9375 858.28125 L 610.4375 856.78125 L 605.9375 855.28125 L 605.9375 852.28125 L 605.9375 850.78125 L 602.9375 849.28125 L 604.4375 847.78125 L 605.9375 847.78125 L 605.9375 846.28125 L 607.4375 840.28125 L 605.9375 840.28125 L 599.9375 840.28125 L 598.4375 840.28125 L 596.9375 841.78125 L 595.4375 841.78125 L 593.9375 840.28125 L 593.9375 838.78125 L 592.4375 838.78125 L 589.4375 840.28125 L 587.9375 840.28125 L 586.4375 841.78125 L 584.9375 841.78125 L 583.4375 843.28125 L 581.9375 843.28125 L 580.4375 841.78125 L 583.4375 838.78125 L 583.4375 834.28125 L 581.9375 834.28125 L 580.4375 832.78125 L 580.4375 831.28125 L 578.9375 831.28125 L 578.9375 829.78125 L 577.4375 829.78125 L 577.4375 828.28125 L 577.4375 826.78125 L 577.4375 825.28125 L 577.4375 822.28125 L 575.9375 820.78125 L 574.4375 817.78125 L 575.9375 817.78125 L 578.9375 817.78125 L 580.4375 817.78125 L 580.4375 816.28125 L 583.4375 814.78125 L 584.9375 813.28125 L 584.9375 814.78125 L 587.9375 819.28125 L 589.4375 822.28125 L 589.4375 823.78125 L 590.9375 822.28125 L 592.4375 822.28125 L 592.4375 823.78125 L 593.9375 823.78125 L 593.9375 822.28125 L 595.4375 820.78125 L 595.4375 819.28125 L 596.9375 817.78125 L 596.9375 816.28125 L 596.9375 814.78125 L 598.4375 813.28125 L 598.4375 811.78125 L 599.9375 810.28125 L 599.9375 808.78125 L 601.4375 807.28125 L 604.4375 805.78125 L 605.9375 804.28125 L 608.9375 802.78125 L 610.4375 802.78125 L 611.9375 801.28125 L 613.4375 799.78125 L 613.4375 798.28125 L 614.9375 796.78125 L 616.4375 796.78125 L 617.9375 796.78125 L 619.4375 795.28125 L 619.4375 793.78125 L 619.4375 792.28125 L 620.9375 790.78125 L 622.4375 790.78125 L 623.9375 790.78125 L 625.4375 789.28125 L 626.9375 789.28125 L 626.9375 787.78125 L 629.9375 787.78125 L 631.4375 786.28125 L 632.9375 786.28125 L 635.9375 786.28125 L 634.4375 784.78125 L 635.9375 784.78125 L 637.4375 783.28125 L 631.4375 778.78125 L 629.9375 778.78125 L 638.9375 774.28125 L 635.9375 771.28125 L 626.9375 775.78125 L 625.4375 777.28125 L 623.9375 778.78125 L 622.4375 778.78125 L 620.9375 778.78125 L 617.9375 778.78125 L 617.9375 777.28125 L 616.4375 775.78125 L 616.4375 765.28125 L 614.9375 763.78125 L 616.4375 762.28125 L 619.4375 762.28125 L 616.4375 756.28125 L 619.4375 754.78125 L 620.9375 751.78125 L 626.9375 745.78125 L 626.9375 744.28125 L 628.4375 742.78125 L 631.4375 738.28125 L 632.9375 735.28125 L 632.9375 733.78125 L 634.4375 732.28125 L 634.4375 730.78125 L 634.4375 729.28125 L 635.9375 727.78125 L 635.9375 726.28125 L 637.4375 726.28125 L 638.9375 726.28125 L 640.4375 726.28125 L 640.4375 724.78125 L 647.9375 717.28125 L 646.4375 712.78125 L 644.9375 709.78125 L 644.9375 708.28125 L 646.4375 706.78125 L 647.9375 705.28125 L 643.4375 705.28125 L 643.4375 703.78125 L 644.9375 694.78125 L 644.9375 690.28125 L 646.4375 690.28125 L 644.9375 687.28125 L 646.4375 685.78125 L 646.4375 681.28125 L 644.9375 678.28125 L 643.4375 675.28125 L 644.9375 672.28125 L 643.4375 670.78125 L 643.4375 667.78125 L 643.4375 666.28125 L 641.9375 663.28125 L 638.9375 661.78125 L 635.9375 660.28125 L 632.9375 651.28125 L 629.9375 649.78125 L 628.4375 648.28125 L 626.9375 646.78125 L 625.4375 643.78125 L 625.4375 642.28125 L 623.9375 642.28125 L 619.4375 639.28125 L 619.4375 636.28125 L 619.4375 633.28125 L 620.9375 633.28125 L 620.9375 631.78125 L 622.4375 627.28125 L 622.4375 625.78125 L 623.9375 624.28125 L 623.9375 622.78125 L 620.9375 621.28125 L 619.4375 621.28125 L 617.9375 621.28125 L 617.9375 619.78125 L 616.4375 619.78125 L 614.9375 619.78125 L 607.4375 616.78125 L 605.9375 615.28125 L 605.9375 613.78125 L 605.9375 612.28125 L 607.4375 610.78125 L 605.9375 609.28125 L 605.9375 607.78125 L 605.9375 604.78125 L 607.4375 604.78125 L 608.9375 604.78125 L 608.9375 603.28125 L 607.4375 603.28125 L 607.4375 601.78125 L 607.4375 600.28125 L 605.9375 600.28125 L 601.4375 597.28125 L 599.9375 595.78125 L 596.9375 595.78125 L 595.4375 595.78125 L 590.9375 595.78125 L 590.9375 594.28125 L 590.9375 592.78125 L 592.4375 591.28125 L 595.4375 589.78125 L 596.9375 589.78125 L 598.4375 586.78125 L 598.4375 585.28125 L 596.9375 585.28125 L 596.9375 582.28125 L 598.4375 582.28125 L 596.9375 580.78125 L 595.4375 580.78125 L 595.4375 579.28125 L 595.4375 577.78125 L 595.4375 576.28125 L 592.4375 573.28125 L 590.9375 573.28125 L 589.4375 573.28125 L 589.4375 571.78125 L 590.9375 570.28125 L 592.4375 570.28125 L 589.4375 568.78125 L 592.4375 564.28125 L 593.9375 564.28125 L 593.9375 565.78125 L 596.9375 565.78125 L 598.4375 565.78125 L 601.4375 564.28125 L 602.9375 564.28125 L 604.4375 562.78125 L 605.9375 561.28125 L 607.4375 562.78125 L 608.9375 561.28125 L 610.4375 559.78125 L 611.9375 559.78125 L 610.4375 558.28125 L 611.9375 556.78125 L 613.4375 555.28125 L 614.9375 556.78125 L 617.9375 559.78125 L 619.4375 559.78125 L 620.9375 559.78125 L 626.9375 561.28125 L 631.4375 561.28125 L 632.9375 562.78125 L 632.9375 559.78125 L 632.9375 558.28125 L 632.9375 556.78125 L 632.9375 555.28125 L 629.9375 553.78125 L 628.4375 553.78125 L 628.4375 552.28125 L 628.4375 550.78125 L 626.9375 547.78125 L 625.4375 546.28125 L 622.4375 546.28125 L 620.9375 546.28125 L 622.4375 544.78125 L 622.4375 543.28125 L 623.9375 543.28125 L 625.4375 544.78125 L 631.4375 541.78125 L 632.9375 543.28125 L 634.4375 543.28125 L 635.9375 544.78125 L 638.9375 546.28125 L 638.9375 547.78125 L 635.9375 547.78125 L 637.4375 549.28125 L 638.9375 550.78125 L 640.4375 552.28125 L 643.4375 553.78125 L 646.4375 553.78125 L 646.4375 552.28125 L 649.4375 552.28125 L 650.9375 553.78125 L 652.4375 553.78125 L 652.4375 552.28125 L 653.9375 552.28125 L 653.9375 550.78125 L 655.4375 552.28125 L 659.9375 553.78125 L 659.9375 555.28125 L 661.4375 558.28125 L 661.4375 559.78125 L 664.4375 558.28125 L 667.4375 558.28125 L 668.9375 558.28125 L 670.4375 559.78125 L 671.9375 559.78125 L 673.4375 561.28125 L 673.4375 562.78125 L 673.4375 564.28125 L 674.9375 564.28125 L 676.4375 564.28125 L 677.9375 564.28125 L 680.9375 565.78125 L 682.4375 565.78125 L 680.9375 562.78125 L 682.4375 564.28125 L 680.9375 561.28125 L 680.9375 559.78125 L 682.4375 558.28125 L 680.9375 558.28125 L 680.9375 556.78125 L 679.4375 556.78125 L 677.9375 555.28125 L 677.9375 553.78125 L 677.9375 550.78125 L 680.9375 552.28125 L 682.4375 552.28125 L 683.9375 553.78125 L 685.4375 553.78125 L 685.4375 555.28125 L 686.9375 555.28125 L 688.4375 555.28125 L 689.9375 553.78125 L 691.4375 556.78125 L 692.9375 556.78125 L 694.4375 558.28125 L 695.9375 556.78125 L 700.4375 555.28125 L 700.4375 553.78125 L 700.4375 552.28125 L 701.9375 552.28125 L 703.4375 550.78125 L 704.9375 550.78125 L 706.4375 550.78125 L 707.9375 549.28125 L 707.9375 547.78125 L 709.4375 547.78125 L 710.9375 546.28125 L 710.9375 547.78125 L 712.4375 547.78125 L 713.9375 546.28125 L 716.9375 544.78125 L 724.4375 541.78125 L 725.9375 541.78125 L 727.4375 541.78125 L 727.4375 540.28125 L 730.4375 538.78125 L 733.4375 537.28125 L 734.9375 537.28125 L 736.4375 535.78125 L 736.4375 537.28125 L 737.9375 537.28125 L 739.4375 537.28125 L 739.4375 538.78125 L 740.9375 540.28125 L 743.9375 543.28125 L 746.9375 541.78125 L 746.9375 540.28125 L 748.4375 540.28125 L 749.9375 538.78125 L 751.4375 538.78125 L 751.4375 537.28125 L 752.9375 535.78125 L 754.4375 535.78125 L 757.4375 531.28125 L 758.9375 529.78125 L 758.9375 528.28125 L 758.9375 526.78125 L 758.9375 522.28125 L 761.9375 520.78125 L 764.9375 520.78125 L 766.4375 517.78125 L 764.9375 516.28125 L 764.9375 513.28125 L 764.9375 511.78125 L 760.4375 510.28125 L 761.9375 510.28125 L 752.9375 504.28125 L 751.4375 502.78125 L 749.9375 499.78125 L 742.4375 496.78125 L 736.4375 496.78125 L 736.4375 495.28125 L 736.4375 492.28125 L 736.4375 490.78125 L 737.9375 489.28125 L 737.9375 487.78125 L 737.9375 486.28125 L 742.4375 486.28125 L 745.4375 484.78125 L 748.4375 483.28125 L 748.4375 481.78125 L 748.4375 480.28125 L 748.4375 478.78125 L 749.9375 478.78125 L 749.9375 477.28125 L 751.4375 471.28125 L 763.4375 471.28125 L 767.9375 471.28125 L 769.4375 469.78125 L 770.9375 468.28125 L 772.4375 466.78125 L 772.4375 465.28125 L 773.9375 457.78125 L 775.4375 457.78125 L 775.4375 456.28125 L 779.9375 453.28125 L 779.9375 451.78125 L 784.4375 450.28125 L 788.9375 450.28125 L 790.4375 447.28125 L 790.4375 445.78125 L 791.9375 444.28125 L 791.9375 442.78125 L 793.4375 441.28125 L 793.4375 439.78125 L 793.4375 438.28125 L 793.4375 436.78125 L 794.9375 435.28125 L 797.9375 433.78125 L 799.4375 435.28125 L 800.9375 435.28125 L 802.4375 435.28125 L 805.4375 435.28125 L 809.9375 432.28125 L 809.9375 430.78125 L 805.4375 424.78125 L 803.9375 423.28125 L 803.9375 420.28125 L 802.4375 420.28125 L 802.4375 418.78125 L 802.4375 417.28125 L 802.4375 415.78125 L 802.4375 414.28125 L 803.9375 409.78125 L 803.9375 408.28125 L 805.4375 408.28125 L 805.4375 406.78125 L 806.9375 406.78125 L 806.9375 405.28125 L 806.9375 403.78125 L 808.4375 400.78125 L 808.4375 399.28125 L 811.4375 394.78125 L 811.4375 387.28125 L 808.4375 381.28125 L 808.4375 379.78125 L 808.4375 378.28125 L 806.9375 378.28125 L 805.4375 378.28125 L 803.9375 378.28125 L 802.4375 375.28125 L 800.9375 372.28125 L 797.9375 369.28125 L 797.9375 367.78125 L 796.4375 364.78125 L 796.4375 361.78125 L 794.9375 358.78125 L 794.9375 357.28125 L 793.4375 357.28125 L 791.9375 357.28125 L 790.4375 360.28125 L 788.9375 364.78125 L 785.9375 366.28125 L 785.9375 367.78125 L 784.4375 367.78125 L 776.9375 366.28125 L 773.9375 364.78125 L 769.4375 363.28125 L 766.4375 363.28125 L 767.9375 360.28125 L 764.9375 360.28125 L 760.4375 360.28125 L 751.4375 360.28125 L 748.4375 360.28125 L 746.9375 358.78125 L 740.9375 355.78125 L 739.4375 354.28125 L 736.4375 352.78125 L 737.9375 340.78125 L 734.9375 336.28125 L 731.9375 330.28125 L 733.4375 330.28125 L 736.4375 331.78125 L 739.4375 331.78125 L 740.9375 327.28125 L 743.9375 327.28125 L 746.9375 328.78125 L 748.4375 327.28125 L 739.4375 319.78125 L 739.4375 316.78125 L 740.9375 310.78125 L 740.9375 309.28125 L 739.4375 307.78125 L 737.9375 306.28125 L 739.4375 304.78125 L 740.9375 304.78125 L 742.4375 303.28125 L 743.9375 300.28125 L 746.9375 300.28125 L 748.4375 300.28125 L 749.9375 298.78125 L 751.4375 298.78125 L 752.9375 298.78125 L 754.4375 298.78125 L 755.9375 298.78125 L 757.4375 298.78125 L 758.9375 300.28125 L 760.4375 298.78125 L 761.9375 298.78125 L 764.9375 298.78125 L 767.9375 298.78125 L 769.4375 297.28125 L 770.9375 298.78125 L 773.9375 298.78125 L 775.4375 298.78125 L 778.4375 300.28125 L 778.4375 301.78125 L 779.9375 301.78125 L 782.9375 301.78125 L 784.4375 301.78125 L 785.9375 301.78125 L 788.9375 301.78125 L 790.4375 300.28125 L 791.9375 300.28125 L 793.4375 301.78125 L 794.9375 300.28125 L 794.9375 301.78125 L 796.4375 301.78125 L 800.9375 303.28125 L 802.4375 303.28125 L 805.4375 300.28125 L 805.4375 298.78125 L 805.4375 295.78125 L 805.4375 289.78125 L 806.9375 274.78125 L 806.9375 255.28125 L 806.9375 246.28125 L 811.4375 237.28125 L 809.9375 234.28125 L 809.9375 232.78125 L 812.9375 228.28125 L 821.9375 213.28125 L 827.9375 202.78125 L 830.9375 190.78125 L 832.4375 183.28125 L 833.9375 181.78125 L 833.9375 180.28125 L 830.9375 166.78125 L 830.9375 159.28125 L 830.9375 157.78125 L 830.9375 147.28125 L 826.4375 144.28125 L 826.4375 141.28125 L 826.4375 139.78125 L 826.4375 138.28125 L 827.9375 136.78125 L 827.9375 133.78125 L 827.9375 132.28125 L 829.4375 127.78125 L 830.9375 127.78125 L 832.4375 126.28125 L 835.4375 126.28125 L 832.4375 124.78125 L 830.9375 123.28125 L 832.4375 121.78125 L 832.4375 120.28125 L 832.4375 114.28125 L 830.9375 109.78125 L 830.9375 108.28125 L 829.4375 108.28125 L 824.9375 106.78125 L 823.4375 106.78125 L 823.4375 105.28125 L 821.9375 105.28125 L 820.4375 105.28125 L 818.9375 105.28125 L 817.4375 105.28125 L 817.4375 103.78125 L 815.9375 103.78125 L 814.4375 103.78125 L 811.4375 103.78125 L 809.9375 102.28125 L 808.4375 102.28125 L 806.9375 100.78125 L 805.4375 99.28125 L 805.4375 97.78125 L 805.4375 94.78125 L 806.9375 93.28125 L 805.4375 90.28125 L 805.4375 88.78125 L 806.9375 88.78125 L 808.4375 85.78125 L 808.4375 84.28125 L 805.4375 85.78125 L 803.9375 87.28125 L 799.4375 87.28125 L 797.9375 87.28125 L 796.4375 87.28125 L 794.9375 87.28125 L 791.9375 85.78125 L 791.9375 84.28125 L 790.4375 84.28125 L 788.9375 84.28125 L 785.9375 82.78125 L 782.9375 81.28125 L 782.9375 82.78125 L 779.9375 81.28125 L 776.9375 79.78125 L 775.4375 79.78125 L 775.4375 78.28125 L 776.9375 78.28125 L 775.4375 76.78125 L 772.4375 73.78125 L 770.9375 73.78125 L 769.4375 72.28125 L 769.4375 70.78125 L 769.4375 67.78125 L 769.4375 64.78125 L 767.9375 63.28125 L 767.9375 61.78125 L 767.9375 60.28125 L 767.9375 57.28125 L 766.4375 54.28125 L 764.9375 54.28125 L 764.9375 49.78125 L 766.4375 45.28125 L 766.4375 43.78125 L 761.9375 39.28125 L 758.9375 37.78125 L 757.4375 40.78125 L 758.9375 42.28125 L 757.4375 42.28125 L 755.9375 42.28125 L 754.4375 42.28125 L 754.4375 40.78125 L 755.9375 42.28125 L 755.9375 40.78125 L 757.4375 37.78125 L 755.9375 37.78125 L 752.9375 36.28125 L 749.9375 39.28125 L 748.4375 37.78125 L 745.4375 36.28125 L 740.9375 36.28125 L 739.4375 34.78125 z M 776.9375 78.28125 L 778.4375 79.78125 L 778.4375 78.28125 L 776.9375 78.28125 z M 830.9375 108.28125 L 830.9375 105.28125 L 829.4375 106.78125 L 830.9375 108.28125 z M 383.9375 706.78125 L 382.4375 706.78125 L 380.9375 706.78125 L 382.4375 708.28125 L 383.9375 706.78125 z M 124.4375 640.78125 L 125.9375 640.78125 L 125.9375 642.28125 L 125.9375 643.78125 L 127.4375 643.78125 L 127.4375 646.78125 L 128.9375 646.78125 L 130.4375 648.28125 L 131.9375 648.28125 L 133.4375 649.78125 L 134.9375 651.28125 L 136.4375 649.78125 L 136.4375 651.28125 L 134.9375 651.28125 L 137.9375 654.28125 L 137.9375 655.78125 L 137.9375 657.28125 L 136.4375 658.78125 L 137.9375 660.28125 L 137.9375 661.78125 L 139.4375 658.78125 L 140.9375 658.78125 L 142.4375 655.78125 L 143.9375 654.28125 L 149.9375 652.78125 L 152.9375 652.78125 L 154.4375 654.28125 L 157.4375 654.28125 L 158.9375 654.28125 L 160.4375 654.28125 L 160.4375 652.78125 L 161.9375 652.78125 L 164.9375 652.78125 L 166.4375 654.28125 L 167.9375 655.78125 L 170.9375 655.78125 L 172.4375 652.78125 L 175.4375 652.78125 L 176.9375 651.28125 L 176.9375 649.78125 L 176.9375 648.28125 L 176.9375 646.78125 L 175.4375 646.78125 L 175.4375 645.28125 L 173.9375 643.78125 L 172.4375 640.78125 L 172.4375 639.28125 L 170.9375 637.78125 L 169.4375 637.78125 L 167.9375 637.78125 L 167.9375 636.28125 L 166.4375 636.28125 L 164.9375 636.28125 L 161.9375 637.78125 L 160.4375 636.28125 L 157.4375 636.28125 L 154.4375 637.78125 L 152.9375 639.28125 L 149.9375 637.78125 L 146.9375 639.28125 L 145.4375 639.28125 L 143.9375 640.78125 L 142.4375 640.78125 L 140.9375 639.28125 L 139.4375 639.28125 L 137.9375 637.78125 L 136.4375 637.78125 L 134.9375 637.78125 L 134.9375 636.28125 L 133.4375 636.28125 L 133.4375 637.78125 L 128.9375 639.28125 L 124.4375 640.78125 z M 211.4375 561.28125 L 209.9375 562.78125 L 211.4375 562.78125 L 211.4375 561.28125 z M 362.9375 201.28125 L 362.9375 199.78125 L 361.4375 199.78125 L 362.9375 201.28125 z M 395.9375 393.28125 L 395.9375 394.78125 L 397.4375 394.78125 L 395.9375 393.28125 z M 524.9375 396.28125 L 521.9375 394.78125 L 523.4375 396.28125 L 524.9375 396.28125 z M 443.03125 376.78125 L 445.4375 375.28125 L 442.4375 376.78125 L 443.03125 376.78125 z M 473.9375 159.28125 L 469.4375 163.78125 L 467.9375 163.78125 L 466.4375 163.78125 L 467.9375 165.28125 L 469.4375 165.28125 L 470.9375 163.78125 L 473.9375 159.28125 z M 484.4375 129.28125 L 484.4375 127.78125 L 482.9375 129.28125 L 484.4375 129.28125 z M 638.9375 73.78125 L 638.9375 75.28125 L 640.4375 76.78125 L 638.9375 73.78125 z M 629.9375 82.78125 L 631.4375 82.78125 L 631.4375 84.28125 L 629.9375 82.78125 z M 626.9375 84.28125 L 628.4375 84.28125 L 626.9375 85.78125 L 626.9375 84.28125 z M 479.9375 174.28125 L 481.4375 174.28125 L 479.9375 175.78125 L 479.9375 174.28125 z M 417.84375 289.46875 L 417.96875 289.53125 L 417.03125 289.96875 L 417.84375 289.46875 z M 413.46875 292.53125 L 413.15625 292.8125 L 413.15625 292.78125 L 413.46875 292.53125 z M 413.15625 293.34375 L 413.28125 294.28125 L 411.03125 294.625 L 411 294.59375 L 407.9375 295.78125 L 410.9375 294.59375 L 411 294.59375 L 413.15625 294.25 L 413.15625 293.34375 z M 544.4375 316.78125 L 544.4375 318.28125 L 545.9375 318.28125 L 545.9375 319.78125 L 547.4375 321.28125 L 547.4375 319.78125 L 548.9375 319.78125 L 550.4375 318.28125 L 548.9375 316.78125 L 547.4375 316.78125 L 545.9375 316.78125 L 544.4375 316.78125 z M 421.4375 360.28125 L 421.4375 361.78125 L 421.4375 363.28125 L 419.9375 366.28125 L 421.4375 366.28125 L 422.9375 364.78125 L 424.4375 364.78125 L 425.9375 363.28125 L 427.4375 363.28125 L 427.4375 361.78125 L 424.4375 363.28125 L 422.9375 361.78125 L 421.4375 360.28125 z M 287.9375 570.28125 L 289.4375 570.28125 L 287.9375 571.78125 L 287.9375 570.28125 z "
     id="path17"
     transform="scale(0.66666667,0.66666667)" />
  <path
     d="m 404.96708,27.18733 0,1 -1,1 -1,0 0,0 0,-1 0,-1 0,0 1,-1 0,0 1,0 0,1 z"
     style="fill:#b9b9b9;fill-opacity:1;fill-rule:evenodd;stroke:#b9b9b9;stroke-width:0.69999999999999996;stroke-linecap:butt;stroke-linejoin:bevel;stroke-miterlimit:10;stroke-opacity:1;stroke-dasharray:none"
     id="path65" />
  <path
     d="m 362.96708,26.18733 3,0 3,0 13,-1 6,-1 3,0 2,1 1,0 0,1 0,0 0,1 -1,0 -3,0 -2,0 -3,0 -2,1 0,0 -2,1 -1,0 0,0 0,0 -4,1 -4,1 -2,0 -1,0 -1,0 -3,-1 -1,0 -2,0 -1,0 0,1 -1,1 -1,1 -2,0 -1,1 -1,0 -1,0 1,0 -1,1 -1,-1 -2,0 -1,-1 -2,-1 -1,-2 0,-1 1,-1 1,-2 1,-1 2,-2 1,0 1,0 1,1 1,0 1,1 -1,0 0,0 -1,-1 0,0 -1,0 -2,0 -1,1 2,0 1,0 0,0 4,1 5,0 z"
     style="fill:#b9b9b9;fill-opacity:1;fill-rule:evenodd;stroke:#b9b9b9;stroke-width:0.69999999999999996;stroke-linecap:butt;stroke-linejoin:bevel;stroke-miterlimit:10;stroke-opacity:1;stroke-dasharray:none"
     id="path71" />
  <path
     d="m 441.96708,15.18733 0,2 -1,0 -1,0 -1,0 -1,0 -2,1 0,0 -3,1 -1,1 0,1 -2,1 -1,0 -2,0 0,0 -1,0 0,0 -3,1 -1,0 0,0 -3,0 -1,0 -1,2 0,1 -1,0 0,1 0,0 -1,0 0,0 -1,0 0,1 0,0 -1,-2 0,0 0,-1 1,0 1,-1 -1,-1 0,-1 0,-2 1,-1 2,-1 0,-1 0,0 -1,0 -1,0 -1,0 0,0 -1,0 1,0 0,0 1,-1 2,1 3,0 10,-1 3,0 6,-1 2,-1 1,1 z"
     style="fill:#b9b9b9;fill-opacity:1;fill-rule:evenodd;stroke:#b9b9b9;stroke-width:0.69999999999999996;stroke-linecap:butt;stroke-linejoin:bevel;stroke-miterlimit:10;stroke-opacity:1;stroke-dasharray:none"
     id="path99" />
  <path
     d="m 299.96708,72.18733 0,0 0,0 -1,-1 1,0 0,0 2,0 1,0 0,0 -1,0 0,1 -1,0 0,0 -1,0 0,-1 0,0 0,0 0,0 0,1 z"
     style="fill:#b9b9b9;fill-opacity:1;fill-rule:evenodd;stroke:#b9b9b9;stroke-width:0.69999999999999996;stroke-linecap:butt;stroke-linejoin:bevel;stroke-miterlimit:10;stroke-opacity:1;stroke-dasharray:none"
     id="path105" />
  <path
     d="m 323.96708,38.18733 -4,0 -2,1 -1,0 -1,1 0,0 -2,2 -1,1 0,0 -1,0 -1,0 0,1 -1,0 -1,-1 0,1 -1,0 -1,1 0,0 0,0 -1,0 0,1 0,0 -1,-1 -1,0 0,0 -1,0 -1,0 0,0 -1,1 -1,1 -1,-1 -1,1 -1,0 -1,1 0,1 0,0 0,0 -1,0 -2,1 1,0 -1,1 -1,0 -2,0 -1,-2 -1,0 0,0 0,-1 1,-1 2,-3 2,-3 0,0 2,-1 2,-1 4,-1 6,-1 2,0 6,-2 5,-2 11,-4 3,0 3,-1 1,1 1,0 1,1 0,0 0,2 0,1 0,0 0,-1 0,-1 -1,-1 0,0 0,1 -1,1 0,0 -1,1 -2,0 -1,0 -2,1 0,0 0,0 -1,-1 0,0 0,0 0,0 0,1 1,0 -1,1 -1,0 0,0 -1,0 0,-1 -1,0 0,0 1,1 0,1 -1,0 -1,0 0,0 -1,-1 0,0 0,0 1,1 1,1 1,0 1,0 0,0 -1,1 -2,0 -2,0 -1,0 z"
     style="fill:#b9b9b9;fill-opacity:1;fill-rule:evenodd;stroke:#b9b9b9;stroke-width:0.69999999999999996;stroke-linecap:butt;stroke-linejoin:bevel;stroke-miterlimit:10;stroke-opacity:1;stroke-dasharray:none"
     id="path107" />
  <path
     d="m 288.96708,61.18733 0,0 -1,1 -1,1 -1,0 -1,0 -1,0 0,0 0,1 0,0 -1,0 0,0 0,-1 0,0 1,0 -1,0 1,-1 1,-1 2,0 2,0 0,0 z"
     style="fill:#b9b9b9;fill-opacity:1;fill-rule:evenodd;stroke:#b9b9b9;stroke-width:0.69999999999999996;stroke-linecap:butt;stroke-linejoin:bevel;stroke-miterlimit:10;stroke-opacity:1;stroke-dasharray:none"
     id="path109" />
  <path
     d="m 275.96708,62.18733 0,1 -1,1 -2,1 -6,2 -2,1 0,1 0,2 1,0 0,-1 0,0 0,0 0,0 1,0 -1,1 -1,2 0,0 0,0 -3,2 -1,1 -1,0 0,1 -1,1 -2,1 0,0 0,0 -1,0 -2,0 -3,0 -1,1 0,0 0,1 1,0 -1,0 -1,0 0,0 0,-2 0,-1 0,-1 6,-3 3,-3 2,-1 2,-2 1,-1 4,-3 2,-1 1,-1 0,0 3,-1 2,-1 2,-1 1,0 3,1 0,1 -1,1 0,0 0,0 -1,0 -1,0 -2,0 z"
     style="fill:#b9b9b9;fill-opacity:1;fill-rule:evenodd;stroke:#b9b9b9;stroke-width:0.69999999999999996;stroke-linecap:butt;stroke-linejoin:bevel;stroke-miterlimit:10;stroke-opacity:1;stroke-dasharray:none"
     id="path111" />
  <path
     d="m 227.96708,131.18733 -2,1 0,0 0,0 0,0 -1,1 -1,0 0,1 0,0 -1,0 0,0 -1,-1 0,0 0,-1 0,-1 0,-1 1,0 0,0 0,0 0,0 1,0 1,0 3,-1 0,0 2,0 0,1 0,0 -2,1 z"
     style="fill:#b9b9b9;fill-opacity:1;fill-rule:evenodd;stroke:#b9b9b9;stroke-width:0.69999999999999996;stroke-linecap:butt;stroke-linejoin:bevel;stroke-miterlimit:10;stroke-opacity:1;stroke-dasharray:none"
     id="path415" />
  <path
     d="m 249.96708,116.18733 -2,2 -1,1 -1,0 -1,0 -1,0 -3,4 0,1 0,0 0,1 -1,0 -1,0 -1,-1 -2,-1 -1,0 1,1 1,1 0,0 1,1 1,0 -2,0 0,0 0,1 0,0 0,0 -2,0 -1,0 1,0 -1,1 -1,0 -1,1 -1,0 0,-1 0,-2 -1,-4 0,-2 0,-1 1,-3 0,-1 0,0 1,-3 1,-3 1,-3 1,-1 2,-3 2,-4 3,-3 0,0 0,0 0,1 0,1 1,-1 0,0 0,0 1,-1 0,0 1,-1 1,0 0,1 0,-1 0,0 -1,0 0,-1 -1,1 0,0 -2,1 0,0 3,-6 1,-1 2,-1 0,-1 1,0 1,0 0,0 1,1 1,1 0,1 0,1 1,0 -1,0 0,0 0,1 1,1 0,0 1,1 2,3 0,1 0,0 0,0 0,0 -1,1 0,6 0,3 0,1 -1,2 -1,0 -1,1 0,0 0,0 0,2 -2,2 0,1 z"
     style="fill:#b9b9b9;fill-opacity:1;fill-rule:evenodd;stroke:#b9b9b9;stroke-width:0.69999999999999996;stroke-linecap:butt;stroke-linejoin:bevel;stroke-miterlimit:10;stroke-opacity:1;stroke-dasharray:none"
     id="path417" />
  <path
     d="m 289.96708,126.18733 0,0 -14,12 -1,1 -1,0 0,-1 2,0 14,-12 z"
     style="fill:#b9b9b9;fill-opacity:1;fill-rule:evenodd;stroke:#b9b9b9;stroke-width:0.69999999999999996;stroke-linecap:butt;stroke-linejoin:bevel;stroke-miterlimit:10;stroke-opacity:1;stroke-dasharray:none"
     id="path433" />
  <path
     d="m 256.96708,150.18733 -2,-1 -3,1 0,0 4,-2 1,-1 2,-1 1,0 2,-3 0,-1 0,0 2,-2 2,0 1,-1 1,0 1,1 1,0 1,-1 0,0 1,0 1,1 0,0 0,0 0,0 0,0 0,-1 1,0 0,2 0,0 -1,-1 0,0 0,0 0,2 0,0 -1,0 0,2 0,0 -2,2 -1,0 -2,1 -1,0 -1,2 -1,0 0,0 -1,0 0,0 -3,0 -1,0 0,1 0,0 0,0 -2,0 0,0 z"
     style="fill:#b9b9b9;fill-opacity:1;fill-rule:evenodd;stroke:#b9b9b9;stroke-width:0.69999999999999996;stroke-linecap:butt;stroke-linejoin:bevel;stroke-miterlimit:10;stroke-opacity:1;stroke-dasharray:none"
     id="path435" />
  <path
     style="fill:#b9b9b9;fill-opacity:1;fill-rule:evenodd;stroke:#b9b9b9;stroke-width:1.04999994999999990;stroke-linecap:butt;stroke-linejoin:bevel;stroke-miterlimit:10;stroke-opacity:1;stroke-dasharray:none"
     d="M 200.9375 558.28125 L 197.9375 559.78125 L 200.9375 559.78125 L 200.9375 558.28125 z M 200.9375 559.78125 L 196.4375 561.28125 L 194.9375 561.28125 L 193.4375 561.28125 L 196.4375 559.78125 L 191.9375 561.28125 L 182.9375 564.28125 L 179.9375 565.78125 L 178.4375 565.78125 L 173.9375 567.28125 L 172.4375 567.28125 L 170.9375 570.28125 L 170.9375 571.78125 L 170.9375 573.28125 L 172.4375 577.78125 L 172.4375 579.28125 L 173.9375 579.28125 L 173.9375 580.78125 L 175.4375 580.78125 L 178.4375 579.28125 L 178.4375 577.78125 L 176.9375 577.78125 L 176.9375 576.28125 L 178.4375 576.28125 L 179.9375 576.28125 L 181.4375 576.28125 L 182.9375 574.78125 L 184.4375 574.78125 L 185.9375 574.78125 L 187.4375 574.78125 L 188.9375 573.28125 L 190.4375 571.78125 L 193.4375 573.28125 L 196.4375 573.28125 L 199.4375 574.78125 L 199.4375 576.28125 L 200.9375 577.78125 L 202.4375 580.78125 L 203.9375 580.78125 L 203.9375 583.78125 L 203.9375 585.28125 L 202.4375 585.28125 L 202.4375 586.78125 L 203.9375 586.78125 L 202.4375 588.28125 L 202.4375 589.78125 L 203.9375 592.78125 L 205.4375 592.78125 L 205.4375 594.28125 L 206.9375 595.78125 L 206.9375 597.28125 L 208.4375 600.28125 L 208.4375 603.28125 L 209.9375 603.28125 L 211.4375 603.28125 L 212.9375 604.78125 L 214.4375 603.28125 L 214.4375 604.78125 L 217.4375 604.78125 L 220.4375 604.78125 L 221.9375 604.78125 L 223.4375 604.78125 L 224.9375 606.28125 L 229.4375 607.78125 L 230.9375 610.78125 L 232.4375 612.28125 L 235.4375 612.28125 L 236.9375 612.28125 L 236.9375 613.78125 L 239.9375 613.78125 L 241.4375 615.28125 L 242.9375 615.28125 L 242.9375 616.78125 L 242.9375 618.28125 L 245.9375 619.78125 L 247.4375 621.28125 L 251.9375 621.28125 L 253.4375 621.28125 L 254.9375 621.28125 L 257.9375 619.78125 L 260.9375 619.78125 L 262.4375 619.78125 L 266.9375 618.28125 L 269.9375 616.78125 L 271.4375 615.28125 L 272.9375 612.28125 L 272.9375 610.78125 L 271.4375 610.78125 L 271.4375 609.28125 L 272.9375 609.28125 L 274.4375 609.28125 L 275.9375 609.28125 L 277.4375 609.28125 L 280.4375 607.78125 L 278.9375 607.78125 L 278.9375 606.28125 L 278.9375 604.78125 L 277.4375 604.78125 L 275.9375 606.28125 L 272.9375 606.28125 L 269.9375 606.28125 L 266.9375 606.28125 L 265.4375 606.28125 L 262.4375 606.28125 L 259.4375 601.78125 L 256.4375 601.78125 L 254.9375 600.28125 L 253.4375 600.28125 L 251.9375 598.78125 L 251.9375 597.28125 L 248.9375 595.78125 L 248.9375 594.28125 L 248.9375 592.78125 L 247.4375 592.78125 L 242.9375 588.28125 L 238.4375 583.78125 L 236.9375 583.78125 L 236.9375 582.28125 L 233.9375 582.28125 L 232.4375 580.78125 L 230.9375 580.78125 L 227.9375 577.78125 L 224.9375 576.28125 L 223.4375 576.28125 L 217.4375 573.28125 L 215.9375 571.78125 L 211.4375 570.28125 L 211.4375 568.78125 L 209.9375 567.28125 L 208.4375 567.28125 L 208.4375 568.78125 L 206.9375 567.28125 L 208.4375 567.28125 L 208.4375 565.78125 L 208.4375 564.28125 L 206.9375 564.28125 L 206.9375 565.78125 L 205.4375 565.78125 L 205.4375 564.28125 L 202.4375 562.78125 L 202.4375 561.28125 L 200.9375 559.78125 z M 172.4375 580.78125 L 170.9375 583.78125 L 169.4375 585.28125 L 166.4375 586.78125 L 167.9375 586.78125 L 170.9375 588.28125 L 172.4375 589.78125 L 173.9375 589.78125 L 173.9375 588.28125 L 172.4375 586.78125 L 170.9375 585.28125 L 172.4375 580.78125 z "
     id="path479"
     transform="scale(0.66666667,0.66666667)" />
  <path
     d="m 126.96709,387.18733 1,1 0,0 -1,-1 -2,0 -2,1 -2,1 -1,0 0,-1 0,0 2,-1 0,-1 1,-1 1,-1 0,1 1,0 2,2 0,0 z"
     style="fill:#b9b9b9;fill-opacity:1;fill-rule:evenodd;stroke:#b9b9b9;stroke-width:0.69999999999999996;stroke-linecap:butt;stroke-linejoin:bevel;stroke-miterlimit:10;stroke-opacity:1;stroke-dasharray:none"
     id="path483" />
  <path
     d="m 172.96708,394.18733 2,1 3,1 2,1 0,0 1,1 -1,0 0,0 -2,1 -3,0 -1,0 -1,-1 -1,-1 0,0 -1,0 -2,-2 -1,0 -1,-1 0,0 0,0 1,-1 0,0 2,0 3,1 z"
     style="fill:#b9b9b9;fill-opacity:1;fill-rule:evenodd;stroke:#b9b9b9;stroke-width:0.69999999999999996;stroke-linecap:butt;stroke-linejoin:bevel;stroke-miterlimit:10;stroke-opacity:1;stroke-dasharray:none"
     id="path547" />
  <path
     style="fill:#b9b9b9;fill-opacity:1;fill-rule:evenodd;stroke:#b9b9b9;stroke-width:1.04999994999999990;stroke-linecap:butt;stroke-linejoin:bevel;stroke-miterlimit:10;stroke-opacity:1;stroke-dasharray:none"
     d="M 95.9375 699.28125 L 95.9375 700.78125 L 94.4375 700.78125 L 92.9375 700.78125 L 89.9375 702.28125 L 88.4375 702.28125 L 86.9375 702.28125 L 85.4375 703.78125 L 83.9375 703.78125 L 82.4375 703.78125 L 80.9375 703.78125 L 79.4375 703.78125 L 77.9375 703.78125 L 77.9375 705.28125 L 76.4375 705.28125 L 74.9375 706.78125 L 73.4375 706.78125 L 71.9375 706.78125 L 70.4375 708.28125 L 68.9375 708.28125 L 68.9375 709.78125 L 70.4375 711.28125 L 70.4375 714.28125 L 70.4375 715.78125 L 70.4375 717.28125 L 71.9375 718.78125 L 71.9375 721.78125 L 67.4375 726.28125 L 65.9375 727.78125 L 67.4375 729.28125 L 70.4375 732.28125 L 68.9375 732.28125 L 67.4375 732.28125 L 67.4375 733.78125 L 68.9375 735.28125 L 70.4375 736.78125 L 70.4375 738.28125 L 68.9375 739.78125 L 70.4375 741.28125 L 71.9375 741.28125 L 73.4375 744.28125 L 74.9375 744.28125 L 76.4375 747.28125 L 77.9375 745.78125 L 79.4375 747.28125 L 79.4375 748.78125 L 79.4375 750.28125 L 80.9375 750.28125 L 82.4375 751.78125 L 83.9375 751.78125 L 88.4375 751.78125 L 100.4375 750.28125 L 98.9375 739.78125 L 97.4375 738.28125 L 100.4375 736.78125 L 101.9375 738.28125 L 103.4375 738.28125 L 103.4375 736.78125 L 104.9375 736.78125 L 106.4375 736.78125 L 106.4375 735.28125 L 107.9375 735.28125 L 109.4375 736.78125 L 110.9375 738.28125 L 112.4375 736.78125 L 110.9375 733.78125 L 113.9375 732.28125 L 115.4375 733.78125 L 118.4375 735.28125 L 119.9375 736.78125 L 122.9375 738.28125 L 124.4375 738.28125 L 124.4375 736.78125 L 127.4375 736.78125 L 130.4375 739.78125 L 131.9375 739.78125 L 133.4375 741.28125 L 133.4375 742.78125 L 137.9375 742.78125 L 139.4375 744.28125 L 139.4375 742.78125 L 145.4375 744.28125 L 146.9375 744.28125 L 148.4375 747.28125 L 149.9375 747.28125 L 149.9375 745.78125 L 151.4375 747.28125 L 152.9375 748.78125 L 154.4375 748.78125 L 154.4375 750.28125 L 152.9375 751.78125 L 152.9375 754.78125 L 152.9375 759.28125 L 152.9375 762.28125 L 154.4375 763.78125 L 155.9375 763.78125 L 155.9375 762.28125 L 157.4375 763.78125 L 158.9375 763.78125 L 160.4375 763.78125 L 161.9375 763.78125 L 163.4375 763.78125 L 164.9375 763.78125 L 166.4375 763.78125 L 167.9375 763.78125 L 170.9375 760.78125 L 172.4375 760.78125 L 173.9375 760.78125 L 173.9375 763.78125 L 172.4375 763.78125 L 170.9375 765.28125 L 172.4375 766.78125 L 173.9375 766.78125 L 175.4375 766.78125 L 178.4375 765.28125 L 179.9375 765.28125 L 178.4375 762.28125 L 181.4375 760.78125 L 182.9375 763.78125 L 184.4375 763.78125 L 184.4375 762.28125 L 185.9375 762.28125 L 187.4375 762.28125 L 188.9375 760.78125 L 188.9375 759.28125 L 191.9375 759.28125 L 193.4375 756.28125 L 194.9375 756.28125 L 196.4375 754.78125 L 199.4375 753.28125 L 200.9375 753.28125 L 200.9375 754.78125 L 202.4375 754.78125 L 203.9375 753.28125 L 203.9375 754.78125 L 206.9375 754.78125 L 208.4375 753.28125 L 209.9375 753.28125 L 211.4375 751.78125 L 214.4375 748.78125 L 217.4375 747.28125 L 220.4375 745.78125 L 227.9375 739.78125 L 229.4375 738.28125 L 244.4375 720.28125 L 242.9375 720.28125 L 242.9375 718.78125 L 241.4375 718.78125 L 241.4375 717.28125 L 241.4375 715.78125 L 239.9375 717.28125 L 239.9375 715.78125 L 239.9375 714.28125 L 238.4375 712.78125 L 236.9375 712.78125 L 235.4375 712.78125 L 236.9375 711.28125 L 235.4375 711.28125 L 233.9375 711.28125 L 233.9375 712.78125 L 232.4375 714.28125 L 232.4375 715.78125 L 233.9375 717.28125 L 235.4375 717.28125 L 235.4375 718.78125 L 235.4375 720.28125 L 233.9375 718.78125 L 232.4375 720.28125 L 233.9375 720.28125 L 232.4375 721.78125 L 233.9375 721.78125 L 233.9375 723.28125 L 232.4375 721.78125 L 229.4375 721.78125 L 230.9375 723.28125 L 230.9375 724.78125 L 229.4375 721.78125 L 227.9375 720.28125 L 226.4375 720.28125 L 227.9375 721.78125 L 229.4375 723.28125 L 227.9375 723.28125 L 227.9375 721.78125 L 226.4375 721.78125 L 226.4375 720.28125 L 226.4375 718.78125 L 224.9375 717.28125 L 223.4375 715.78125 L 221.9375 715.78125 L 218.9375 715.78125 L 218.9375 717.28125 L 220.4375 717.28125 L 221.9375 717.28125 L 223.4375 717.28125 L 221.9375 718.78125 L 221.9375 720.28125 L 223.4375 718.78125 L 224.9375 720.28125 L 223.4375 720.28125 L 223.4375 721.78125 L 223.4375 723.28125 L 224.9375 723.28125 L 224.9375 724.78125 L 223.4375 724.78125 L 220.4375 718.78125 L 218.9375 718.78125 L 214.4375 715.78125 L 214.4375 714.28125 L 212.9375 714.28125 L 212.9375 715.78125 L 206.9375 714.28125 L 205.4375 712.78125 L 205.4375 711.28125 L 203.9375 709.78125 L 203.9375 708.28125 L 202.4375 706.78125 L 203.9375 705.28125 L 202.4375 705.28125 L 200.9375 703.78125 L 200.9375 702.28125 L 197.9375 702.28125 L 196.4375 702.28125 L 194.9375 700.78125 L 191.9375 700.78125 L 190.4375 703.78125 L 190.4375 705.28125 L 188.9375 705.28125 L 188.9375 708.28125 L 188.9375 709.78125 L 188.9375 711.28125 L 188.9375 712.78125 L 187.4375 714.28125 L 187.4375 712.78125 L 185.9375 714.28125 L 184.4375 714.28125 L 179.9375 715.78125 L 176.9375 717.28125 L 175.4375 718.78125 L 173.9375 718.78125 L 173.9375 720.28125 L 170.9375 720.28125 L 170.9375 721.78125 L 169.4375 723.28125 L 167.9375 723.28125 L 164.9375 723.28125 L 163.4375 723.28125 L 161.9375 721.78125 L 160.4375 721.78125 L 160.4375 723.28125 L 158.9375 721.78125 L 158.9375 723.28125 L 158.9375 724.78125 L 157.4375 721.78125 L 157.4375 720.28125 L 155.9375 720.28125 L 154.4375 720.28125 L 154.4375 718.78125 L 149.9375 718.78125 L 149.9375 723.28125 L 146.9375 721.78125 L 146.9375 720.28125 L 148.4375 718.78125 L 146.9375 718.78125 L 143.9375 718.78125 L 142.4375 718.78125 L 140.9375 718.78125 L 139.4375 718.78125 L 139.4375 717.28125 L 137.9375 715.78125 L 136.4375 714.28125 L 134.9375 714.28125 L 134.9375 712.78125 L 133.4375 711.28125 L 128.9375 711.28125 L 125.9375 709.78125 L 124.4375 709.78125 L 119.9375 708.28125 L 118.4375 708.28125 L 118.4375 706.78125 L 116.9375 706.78125 L 113.9375 705.28125 L 112.4375 705.28125 L 110.9375 703.78125 L 109.4375 702.28125 L 107.9375 702.28125 L 106.4375 700.78125 L 104.9375 700.78125 L 104.9375 699.28125 L 100.4375 699.28125 L 98.9375 699.28125 L 95.9375 699.28125 z M 232.4375 720.28125 L 230.9375 718.78125 L 229.4375 720.28125 L 232.4375 720.28125 z M 230.9375 718.78125 L 232.4375 718.78125 L 233.9375 718.78125 L 235.4375 718.78125 L 233.9375 717.28125 L 232.4375 717.28125 L 232.4375 715.78125 L 230.9375 715.78125 L 230.9375 714.28125 L 229.4375 714.28125 L 227.9375 714.28125 L 227.9375 715.78125 L 227.9375 717.28125 L 229.4375 718.78125 L 230.9375 718.78125 z M 233.9375 714.28125 L 235.4375 715.78125 L 233.9375 715.78125 L 233.9375 714.28125 z M 236.9375 714.28125 L 238.4375 714.28125 L 236.9375 715.78125 L 236.9375 714.28125 z M 226.4375 724.78125 L 227.9375 724.78125 L 227.9375 726.28125 L 226.4375 726.28125 L 226.4375 724.78125 z "
     id="path625"
     transform="scale(0.66666667,0.66666667)" />
  <path
     d="m 289.96708,126.18733 4,-4 1,-1 11,-10 1,0 3,-1 1,0 0,0 0,0 0,-1 0,1 1,1 -1,-1 -1,0 0,0 -2,1 -2,0 -9,9 -1,1 0,0 -1,0 -1,1 -4,4 0,0 z"
     style="fill:#b9b9b9;fill-opacity:1;fill-rule:evenodd;stroke:#b9b9b9;stroke-width:0.69999999999999996;stroke-linecap:butt;stroke-linejoin:bevel;stroke-miterlimit:10;stroke-opacity:1;stroke-dasharray:none"
     id="path651" />
  <path
     d="m 89.967095,437.18733 0,0 -1,-1 0,-1 0,0 1,0 1,1 0,1 -1,1 0,0 0,-1 z"
     style="fill:#b9b9b9;fill-opacity:1;fill-rule:evenodd;stroke:#b9b9b9;stroke-width:0.69999999999999996;stroke-linecap:butt;stroke-linejoin:bevel;stroke-miterlimit:10;stroke-opacity:1;stroke-dasharray:none"
     id="path659" />
  <path
     d="m 94.967095,414.18733 0,0 0,0 -1,1 0,2 0,1 0,0 1,1 1,-1 -1,-1 0,0 1,1 -1,1 0,0 -2,-1 0,1 0,1 0,0 0,0 -1,-1 0,0 0,0 -1,1 0,0 1,0 0,1 -1,0 0,-1 -1,1 0,0 0,1 0,2 -1,0 0,0 1,-2 0,-1 -1,-1 0,0 -1,0 0,0 0,0 0,0 1,0 1,-2 2,-1 0,-1 0,0 0,-1 0,0 0,0 0,1 0,0 0,0 1,0 0,0 0,0 0,0 1,0 0,-1 1,-1 0,0 z"
     style="fill:#b9b9b9;fill-opacity:1;fill-rule:evenodd;stroke:#b9b9b9;stroke-width:0.69999999999999996;stroke-linecap:butt;stroke-linejoin:bevel;stroke-miterlimit:10;stroke-opacity:1;stroke-dasharray:none"
     id="path661" />
  <path
     d="m 304.96708,192.18733 0,0 2,0 7,3 1,1 5,5 2,3 0,1 5,8 2,5 0,1 -1,0 -1,1 -2,1 -1,4 -1,2 1,0 0,0 -1,2 0,-2 0,0 1,-2 1,-4 1,-1 2,-1 1,0 0,-1 -2,-5 -7,-12 -5,-5 -1,-1 -6,-3 -1,2 0,0 -1,0 -1,0 -1,0 1,0 1,-1 1,-1 -1,0 0,0 -1,0 z"
     style="fill:#b9b9b9;fill-opacity:1;fill-rule:evenodd;stroke:#b9b9b9;stroke-width:0.69999999999999996;stroke-linecap:butt;stroke-linejoin:bevel;stroke-miterlimit:10;stroke-opacity:1;stroke-dasharray:none"
     id="path861" />
  <path
     d="m 441.96708,15.18733 2,0 0,0 0,1 0,0 -2,1 0,-2 z"
     style="fill:#b9b9b9;fill-opacity:1;fill-rule:evenodd;stroke:#b9b9b9;stroke-width:0.69999999999999996;stroke-linecap:butt;stroke-linejoin:bevel;stroke-miterlimit:10;stroke-opacity:1;stroke-dasharray:none"
     id="path869" />
  <path
     d="m 459.96708,6.1873306 0,1 0,0 1,1 1,1 1,0.9999994 -1,-0.9999994 -1,0 -2,0 -1,0 0,0 0,0.9999994 0,1 1,0 0,0 -1,2 -1,-1 -1,-2.9999994 -1,-1 0,-1 1,-2 1,0 1,0 1,0 1,1 0,0 0,0 z"
     style="fill:#b9b9b9;fill-opacity:1;fill-rule:evenodd;stroke:#b9b9b9;stroke-width:0.69999999999999996;stroke-linecap:butt;stroke-linejoin:bevel;stroke-miterlimit:10;stroke-opacity:1;stroke-dasharray:none"
     id="path871" />
  <path
     d="m 469.96708,7.1873306 2,0 2,0 2,1 0,1 0,-1 -2,0 -2,0 -1,0 0,0 -1,0 -1,1 0,0 0,-1 1,-1 0,0 z"
     style="fill:#b9b9b9;fill-opacity:1;fill-rule:evenodd;stroke:#b9b9b9;stroke-width:0.69999999999999996;stroke-linecap:butt;stroke-linejoin:bevel;stroke-miterlimit:10;stroke-opacity:1;stroke-dasharray:none"
     id="path873" />
  <path
     d="m 120.96709,396.18733 0,0 0,0 0,-1 1,0 2,1 -1,0 -2,0 0,0 z"
     style="fill:#b9b9b9;fill-opacity:1;fill-rule:evenodd;stroke:#b9b9b9;stroke-width:0.69999999999999996;stroke-linecap:butt;stroke-linejoin:bevel;stroke-miterlimit:10;stroke-opacity:1;stroke-dasharray:none"
     id="path907" />
  <path
     d="m 157.96708,418.18733 0,-1 -1,-1 -1,-1 0,1 -1,0 -2,-2 1,-1 0,0 -1,0 0,1 -2,0 0,-1 2,0 0,0 3,0 1,0 0,0 -1,0 0,0 -1,0 0,0 0,1 0,0 2,0 0,1 1,1 0,1 0,1 0,0 0,0 z"
     style="fill:#b9b9b9;fill-opacity:1;fill-rule:evenodd;stroke:#b9b9b9;stroke-width:0.69999999999999996;stroke-linecap:butt;stroke-linejoin:bevel;stroke-miterlimit:10;stroke-opacity:1;stroke-dasharray:none"
     id="path909" />
  <path
     d="m 129.96709,392.18733 1,0 1,-1 0,0 0,1 0,1 1,3 1.99999,2 0,0 0,0 -1,1 -0.99999,0 0,-1 -1,-1 0,-1 -1,-2 -1,-1 0,0 0,-1 z"
     style="fill:#b9b9b9;fill-opacity:1;fill-rule:evenodd;stroke:#b9b9b9;stroke-width:0.69999999999999996;stroke-linecap:butt;stroke-linejoin:bevel;stroke-miterlimit:10;stroke-opacity:1;stroke-dasharray:none"
     id="path911" />
  <path
     d="m 126.96709,394.18733 -1,1 -1,0 -1,0 0,-1 1,0 1,0 2,0 -1,0 z"
     style="fill:#b9b9b9;fill-opacity:1;fill-rule:evenodd;stroke:#b9b9b9;stroke-width:0.69999999999999996;stroke-linecap:butt;stroke-linejoin:bevel;stroke-miterlimit:10;stroke-opacity:1;stroke-dasharray:none"
     id="path913" />
  <path
     d="m 123.96709,418.18733 -1,1 -1,0 0,0 -1,0 0,0 -2,-1 -1,0 0,0 2,-1 0,-1 0,1 -2,1 -1,0 1,-2 -1,-1 0,-2 -1,0 0,-1 0,-1 -1,-2 -2,-1 -1,1 0,-1 -3,-1 0,0 0,0 0,-1 0,0 0,-1 -1,-1 -2,0 -0.99999,0 -1,1 0,1 1,0 0.99999,-1 1,1 -1,-1 -0.99999,1 -2,0 -1,2 -2.000005,1 0,0 0,0 0,0 -1,0 -1,0 -2,1 -1,1 0,2 0,0 1,0 0,1 -1,0 0,0 0,0 -1,-1 0,0 0,0 1,0 0,0 0,-2 0,0 -1,-1 -1,0 -1,0 0,-1 -1,-1 -1,-2 0,-2 0,-2 0,-1 1,-2 2,-2 2,-1 1,0 1,0 4.000005,-1 1,-1 2,0 1.99999,0 3,1 0,-1 0,0 0,-1 1,-1 0,-1 1,0 1,0 -1,1 1,0 -1,1 0,0 0,0 0,0 0,-1 0,0 -1,0 0,1 -1,2 1,0 1,0 1,0 1,0 0,0 0,0 3,0 2,-1 0,0 1,1 0,0 1,1 0,1 1,0 0,0 1,0 1,0 2,-1 1,1 3,0 0,0 0,1 0,0 0,-1 1,1 0,2 0,0 1,1 2,2 0.99999,2 0,2 1,0 2,0 1,0 2,1 0,0 3,2 1,0 0,0 0,1 1,0 2,-2 1,0 1,0 0,0 3,0 0,0 1,-1 1,0 0,2 0,1 1,0 0,0 -1,1 0,0 -1,0 1,-1 0,0 -1,-1 0,-1 -1,0 0,1 -1,-1 -3,1 -1,0 -1,1 -1,0 0,1 1,1 0,0 0,1 0,0 0,0 0,0 -1,1 1,0 0,-1 -1,1 0,1 -1,0 -1,1 -1,2 -1,0 -1,1 -1,-1 -2,1 -1,1 -2,0 0,1 -2.99999,0 -1,0 -2,0 -1,0 0,0 -2,-2 0,0 0,0 -1,-2 0,0 z"
     style="fill:#b9b9b9;fill-opacity:1;fill-rule:evenodd;stroke:#b9b9b9;stroke-width:0.69999999999999996;stroke-linecap:butt;stroke-linejoin:bevel;stroke-miterlimit:10;stroke-opacity:1;stroke-dasharray:none"
     id="path915" />
  <path
     d="m 113.96709,438.18733 0,-1 -1,0 1,0 0,0 0,1 0,0 0,0 z"
     style="fill:#b9b9b9;fill-opacity:1;fill-rule:evenodd;stroke:#b9b9b9;stroke-width:0.69999999999999996;stroke-linecap:butt;stroke-linejoin:bevel;stroke-miterlimit:10;stroke-opacity:1;stroke-dasharray:none"
     id="path929" />
  <path
     d="m 186.96708,405.18733 -1,1 0,0 1,0 0,0 -1,0 0,1 -1,-1 0,0 0,0 2,-1 z"
     style="fill:#b9b9b9;fill-opacity:1;fill-rule:evenodd;stroke:#b9b9b9;stroke-width:0.69999999999999996;stroke-linecap:butt;stroke-linejoin:bevel;stroke-miterlimit:10;stroke-opacity:1;stroke-dasharray:none"
     id="path949" />
</svg>
