<?xml version="1.0" encoding="UTF-8" standalone="no"?>
<!-- Created with Inkscape (http://www.inkscape.org/) -->

<svg
   version="1.0"
   width="370"
   height="370"
   id="svg882"
   sodipodi:docname="Logo.svg"
   inkscape:version="1.1.1 (3bf5ae0d25, 2021-09-20, custom)"
   inkscape:export-filename="/home/melis/concepts/dutch-skies/Assets/Logo2/Logo-310.png"
   inkscape:export-xdpi="80.43"
   inkscape:export-ydpi="80.43"
   xmlns:inkscape="http://www.inkscape.org/namespaces/inkscape"
   xmlns:sodipodi="http://sodipodi.sourceforge.net/DTD/sodipodi-0.dtd"
   xmlns="http://www.w3.org/2000/svg"
   xmlns:svg="http://www.w3.org/2000/svg">
  <sodipodi:namedview
     id="namedview884"
     pagecolor="#ffffff"
     bordercolor="#666666"
     borderopacity="1.0"
     inkscape:pageshadow="2"
     inkscape:pageopacity="0"
     inkscape:pagecheckerboard="0"
     showgrid="false"
     inkscape:snap-global="false"
     fit-margin-top="20"
     fit-margin-left="20"
     fit-margin-right="20"
     fit-margin-bottom="20"
     inkscape:zoom="1"
     inkscape:cx="330.5"
     inkscape:cy="264"
     inkscape:window-width="1920"
     inkscape:window-height="989"
     inkscape:window-x="0"
     inkscape:window-y="33"
     inkscape:window-maximized="1"
     inkscape:current-layer="svg882">
    <inkscape:grid
       type="xygrid"
       id="grid1205"
       originx="-41.681652"
       originy="-34.671487" />
  </sodipodi:namedview>
  <defs
     id="defs4">
    <inkscape:perspective
       sodipodi:type="inkscape:persp3d"
       inkscape:vp_x="0 : 432 : 1"
       inkscape:vp_y="0 : 1000 : 0"
       inkscape:vp_z="801 : 432 : 1"
       inkscape:persp3d-origin="400.5 : 278 : 1"
       id="perspective481" />
    <inkscape:perspective
       id="perspective4069"
       inkscape:persp3d-origin="0.5 : -29.666667 : 1"
       inkscape:vp_z="1 : -29.5 : 1"
       inkscape:vp_y="0 : 1000 : 0"
       inkscape:vp_x="0 : -29.5 : 1"
       sodipodi:type="inkscape:persp3d" />
    <inkscape:perspective
       id="perspective4069-1"
       inkscape:persp3d-origin="0.5 : -29.666667 : 1"
       inkscape:vp_z="1 : -29.5 : 1"
       inkscape:vp_y="0 : 1000 : 0"
       inkscape:vp_x="0 : -29.5 : 1"
       sodipodi:type="inkscape:persp3d" />
    <inkscape:perspective
       id="perspective4069-7"
       inkscape:persp3d-origin="0.5 : -29.666667 : 1"
       inkscape:vp_z="1 : -29.5 : 1"
       inkscape:vp_y="0 : 1000 : 0"
       inkscape:vp_x="0 : -29.5 : 1"
       sodipodi:type="inkscape:persp3d" />
    <inkscape:perspective
       id="perspective4069-2"
       inkscape:persp3d-origin="0.5 : -29.666667 : 1"
       inkscape:vp_z="1 : -29.5 : 1"
       inkscape:vp_y="0 : 1000 : 0"
       inkscape:vp_x="0 : -29.5 : 1"
       sodipodi:type="inkscape:persp3d" />
    <inkscape:perspective
       id="perspective4069-5"
       inkscape:persp3d-origin="0.5 : -29.666667 : 1"
       inkscape:vp_z="1 : -29.5 : 1"
       inkscape:vp_y="0 : 1000 : 0"
       inkscape:vp_x="0 : -29.5 : 1"
       sodipodi:type="inkscape:persp3d" />
    <inkscape:perspective
       id="perspective4069-3"
       inkscape:persp3d-origin="0.5 : -29.666667 : 1"
       inkscape:vp_z="1 : -29.5 : 1"
       inkscape:vp_y="0 : 1000 : 0"
       inkscape:vp_x="0 : -29.5 : 1"
       sodipodi:type="inkscape:persp3d" />
    <inkscape:perspective
       id="perspective4069-75"
       inkscape:persp3d-origin="0.5 : -29.666667 : 1"
       inkscape:vp_z="1 : -29.5 : 1"
       inkscape:vp_y="0 : 1000 : 0"
       inkscape:vp_x="0 : -29.5 : 1"
       sodipodi:type="inkscape:persp3d" />
    <inkscape:perspective
       id="perspective4069-6"
       inkscape:persp3d-origin="0.5 : -29.666667 : 1"
       inkscape:vp_z="1 : -29.5 : 1"
       inkscape:vp_y="0 : 1000 : 0"
       inkscape:vp_x="0 : -29.5 : 1"
       sodipodi:type="inkscape:persp3d" />
    <inkscape:perspective
       id="perspective4069-70"
       inkscape:persp3d-origin="0.5 : -29.666667 : 1"
       inkscape:vp_z="1 : -29.5 : 1"
       inkscape:vp_y="0 : 1000 : 0"
       inkscape:vp_x="0 : -29.5 : 1"
       sodipodi:type="inkscape:persp3d" />
    <inkscape:perspective
       id="perspective4069-8"
       inkscape:persp3d-origin="0.5 : -29.666667 : 1"
       inkscape:vp_z="1 : -29.5 : 1"
       inkscape:vp_y="0 : 1000 : 0"
       inkscape:vp_x="0 : -29.5 : 1"
       sodipodi:type="inkscape:persp3d" />
    <inkscape:perspective
       id="perspective4069-0"
       inkscape:persp3d-origin="0.5 : -29.666667 : 1"
       inkscape:vp_z="1 : -29.5 : 1"
       inkscape:vp_y="0 : 1000 : 0"
       inkscape:vp_x="0 : -29.5 : 1"
       sodipodi:type="inkscape:persp3d" />
    <inkscape:perspective
       id="perspective4069-72"
       inkscape:persp3d-origin="0.5 : -29.666667 : 1"
       inkscape:vp_z="1 : -29.5 : 1"
       inkscape:vp_y="0 : 1000 : 0"
       inkscape:vp_x="0 : -29.5 : 1"
       sodipodi:type="inkscape:persp3d" />
    <inkscape:perspective
       id="perspective4069-16"
       inkscape:persp3d-origin="0.5 : -29.666667 : 1"
       inkscape:vp_z="1 : -29.5 : 1"
       inkscape:vp_y="0 : 1000 : 0"
       inkscape:vp_x="0 : -29.5 : 1"
       sodipodi:type="inkscape:persp3d" />
    <inkscape:perspective
       id="perspective4199"
       inkscape:persp3d-origin="0.5 : -29.666667 : 1"
       inkscape:vp_z="1 : -29.5 : 1"
       inkscape:vp_y="0 : 1000 : 0"
       inkscape:vp_x="0 : -29.5 : 1"
       sodipodi:type="inkscape:persp3d" />
    <inkscape:perspective
       id="perspective4221"
       inkscape:persp3d-origin="0.5 : -29.666667 : 1"
       inkscape:vp_z="1 : -29.5 : 1"
       inkscape:vp_y="0 : 1000 : 0"
       inkscape:vp_x="0 : -29.5 : 1"
       sodipodi:type="inkscape:persp3d" />
    <inkscape:perspective
       id="perspective4243"
       inkscape:persp3d-origin="0.5 : -29.666667 : 1"
       inkscape:vp_z="1 : -29.5 : 1"
       inkscape:vp_y="0 : 1000 : 0"
       inkscape:vp_x="0 : -29.5 : 1"
       sodipodi:type="inkscape:persp3d" />
    <inkscape:perspective
       id="perspective4243-6"
       inkscape:persp3d-origin="0.5 : -29.666667 : 1"
       inkscape:vp_z="1 : -29.5 : 1"
       inkscape:vp_y="0 : 1000 : 0"
       inkscape:vp_x="0 : -29.5 : 1"
       sodipodi:type="inkscape:persp3d" />
    <inkscape:perspective
       id="perspective4274"
       inkscape:persp3d-origin="0.5 : -29.666667 : 1"
       inkscape:vp_z="1 : -29.5 : 1"
       inkscape:vp_y="0 : 1000 : 0"
       inkscape:vp_x="0 : -29.5 : 1"
       sodipodi:type="inkscape:persp3d" />
    <inkscape:perspective
       id="perspective4274-2"
       inkscape:persp3d-origin="0.5 : -29.666667 : 1"
       inkscape:vp_z="1 : -29.5 : 1"
       inkscape:vp_y="0 : 1000 : 0"
       inkscape:vp_x="0 : -29.5 : 1"
       sodipodi:type="inkscape:persp3d" />
    <inkscape:perspective
       id="perspective4309"
       inkscape:persp3d-origin="0.5 : -29.666667 : 1"
       inkscape:vp_z="1 : -29.5 : 1"
       inkscape:vp_y="0 : 1000 : 0"
       inkscape:vp_x="0 : -29.5 : 1"
       sodipodi:type="inkscape:persp3d" />
    <inkscape:perspective
       id="perspective4334"
       inkscape:persp3d-origin="0.5 : -29.666667 : 1"
       inkscape:vp_z="1 : -29.5 : 1"
       inkscape:vp_y="0 : 1000 : 0"
       inkscape:vp_x="0 : -29.5 : 1"
       sodipodi:type="inkscape:persp3d" />
    <inkscape:perspective
       id="perspective3344"
       inkscape:persp3d-origin="0.5 : -29.666667 : 1"
       inkscape:vp_z="1 : -29.5 : 1"
       inkscape:vp_y="0 : 1000 : 0"
       inkscape:vp_x="0 : -29.5 : 1"
       sodipodi:type="inkscape:persp3d" />
    <inkscape:perspective
       id="perspective3344-7"
       inkscape:persp3d-origin="0.5 : -29.666667 : 1"
       inkscape:vp_z="1 : -29.5 : 1"
       inkscape:vp_y="0 : 1000 : 0"
       inkscape:vp_x="0 : -29.5 : 1"
       sodipodi:type="inkscape:persp3d" />
    <inkscape:perspective
       id="perspective3344-3"
       inkscape:persp3d-origin="0.5 : -29.666667 : 1"
       inkscape:vp_z="1 : -29.5 : 1"
       inkscape:vp_y="0 : 1000 : 0"
       inkscape:vp_x="0 : -29.5 : 1"
       sodipodi:type="inkscape:persp3d" />
    <inkscape:perspective
       id="perspective3406"
       inkscape:persp3d-origin="0.5 : -29.666667 : 1"
       inkscape:vp_z="1 : -29.5 : 1"
       inkscape:vp_y="0 : 1000 : 0"
       inkscape:vp_x="0 : -29.5 : 1"
       sodipodi:type="inkscape:persp3d" />
    <inkscape:perspective
       id="perspective3406-0"
       inkscape:persp3d-origin="0.5 : -29.666667 : 1"
       inkscape:vp_z="1 : -29.5 : 1"
       inkscape:vp_y="0 : 1000 : 0"
       inkscape:vp_x="0 : -29.5 : 1"
       sodipodi:type="inkscape:persp3d" />
    <inkscape:perspective
       id="perspective3406-9"
       inkscape:persp3d-origin="0.5 : -29.666667 : 1"
       inkscape:vp_z="1 : -29.5 : 1"
       inkscape:vp_y="0 : 1000 : 0"
       inkscape:vp_x="0 : -29.5 : 1"
       sodipodi:type="inkscape:persp3d" />
    <inkscape:perspective
       id="perspective3446"
       inkscape:persp3d-origin="0.5 : -29.666667 : 1"
       inkscape:vp_z="1 : -29.5 : 1"
       inkscape:vp_y="0 : 1000 : 0"
       inkscape:vp_x="0 : -29.5 : 1"
       sodipodi:type="inkscape:persp3d" />
    <inkscape:perspective
       id="perspective3446-2"
       inkscape:persp3d-origin="0.5 : -29.666667 : 1"
       inkscape:vp_z="1 : -29.5 : 1"
       inkscape:vp_y="0 : 1000 : 0"
       inkscape:vp_x="0 : -29.5 : 1"
       sodipodi:type="inkscape:persp3d" />
    <inkscape:perspective
       id="perspective3446-4"
       inkscape:persp3d-origin="0.5 : -29.666667 : 1"
       inkscape:vp_z="1 : -29.5 : 1"
       inkscape:vp_y="0 : 1000 : 0"
       inkscape:vp_x="0 : -29.5 : 1"
       sodipodi:type="inkscape:persp3d" />
  </defs>
  <g
     style="font-style:normal;font-weight:normal;font-family:Dialog;fill:#000000;fill-opacity:1;stroke:#000000;stroke-width:1;stroke-linecap:square;stroke-linejoin:miter;stroke-miterlimit:10;stroke-dasharray:none;stroke-dashoffset:0pt;stroke-opacity:1"
     id="g1203"
     transform="matrix(0.52741327,0,0,0.52741327,12.425687,17.448728)">
    <path
       style="fill:#b9b9b9;fill-opacity:1;fill-rule:evenodd;stroke:#b9b9b9;stroke-width:1.05;stroke-linecap:butt;stroke-linejoin:bevel;stroke-miterlimit:10;stroke-dasharray:none;stroke-opacity:1"
       d="m 739.4375,34.78125 -3,1.5 -12,1.5 -1.5,1.5 -4.5,1.5 h -1.5 l -1.5,1.5 h -3 l -3,3 h -1.5 -1.5 -1.5 l -3,1.5 -3,1.5 -1.5,-1.5 -1.5,1.5 h -7.5 l -4.5,1.5 -6,1.5 h -3 l -3,1.5 h -3 l -4.5,1.5 -4.5,1.5 -1.5,1.5 v 1.5 l -3,1.5 -1.5,-1.5 -1.5,-1.5 -7.5,-4.5 h -1.5 l -6,3 v -1.5 h -1.5 v 1.5 h -1.5 v -1.5 l -1.5,1.5 1.5,1.5 h 1.5 l 1.5,1.5 h 1.5 l 1.5,1.5 h 1.5 v 1.5 h -1.5 -1.5 -1.5 v -1.5 l -3,-1.5 v -1.5 h -3 l -1.5,3 h 1.5 l 1.5,1.5 h 1.5 v 1.5 l -1.5,1.5 -1.5,-1.5 v 1.5 l 1.5,1.5 h 1.5 1.5 1.5 1.5 1.5 v 1.5 h -3 -1.5 l -3,-1.5 v 1.5 l -1.5,-1.5 v 1.5 l 1.5,1.5 h 1.5 1.5 1.5 1.5 1.5 l 1.5,-1.5 v 1.5 1.5 h -1.5 l 1.5,1.5 1.5,-1.5 h 1.5 v 1.5 l -1.5,1.5 h -3 v 1.5 l 1.5,1.5 1.5,-1.5 h 1.5 l -1.5,1.5 h -1.5 -1.5 l 1.5,1.5 v 1.5 h -1.5 v -1.5 l -1.5,-1.5 v -1.5 h -1.5 l 1.5,-1.5 h -1.5 l -1.5,-1.5 v 1.5 l -1.5,3 v -1.5 -1.5 l -3,-1.5 -1.5,1.5 v 1.5 l 3,3 v 1.5 h -1.5 v -1.5 l -1.5,1.5 v -1.5 l -1.5,-1.5 v -1.5 -1.5 -3 l -1.5,-1.5 v -1.5 l 1.5,-1.5 h -1.5 v -1.5 -1.5 l -1.5,-1.5 1.5,-3 v -1.5 -1.5 l 3,-1.5 -7.5,3 h -1.5 l -3,-1.5 h -4.5 v 1.5 h -1.5 -1.5 l -1.5,-1.5 -6,1.5 h -3 -1.5 l -1.5,1.5 -6,1.5 h -1.5 -1.5 l -6,3 h -3 -1.5 -1.5 -1.5 v -1.5 l -1.5,-1.5 v 3 l -3,1.5 -3,1.5 -1.5,1.5 -3,1.5 -1.5,1.5 -3,1.5 h -3 l -4.5,3 -6,3 -3,1.5 -7.5,4.5 h -4.5 l -1.5,1.5 -3,1.5 h -1.5 l -1.5,1.5 -3,1.5 -3,1.5 -1.5,1.5 -3,3 -1.5,3 -1.5,1.5 v 1.5 h -1.5 v 1.5 l -3,1.5 -1.5,1.5 h -1.5 l -3,3 -1.5,1.5 h -1.5 l -1.5,1.5 -1.5,3 h -1.5 l -1.5,1.5 -1.5,3 -1.5,4.5 -1.5,1.5 v 1.5 h 1.5 l -1.5,1.5 -1.5,1.5 -1.5,1.5 v 1.5 h 1.5 v 3 l -1.5,3 v 4.5 3 1.5 l -1.5,1.5 v 1.5 l -3,1.5 h -1.5 l 1.5,1.5 -1.5,1.5 v 1.5 l -1.5,1.5 h 1.5 l 1.5,1.5 1.5,3 v 1.5 1.5 1.5 l 1.5,3 h -1.5 l 1.5,1.5 h -1.5 v -1.5 -1.5 -1.5 h -1.5 v -1.5 -1.5 h -1.5 -1.5 v -1.5 h -1.5 l 1.5,3 v 1.5 l 1.5,1.5 1.5,1.5 h -1.5 v 1.5 1.5 h 1.5 1.5 v 3 1.5 l 1.5,-1.5 v 1.5 h -1.5 v 1.5 h 1.5 l 1.5,1.5 v 1.5 1.5 1.5 l -1.5,1.5 v 3 l 1.5,4.5 v 3 l 1.5,1.5 v 0.5 l 3,-2 -3,3 v -1 l -1.5,1 v 1.5 3 h -1.5 l -1.5,1.5 1.5,1.5 1.5,3 v 1.5 3 1.5 l -1.5,1.5 h -1.5 -1.5 l -3,3 -1.5,1.5 -1.5,1.5 1.5,1.5 v 1.5 1.5 h 3 v 1.5 h 1.5 l 3,3 3,3 h 1.5 1.5 1.5 3 v -1.5 l 4.5,1.5 h 3 l 1.5,1.5 6,3 h 3 v 1.5 h 3 l 1.5,-1.5 h 1.5 v -1.5 l 1.5,-1.5 v -1.5 l 3,-1.5 3,1.5 1.5,-1.5 3,-1.5 h 1.5 l 1.5,1.5 v 3 h 1.5 1.5 3 1.5 1.5 v 1.5 h 1.5 l 1.5,-1.5 v 1.5 1.5 h -1.5 l -7.5,1.5 h -1.5 v 1.5 l -4.5,7.5 -7.5,12 v 1.5 l -1.5,4.5 v 15 7.5 3 1.5 1.5 h 1.5 l 1.5,1.5 1.5,1.5 3,4.5 4.5,6 1.5,1.5 h 1.5 15 1.5 4.5 12 1.5 l -1.5,1.5 v 3 1.5 1.5 l 1.5,1.5 v 1.5 l -6,-1.5 1.5,1.5 h 1.5 1.5 v 1.5 l 1.5,1.5 v 1.5 1.5 l 1.5,1.5 1.5,1.5 v 1.5 1.5 l 1.5,1.5 v 3 3 1.5 l -1.5,4.5 -1.5,3 v 1.5 1.5 l -1.5,3 v 1.5 1.5 l -1.5,-1.5 v 3 h -1.5 v -1.5 -1.5 l 4.5,-9 1.5,-3 v -1.5 -3 -7.5 l -1.5,-3 -7.5,-7.5 v -1.5 h -1.5 -7.5 -1.5 l -6,-1.5 -13.5,-4.5 h -1.5 l -1.5,-3 h -1.5 l -1.5,1.5 -10.5,3 h -1.5 l -1.5,1.5 -12,10.5 v 1.5 h -1.5 -6 -1.5 v 1.5 l -1.5,4.5 v -1.5 l -1.5,3 v 1.5 1.5 1.5 1.5 l -3,1.5 h -1.5 l -1.5,1.5 -1.5,3 h -1.5 -1.5 v 1.5 l -25.5,16.5 -4.5,3 v 1.5 h -1.5 v 1.5 h -1.5 -0.90625 l -9.59375,6 -1.5,1.5 -6,4.5 h -1.5 v 1.5 l 3,3 v 3 4.5 l -1.5,1.5 h 1.5 l 1.5,3 h -1.5 l 1.5,1.5 1.5,-1.5 h 1.5 l 6,-1.5 h 1.5 1.5 l 1.5,1.5 h 1.5 1.5 3 l 4.5,1.5 3,3 4.5,1.5 1.5,1.5 v 1.5 h 1.5 l 13.5,12 1.5,3 h 1.5 l 3,1.5 3,-1.5 7.5,-3 h 1.5 3 l 1.5,-1.5 4.5,-1.5 h 1.5 l 1.5,-6 1.5,-1.5 v -4.5 h 1.5 v -3 -1.5 -1.5 -1.5 h -1.5 v -1.5 l -1.5,-3 1.5,-1.5 4.5,-4.5 3,1.5 4.5,-1.5 h 1.5 l 1.5,-1.5 h -1.5 l 1.5,-1.5 1.5,-1.5 1.5,-1.5 4.5,-4.5 12,-6 h 1.5 1.5 l 1.5,1.5 h 1.5 l 6,-4.5 1.5,-3 3,-3 1.5,-3 1.5,-1.5 v 1.5 h 1.5 v 1.5 h -1.5 l 1.5,1.5 -1.5,1.5 -1.5,1.5 -4.5,4.5 -3,3 -3,1.5 v 1.5 h -1.5 l -1.5,1.5 h -1.5 l -1.5,1.5 v 1.5 h -1.5 v 1.5 h -1.5 -1.5 l -3,1.5 -1.5,1.5 h -1.5 l -1.5,1.5 -3,1.5 h -1.5 l -1.5,1.5 -1.5,1.5 v 1.5 h -1.5 -1.5 v 1.5 1.5 h -1.5 v 1.5 h -1.5 v 1.5 h -1.5 v 1.5 l -3,1.5 -1.5,1.5 -1.5,1.5 v 1.5 l -1.5,3 v 3 l -1.5,3 v 1.5 l -1.5,3 -1.5,1.5 h -6 -1.5 l -3,3 -1.5,-1.5 -1.5,1.5 -4.5,1.5 h -3 l -1.5,1.5 h -3 l -1.5,-1.5 -1.5,-1.5 -1.5,-1.5 h -1.5 v -1.5 l -1.5,-1.5 h -1.5 -1.5 -1.5 l -1.5,-1.5 h -3 l -1.5,-1.5 -3,-3 v -1.5 l 1.5,-1.5 h -1.5 -1.5 l -1.5,-1.5 h -1.5 l -1.5,-1.5 h -1.5 v -1.5 l -1.5,-1.5 -1.5,1.5 h -1.5 -1.5 -6 l -1.5,1.5 h -1.5 l -1.5,1.5 h -1.5 v -1.5 h -1.5 l -1.5,-1.5 -1.5,-1.5 -1.5,-3 h -1.5 v -1.5 h -3 -1.5 l -1.5,-3 h -4.5 -1.5 -1.5 l -3,1.5 -1.5,-1.5 v 1.5 h -1.5 v -1.5 h 1.5 v -1.5 l -1.5,-1.5 h -1.5 l -1.5,1.5 h -1.5 -1.5 v -1.5 h 1.5 v -1.5 -1.5 l -3,-1.5 h -1.5 v 1.5 h -1.5 l -1.5,-1.5 h -1.5 v -1.5 h 1.5 1.5 l 1.5,-1.5 -4.5,-3 v -1.5 l 3,1.5 1.5,1.5 h 1.5 l 1.5,-1.5 v 1.5 l 1.5,1.5 1.5,-1.5 v -1.5 -1.5 h 1.5 l 1.5,-1.5 v -3 l 1.5,-1.5 1.5,-1.5 1.5,-1.5 h 1.5 1.5 v -1.5 l 1.5,-1.5 v -1.5 l 3,-3 h -1.5 -1.5 l -1.5,-1.5 v 1.5 l -3,-1.5 v -1.5 -1.5 -1.5 l 1.5,-1.5 v -1.5 h -1.5 l -1.5,1.5 -1.5,-1.5 3,-1.5 h 3 v -1.5 l -1.5,-1.5 v -1.5 -1.5 l 1.5,-1.5 1.5,1.5 v -1.5 l 1.5,-1.5 1.5,-3 h -1.5 v -3 h -1.5 v -1.5 l -1.5,-1.5 v -1.5 l -1.5,-3 v -1.5 l -3,-4.5 v -1.5 l -1.5,-1.5 v -3 l -1.5,-3 v -1.5 l -1.5,-1.5 1.5,-1.5 -1.5,-1.5 v -1.5 -1.5 -1.5 -3 -1.5 h 1.5 v -1.5 h 1.5 l 1.5,-1.5 h 1.5 1.5 v 1.5 l 1.5,1.5 v -1.5 l 1.5,-1.5 h 1.5 1.5 1.5 l 1.5,1.5 1.5,1.5 h 1.5 l 1.5,1.5 v 1.5 h 3 1.5 1.5 l 1.5,-1.5 3,-3 h 1.5 3 v -1.5 l 1.5,-1.5 h 1.5 v -1.5 l 3,-1.5 v -1.5 l 1.5,-1.5 v -3 -1.5 l 1.5,-3 h 1.5 1.5 1.5 l 1.5,-1.5 h 1.5 l -1.5,-1.5 h 1.5 l 1.5,-1.5 1.5,-1.5 -1.5,-1.5 -1.5,-1.5 v -1.5 -1.5 -1.5 -1.5 -1.5 -1.5 h -1.5 l -1.5,-1.5 -3,-1.5 h -4.5 -1.5 l -1.5,-1.5 h -3 -1.5 l -1.5,3 -1.5,1.5 v 1.5 l -1.5,-1.5 h -1.5 -1.5 -1.5 l -3,-3 -1.5,-1.5 -1.5,-1.5 1.5,-3 h -1.5 l -1.5,-1.5 h -1.5 l 3,-22.5 -3,-4.5 -4.5,-9 v -1.5 l -1.5,-1.5 -4.5,-9 h -1.5 -1.5 v 3 l -3,3 h -1.5 l -3,1.5 h -1.5 l -1.5,3 h -1.5 -1.5 -4.5 -1.5 v 1.5 h -3 l -3,-1.5 -4.5,1.5 -1.5,-1.5 -4.5,-3 h -1.5 l -4.5,-3 -1.5,-1.5 -1.5,-1.5 -1.5,-3 v -3 -3 l 1.5,-3 v -1.5 h -1.5 v 1.5 h -1.5 -1.5 v -1.5 -1.5 h -3 -3 -1.5 -1.5 l -3,4.5 v 1.5 1.5 3 l -1.5,4.5 v 4.5 6 l -3,9 -1.5,9 -3,9 v 3 h -1.5 v 3 l -3,6 v 3 l -3,9 v 1.5 1.5 1.5 1.5 4.5 l -1.5,6 v 3 3 l -1.5,6 v 3 1.5 3 l -1.5,1.5 v 1.5 l -1.5,10.5 -1.5,13.5 -1.5,7.5 -1.5,3 -1.5,3 -1.5,3 -1.5,4.5 3,-1.5 h 1.5 l 3,-1.5 1.5,1.5 h -1.5 v 1.5 h -3 l -1.5,1.5 h 3 v 1.5 l -3,-1.5 h -1.5 v 1.5 l -3,-1.5 v 3 l 1.5,3 -1.5,1.5 v 3 l -1.5,3 -1.5,6 -1.5,4.5 -3,7.5 -6,12 -9,19.5 -3,4.5 -1.5,3 -4.5,7.5 -1.5,1.5 v 1.5 l -3,4.5 -1.5,3 -4.5,6 -9,12 -4.5,3 v 1.5 l -3,3 h -1.5 v 1.5 1.5 h 1.5 l -1.5,1.5 v -1.5 h -1.5 l -1.5,1.5 -1.5,3 -1.5,1.5 -4.5,4.5 -3,3 -4.5,6 -1.5,1.5 -3,3 -1.5,1.5 v 1.5 l -3,4.5 -3,1.5 -3,3 h -1.5 l -1.5,-1.5 -7.5,-1.5 -1.5,1.5 h -1.5 -1.5 l -1.5,1.5 v 1.5 l -1.5,1.5 -1.5,3 1.5,1.5 1.5,1.5 v 1.5 l -3,3 -1.5,3 -3,4.5 h 1.5 1.5 l 1.5,1.5 1.5,-1.5 6,-1.5 h 1.5 l 1.5,3 h -1.5 v 1.5 l -3,3 v 1.5 l -1.5,1.5 v 1.5 l 1.5,1.5 6,9 v 1.5 1.5 l -1.5,1.5 3,-1.5 1.5,1.5 1.5,1.5 1.5,1.5 v 1.5 h 1.5 1.5 1.5 1.5 l -1.5,1.5 1.5,1.5 h 1.5 v -1.5 h 1.5 1.5 1.5 l 1.5,1.5 3,4.5 h 1.5 1.5 1.5 v 1.5 h 3 l 1.5,3 1.5,1.5 h 1.5 1.5 l -1.5,1.5 h -1.5 l 1.5,3 1.5,1.5 4.5,1.5 v 1.5 h 3 l 3,1.5 h 3 v 1.5 l 6,1.5 3,3 h 1.5 l 3,1.5 4.5,3 h 1.5 l 1.5,1.5 h 3 v 1.5 h 6 1.5 l 3,1.5 h 1.5 1.5 l 1.5,1.5 h 1.5 l 1.5,1.5 h 1.5 l 3,-1.5 h 1.5 l 4.5,-1.5 h 1.5 l 1.5,-1.5 h 3 l 1.5,-3 1.5,1.5 h 1.5 l 3,-1.5 v 1.5 1.5 l -3,1.5 -1.5,1.5 h -1.5 l -1.5,1.5 -1.5,1.5 -12,3 h -1.5 -1.5 l -4.5,1.5 h -3 l -4.5,-1.5 -1.5,-1.5 h -1.5 l -1.5,-1.5 h -1.5 -3 l -1.5,1.5 -3,1.5 -1.5,1.5 v 1.5 l -1.5,3 -1.5,1.5 -1.5,1.5 -1.5,1.5 -3,1.5 h -1.5 l -1.5,1.5 h -1.5 v -1.5 h -1.5 l -1.5,1.5 h -3 -1.5 l -1.5,1.5 h -1.5 -1.5 l -1.5,3 h -1.5 v -1.5 h -1.5 -1.5 -1.5 l -3,-1.5 h -3 -1.5 -1.5 l -3,-1.5 -4.5,-3 h -1.5 l -4.5,-1.5 v 1.5 l -3,3 h -1.5 l 1.5,3 h 1.5 l 1.5,3 1.5,3 h 3 3 1.5 1.5 v -1.5 h 1.5 v 1.5 1.5 l -1.5,1.5 h -1.5 -1.5 -1.5 -1.5 -1.5 l -1.5,1.5 h -1.5 l -3,-3 -6,-1.5 h -1.5 l -3,1.5 -1.5,1.5 h -1.5 l -3,1.5 -1.5,1.5 -1.5,-1.5 -3,1.5 -1.5,1.5 v 3 h 1.5 v 1.5 h 1.5 1.5 l 1.5,1.5 1.5,1.5 h 1.5 v 1.5 1.5 l 1.5,1.5 h 1.5 l 1.5,1.5 1.5,1.5 v 3 l 1.5,1.5 h 1.5 v 1.5 h 1.5 1.5 6 1.5 1.5 l 1.5,1.5 h 1.5 v -1.5 l 3,1.5 3,1.5 -1.5,1.5 v 1.5 1.5 h 1.5 l 6,3 1.5,1.5 v 9 1.5 l 1.5,6 h -1.5 -1.5 -1.5 l -1.5,-1.5 h -1.5 -1.5 -1.5 l -1.5,1.5 h -1.5 l -1.5,1.5 h -1.5 -1.5 -1.5 v -1.5 h -1.5 l -4.5,-3 h -1.5 l -1.5,-4.5 h -1.5 l -3,-4.5 v -1.5 l -1.5,-1.5 1.5,-1.5 -1.5,-1.5 v -1.5 -1.5 h -1.5 l -1.5,-1.5 -3,-3 -1.5,-1.5 h -1.5 -1.5 l -1.5,-1.5 h -1.5 l -3,-1.5 h -1.5 l -1.5,-1.5 -1.5,1.5 h -1.5 v 1.5 l -3,-4.5 h 1.5 l -1.5,-1.5 v -1.5 h -1.5 -1.5 -1.5 l -1.5,1.5 h -1.5 -1.5 -3 -1.5 -1.5 -1.5 v -1.5 l -1.5,-1.5 h -3 l -3,1.5 h -1.5 l -1.5,1.5 -4.5,-1.5 h -1.5 l -1.5,-1.5 -1.5,1.5 -3,1.5 v 1.5 l -1.5,1.5 v 1.5 l -1.5,1.5 h -1.5 l -1.5,1.5 h 1.5 1.5 l -3,1.5 v -1.5 l -3,-3 -1.5,-1.5 v -1.5 l -1.5,-4.5 v -1.5 h -1.5 l -1.5,-1.5 -3,-1.5 -1.5,-1.5 -1.5,-1.5 v -1.5 -3 l 1.5,-1.5 h -1.5 -1.5 l -1.5,-1.5 h -4.5 -1.5 -1.5 -3 v 1.5 h -1.5 -1.5 l -1.5,1.5 -3,1.5 -1.5,1.5 -3,1.5 h -1.5 l -1.5,1.5 -1.5,1.5 -3,1.5 -1.5,1.5 h -1.5 l -1.5,1.5 -1.5,1.5 v 1.5 1.5 1.5 l 1.5,3 h 1.5 l 1.5,1.5 1.5,1.5 3,1.5 v 1.5 h 1.5 l 1.5,1.5 1.5,1.5 v 1.5 l 1.5,1.5 v 1.5 l 1.5,1.5 v 1.5 l 1.5,1.5 1.5,1.5 3,1.5 v 1.5 h 1.5 l 1.5,1.5 v 1.5 h 1.5 3 1.5 v -1.5 -3 h 1.5 v 3 l 1.5,1.5 h 1.5 3 l 1.5,-1.5 v -1.5 h 1.5 3 1.5 l -3,-1.5 1.5,-1.5 3,-1.5 h 1.5 v 1.5 l 4.5,-3 v -1.5 -1.5 l 1.5,1.5 v 1.5 h 1.5 l -1.5,1.5 h -1.5 l -3,1.5 3,1.5 h 1.5 1.5 l -1.5,1.5 1.5,1.5 v 1.5 l -1.5,-1.5 -1.5,1.5 h -1.5 l 1.5,-3 -3,-1.5 -1.5,-1.5 -1.5,3 1.5,1.5 4.5,3 1.5,1.5 v 1.5 h 1.5 v 3 1.5 h 1.5 l 1.5,1.5 h 1.5 v -1.5 h 1.5 l 3,1.5 h 1.5 v 1.5 l 3,1.5 v 1.5 h 1.5 l 3,3 h 1.5 3 l 3,-1.5 h 1.5 l 1.5,-1.5 h 3 1.5 l 1.5,1.5 1.5,-1.5 1.5,-6 h 1.5 v -1.5 -1.5 h 1.5 v -3 -1.5 -1.5 -1.5 -1.5 l 3,1.5 3,-1.5 h 1.5 l 3,-3 1.5,1.5 1.5,1.5 1.5,1.5 v 1.5 h 1.5 v 1.5 h 1.5 1.5 l 1.5,1.5 1.5,1.5 h 3 v 1.5 3 l 3,1.5 h 1.5 l 1.5,1.5 h 1.5 l 3,1.5 3,1.5 h 3 l 1.5,1.5 h 3 l 4.5,-1.5 3,-1.5 h 1.5 1.5 v 1.5 h 1.5 1.5 l 3,1.5 1.5,4.5 v 3 h 4.5 l 3,-1.5 h 10.5 v 1.5 l 1.5,1.5 v 4.5 l 1.5,-1.5 4.5,1.5 h 1.5 1.5 1.5 1.5 l 1.5,-1.5 3,-1.5 h 1.5 v -1.5 -1.5 l -7.5,-10.5 -1.5,-4.5 1.5,-1.5 h 1.5 v -1.5 -1.5 -1.5 -1.5 h -1.5 l -1.5,-1.5 1.5,-1.5 10.5,-4.5 h 3 l 1.5,-1.5 1.5,-1.5 h 1.5 1.5 l 10.5,-1.5 1.5,3 -3,7.5 1.5,9 7.5,-3 h 1.5 3 l 6,1.5 3,1.5 h 1.5 v -1.5 l 1.5,1.5 3,-1.5 -1.5,-6 4.5,-1.5 h 1.5 l 1.5,-4.5 3,-1.5 1.5,-1.5 1.5,-3 3,-1.5 1.5,-1.5 -1.5,-1.5 h 1.5 1.5 v -1.5 l 3,-1.5 1.5,1.5 v 1.5 h 1.5 1.5 l 3,1.5 h 1.5 v 1.5 1.5 l 1.5,1.5 1.5,-1.5 1.5,1.5 -1.5,3 v 3 h 1.5 v 1.5 h -1.5 l -1.5,1.5 -1.5,1.5 1.5,6 v 1.5 h 1.5 1.5 v 1.5 h -1.5 l -4.5,-1.5 -1.5,-1.5 h -3 v -1.5 h -1.5 l -3,1.5 v 1.5 1.5 l 1.5,1.5 3,1.5 h 1.5 l 4.5,-1.5 h 3 3 l 1.5,1.5 h 1.5 v -1.5 h 1.5 1.5 1.5 1.5 l 3,3 v 1.5 h 1.5 l 1.5,1.5 h 1.5 l 6,-9 9,-6 v -3 h 1.5 v -1.5 l -1.5,-1.5 v -1.5 l 1.5,-1.5 v -1.5 l 1.5,-1.5 3,-1.5 h 1.5 l -1.5,1.5 1.5,1.5 v 1.5 h 1.5 6 l 4.5,13.5 -1.5,3 -4.5,9 9,10.5 v 1.5 l 1.5,1.5 1.5,1.5 v 10.5 l 6,1.5 1.5,-1.5 4.5,-1.5 h 1.5 v -1.5 l 9,6 -3,12 1.5,1.5 6,-1.5 6,1.5 h 4.5 3 l 1.5,-1.5 1.5,-3 4.5,1.5 6,1.5 3,1.5 4.5,-4.5 1.5,-1.5 4.5,-1.5 1.5,-1.5 1.5,-1.5 v -1.5 h 1.5 l 6,1.5 v 1.5 l 1.5,3 4.5,3 1.5,1.5 v 1.5 1.5 1.5 1.5 3 l 1.5,6 h 1.5 l 3,1.5 12,4.5 1.5,1.5 v 1.5 l 1.5,3 1.5,-1.5 1.5,1.5 h 1.5 1.5 3 1.5 1.5 3 l 1.5,-1.5 h 1.5 l 1.5,1.5 h 3 l 1.5,1.5 v 1.5 h 1.5 l -1.5,1.5 h -1.5 v 1.5 h 1.5 v 1.5 1.5 1.5 h 1.5 v -1.5 h 1.5 1.5 v -1.5 h 1.5 1.5 v -1.5 l 3,-1.5 v 1.5 h 1.5 v 3 l 4.5,3 -1.5,1.5 -1.5,1.5 v 1.5 l -3,1.5 h -1.5 v 1.5 l -1.5,1.5 -1.5,1.5 1.5,1.5 h 3 l 1.5,1.5 v 1.5 l -1.5,1.5 v 1.5 h -1.5 l -1.5,-1.5 h -1.5 -1.5 v 1.5 1.5 l 1.5,1.5 v 1.5 h -1.5 v 1.5 l 1.5,3 h -1.5 v 1.5 h -1.5 l -3,-1.5 -1.5,4.5 v 3 l -1.5,1.5 v 1.5 h 1.5 l 1.5,1.5 v 1.5 l -1.5,3 v 1.5 1.5 1.5 l -1.5,1.5 -1.5,1.5 -1.5,3 h -1.5 l -1.5,3 -1.5,3 v 1.5 h 1.5 1.5 l 1.5,-1.5 h 1.5 l 1.5,1.5 v 1.5 l -3,1.5 v 1.5 1.5 l -3,3 v 1.5 l -1.5,1.5 1.5,1.5 -1.5,1.5 h -1.5 -1.5 -1.5 l -1.5,1.5 v 1.5 1.5 l -3,3 v 1.5 h -1.5 l -1.5,1.5 h -1.5 v 1.5 h -1.5 -1.5 l 1.5,1.5 -1.5,1.5 v 1.5 1.5 1.5 1.5 1.5 1.5 h 1.5 v 1.5 1.5 h 1.5 v 1.5 l 1.5,1.5 h 1.5 1.5 v 1.5 h 3 l 1.5,1.5 v 1.5 l -1.5,1.5 1.5,4.5 v 3 l -3,4.5 v 1.5 h 1.5 1.5 l 1.5,-1.5 h 1.5 l 1.5,-1.5 v 1.5 l 1.5,1.5 h 1.5 l 1.5,-1.5 v -1.5 l 1.5,-1.5 3,-4.5 h 3 v 3 l 1.5,3 1.5,-1.5 3,4.5 h 1.5 l 1.5,-1.5 1.5,1.5 1.5,-1.5 1.5,-1.5 v 1.5 3 l 1.5,-1.5 1.5,-1.5 v -1.5 h 1.5 1.5 l 3,-1.5 v 1.5 3 l 3,1.5 v -1.5 h 1.5 1.5 v 1.5 l 3,-1.5 1.5,-1.5 h 1.5 1.5 1.5 1.5 l 1.5,1.5 3,1.5 h 1.5 v -1.5 h 3 1.5 v -3 l 1.5,-3 -4.5,-3 h -1.5 l -1.5,-1.5 v -1.5 h -1.5 l -1.5,-1.5 v -1.5 -1.5 l 1.5,-1.5 1.5,1.5 3,1.5 1.5,-3 1.5,-1.5 v -1.5 h 1.5 l -1.5,-1.5 v -1.5 l -1.5,-1.5 v -1.5 -1.5 l 1.5,-1.5 h 3 l 1.5,-1.5 h 1.5 v -1.5 h 1.5 v 1.5 l 3,1.5 v -3 -1.5 h 1.5 v -1.5 l 1.5,-1.5 v -3 l -1.5,-1.5 v 1.5 l -1.5,-3 v -1.5 -1.5 l 1.5,-1.5 v -1.5 l 1.5,-1.5 v -1.5 l -1.5,-1.5 h -1.5 -1.5 -3 v -1.5 -1.5 l -1.5,1.5 -1.5,-1.5 -4.5,-1.5 v -3 -1.5 l -3,-1.5 1.5,-1.5 h 1.5 v -1.5 l 1.5,-6 h -1.5 -6 -1.5 l -1.5,1.5 h -1.5 l -1.5,-1.5 v -1.5 h -1.5 l -3,1.5 h -1.5 l -1.5,1.5 h -1.5 l -1.5,1.5 h -1.5 l -1.5,-1.5 3,-3 v -4.5 h -1.5 l -1.5,-1.5 v -1.5 h -1.5 v -1.5 h -1.5 v -1.5 -1.5 -1.5 -3 l -1.5,-1.5 -1.5,-3 h 1.5 3 1.5 v -1.5 l 3,-1.5 1.5,-1.5 v 1.5 l 3,4.5 1.5,3 v 1.5 l 1.5,-1.5 h 1.5 v 1.5 h 1.5 v -1.5 l 1.5,-1.5 v -1.5 l 1.5,-1.5 v -1.5 -1.5 l 1.5,-1.5 v -1.5 l 1.5,-1.5 v -1.5 l 1.5,-1.5 3,-1.5 1.5,-1.5 3,-1.5 h 1.5 l 1.5,-1.5 1.5,-1.5 v -1.5 l 1.5,-1.5 h 1.5 1.5 l 1.5,-1.5 v -1.5 -1.5 l 1.5,-1.5 h 1.5 1.5 l 1.5,-1.5 h 1.5 v -1.5 h 3 l 1.5,-1.5 h 1.5 3 l -1.5,-1.5 h 1.5 l 1.5,-1.5 -6,-4.5 h -1.5 l 9,-4.5 -3,-3 -9,4.5 -1.5,1.5 -1.5,1.5 h -1.5 -1.5 -3 v -1.5 l -1.5,-1.5 v -10.5 l -1.5,-1.5 1.5,-1.5 h 3 l -3,-6 3,-1.5 1.5,-3 6,-6 v -1.5 l 1.5,-1.5 3,-4.5 1.5,-3 v -1.5 l 1.5,-1.5 v -1.5 -1.5 l 1.5,-1.5 v -1.5 h 1.5 1.5 1.5 v -1.5 l 7.5,-7.5 -1.5,-4.5 -1.5,-3 v -1.5 l 1.5,-1.5 1.5,-1.5 h -4.5 v -1.5 l 1.5,-9 v -4.5 h 1.5 l -1.5,-3 1.5,-1.5 v -4.5 l -1.5,-3 -1.5,-3 1.5,-3 -1.5,-1.5 v -3 -1.5 l -1.5,-3 -3,-1.5 -3,-1.5 -3,-9 -3,-1.5 -1.5,-1.5 -1.5,-1.5 -1.5,-3 v -1.5 h -1.5 l -4.5,-3 v -3 -3 h 1.5 v -1.5 l 1.5,-4.5 v -1.5 l 1.5,-1.5 v -1.5 l -3,-1.5 h -1.5 -1.5 v -1.5 h -1.5 -1.5 l -7.5,-3 -1.5,-1.5 v -1.5 -1.5 l 1.5,-1.5 -1.5,-1.5 v -1.5 -3 h 1.5 1.5 v -1.5 h -1.5 v -1.5 -1.5 h -1.5 l -4.5,-3 -1.5,-1.5 h -3 -1.5 -4.5 v -1.5 -1.5 l 1.5,-1.5 3,-1.5 h 1.5 l 1.5,-3 v -1.5 h -1.5 v -3 h 1.5 l -1.5,-1.5 h -1.5 v -1.5 -1.5 -1.5 l -3,-3 h -1.5 -1.5 v -1.5 l 1.5,-1.5 h 1.5 l -3,-1.5 3,-4.5 h 1.5 v 1.5 h 3 1.5 l 3,-1.5 h 1.5 l 1.5,-1.5 1.5,-1.5 1.5,1.5 1.5,-1.5 1.5,-1.5 h 1.5 l -1.5,-1.5 1.5,-1.5 1.5,-1.5 1.5,1.5 3,3 h 1.5 1.5 l 6,1.5 h 4.5 l 1.5,1.5 v -3 -1.5 -1.5 -1.5 l -3,-1.5 h -1.5 v -1.5 -1.5 l -1.5,-3 -1.5,-1.5 h -3 -1.5 l 1.5,-1.5 v -1.5 h 1.5 l 1.5,1.5 6,-3 1.5,1.5 h 1.5 l 1.5,1.5 3,1.5 v 1.5 h -3 l 1.5,1.5 1.5,1.5 1.5,1.5 3,1.5 h 3 v -1.5 h 3 l 1.5,1.5 h 1.5 v -1.5 h 1.5 v -1.5 l 1.5,1.5 4.5,1.5 v 1.5 l 1.5,3 v 1.5 l 3,-1.5 h 3 1.5 l 1.5,1.5 h 1.5 l 1.5,1.5 v 1.5 1.5 h 1.5 1.5 1.5 l 3,1.5 h 1.5 l -1.5,-3 1.5,1.5 -1.5,-3 v -1.5 l 1.5,-1.5 h -1.5 v -1.5 h -1.5 l -1.5,-1.5 v -1.5 -3 l 3,1.5 h 1.5 l 1.5,1.5 h 1.5 v 1.5 h 1.5 1.5 l 1.5,-1.5 1.5,3 h 1.5 l 1.5,1.5 1.5,-1.5 4.5,-1.5 v -1.5 -1.5 h 1.5 l 1.5,-1.5 h 1.5 1.5 l 1.5,-1.5 v -1.5 h 1.5 l 1.5,-1.5 v 1.5 h 1.5 l 1.5,-1.5 3,-1.5 7.5,-3 h 1.5 1.5 v -1.5 l 3,-1.5 3,-1.5 h 1.5 l 1.5,-1.5 v 1.5 h 1.5 1.5 v 1.5 l 1.5,1.5 3,3 3,-1.5 v -1.5 h 1.5 l 1.5,-1.5 h 1.5 v -1.5 l 1.5,-1.5 h 1.5 l 3,-4.5 1.5,-1.5 v -1.5 -1.5 -4.5 l 3,-1.5 h 3 l 1.5,-3 -1.5,-1.5 v -3 -1.5 l -4.5,-1.5 h 1.5 l -9,-6 -1.5,-1.5 -1.5,-3 -7.5,-3 h -6 v -1.5 -3 -1.5 l 1.5,-1.5 v -1.5 -1.5 h 4.5 l 3,-1.5 3,-1.5 v -1.5 -1.5 -1.5 h 1.5 v -1.5 l 1.5,-6 h 12 4.5 l 1.5,-1.5 1.5,-1.5 1.5,-1.5 v -1.5 l 1.5,-7.5 h 1.5 v -1.5 l 4.5,-3 v -1.5 l 4.5,-1.5 h 4.5 l 1.5,-3 v -1.5 l 1.5,-1.5 v -1.5 l 1.5,-1.5 v -1.5 -1.5 -1.5 l 1.5,-1.5 3,-1.5 1.5,1.5 h 1.5 1.5 3 l 4.5,-3 v -1.5 l -4.5,-6 -1.5,-1.5 v -3 h -1.5 v -1.5 -1.5 -1.5 -1.5 l 1.5,-4.5 v -1.5 h 1.5 v -1.5 h 1.5 v -1.5 -1.5 l 1.5,-3 v -1.5 l 3,-4.5 v -7.5 l -3,-6 v -1.5 -1.5 h -1.5 -1.5 -1.5 l -1.5,-3 -1.5,-3 -3,-3 v -1.5 l -1.5,-3 v -3 l -1.5,-3 v -1.5 h -1.5 -1.5 l -1.5,3 -1.5,4.5 -3,1.5 v 1.5 h -1.5 l -7.5,-1.5 -3,-1.5 -4.5,-1.5 h -3 l 1.5,-3 h -3 -4.5 -9 -3 l -1.5,-1.5 -6,-3 -1.5,-1.5 -3,-1.5 1.5,-12 -3,-4.5 -3,-6 h 1.5 l 3,1.5 h 3 l 1.5,-4.5 h 3 l 3,1.5 1.5,-1.5 -9,-7.5 v -3 l 1.5,-6 v -1.5 l -1.5,-1.5 -1.5,-1.5 1.5,-1.5 h 1.5 l 1.5,-1.5 1.5,-3 h 3 1.5 l 1.5,-1.5 h 1.5 1.5 1.5 1.5 1.5 l 1.5,1.5 1.5,-1.5 h 1.5 3 3 l 1.5,-1.5 1.5,1.5 h 3 1.5 l 3,1.5 v 1.5 h 1.5 3 1.5 1.5 3 l 1.5,-1.5 h 1.5 l 1.5,1.5 1.5,-1.5 v 1.5 h 1.5 l 4.5,1.5 h 1.5 l 3,-3 v -1.5 -3 -6 l 1.5,-15 v -19.5 -9 l 4.5,-9 -1.5,-3 v -1.5 l 3,-4.5 9,-15 6,-10.5 3,-12 1.5,-7.5 1.5,-1.5 v -1.5 l -3,-13.5 v -7.5 -1.5 -10.5 l -4.5,-3 v -3 -1.5 -1.5 l 1.5,-1.5 v -3 -1.5 l 1.5,-4.5 h 1.5 l 1.5,-1.5 h 3 l -3,-1.5 -1.5,-1.5 1.5,-1.5 v -1.5 -6 l -1.5,-4.5 v -1.5 h -1.5 l -4.5,-1.5 h -1.5 v -1.5 h -1.5 -1.5 -1.5 -1.5 v -1.5 h -1.5 -1.5 -3 l -1.5,-1.5 h -1.5 l -1.5,-1.5 -1.5,-1.5 v -1.5 -3 l 1.5,-1.5 -1.5,-3 v -1.5 h 1.5 l 1.5,-3 v -1.5 l -3,1.5 -1.5,1.5 h -4.5 -1.5 -1.5 -1.5 l -3,-1.5 v -1.5 h -1.5 -1.5 l -3,-1.5 -3,-1.5 v 1.5 l -3,-1.5 -3,-1.5 h -1.5 v -1.5 h 1.5 l -1.5,-1.5 -3,-3 h -1.5 l -1.5,-1.5 v -1.5 -3 -3 l -1.5,-1.5 v -1.5 -1.5 -3 l -1.5,-3 h -1.5 v -4.5 l 1.5,-4.5 v -1.5 l -4.5,-4.5 -3,-1.5 -1.5,3 1.5,1.5 h -1.5 -1.5 -1.5 v -1.5 l 1.5,1.5 v -1.5 l 1.5,-3 h -1.5 l -3,-1.5 -3,3 -1.5,-1.5 -3,-1.5 h -4.5 z m 37.5,43.5 1.5,1.5 v -1.5 z m 54,30 v -3 l -1.5,1.5 z m -447,598.5 h -1.5 -1.5 l 1.5,1.5 z m -259.5,-66 h 1.5 v 1.5 1.5 h 1.5 v 3 h 1.5 l 1.5,1.5 h 1.5 l 1.5,1.5 1.5,1.5 1.5,-1.5 v 1.5 h -1.5 l 3,3 v 1.5 1.5 l -1.5,1.5 1.5,1.5 v 1.5 l 1.5,-3 h 1.5 l 1.5,-3 1.5,-1.5 6,-1.5 h 3 l 1.5,1.5 h 3 1.5 1.5 v -1.5 h 1.5 3 l 1.5,1.5 1.5,1.5 h 3 l 1.5,-3 h 3 l 1.5,-1.5 v -1.5 -1.5 -1.5 h -1.5 v -1.5 l -1.5,-1.5 -1.5,-3 v -1.5 l -1.5,-1.5 h -1.5 -1.5 v -1.5 h -1.5 -1.5 l -3,1.5 -1.5,-1.5 h -3 l -3,1.5 -1.5,1.5 -3,-1.5 -3,1.5 h -1.5 l -1.5,1.5 h -1.5 l -1.5,-1.5 h -1.5 l -1.5,-1.5 h -1.5 -1.5 v -1.5 h -1.5 v 1.5 l -4.5,1.5 z m 87,-79.5 -1.5,1.5 h 1.5 z m 151.5,-360 v -1.5 h -1.5 z m 33,192 v 1.5 h 1.5 z m 129,3 -3,-1.5 1.5,1.5 z m -81.90625,-19.5 2.40625,-1.5 -3,1.5 z m 30.90625,-217.5 -4.5,4.5 h -1.5 -1.5 l 1.5,1.5 h 1.5 l 1.5,-1.5 z m 10.5,-30 v -1.5 l -1.5,1.5 z m 154.5,-55.5 v 1.5 l 1.5,1.5 z m -9,9 h 1.5 v 1.5 z m -3,1.5 h 1.5 l -1.5,1.5 z m -147,90 h 1.5 l -1.5,1.5 z m -62.09375,115.1875 0.125,0.0625 -0.9375,0.4375 z m -4.375,3.0625 -0.3125,0.28125 v -0.0312 z m -0.3125,0.8125 0.125,0.9375 -2.25,0.34375 -0.0312,-0.0312 -3.0625,1.1875 3,-1.1875 H 411 l 2.15625,-0.34375 z m 131.28125,23.4375 v 1.5 h 1.5 v 1.5 l 1.5,1.5 v -1.5 h 1.5 l 1.5,-1.5 -1.5,-1.5 h -1.5 -1.5 z m -123,43.5 v 1.5 1.5 l -1.5,3 h 1.5 l 1.5,-1.5 h 1.5 l 1.5,-1.5 h 1.5 v -1.5 l -3,1.5 -1.5,-1.5 z m -133.5,210 h 1.5 l -1.5,1.5 z"
       id="path17"
       transform="scale(0.66666667)" />
    <path
       d="m 404.96708,27.18733 v 1 l -1,1 h -1 v 0 -1 -1 0 l 1,-1 v 0 h 1 z"
       style="fill:#b9b9b9;fill-opacity:1;fill-rule:evenodd;stroke:#b9b9b9;stroke-width:0.7;stroke-linecap:butt;stroke-linejoin:bevel;stroke-miterlimit:10;stroke-dasharray:none;stroke-opacity:1"
       id="path65" />
    <path
       d="m 362.96708,26.18733 h 3 3 l 13,-1 6,-1 h 3 l 2,1 h 1 v 1 0 1 h -1 -3 -2 -3 l -2,1 v 0 l -2,1 h -1 v 0 0 l -4,1 -4,1 h -2 -1 -1 l -3,-1 h -1 -2 -1 v 1 l -1,1 -1,1 h -2 l -1,1 h -1 -1 1 l -1,1 -1,-1 h -2 l -1,-1 -2,-1 -1,-2 v -1 l 1,-1 1,-2 1,-1 2,-2 h 1 1 l 1,1 h 1 l 1,1 h -1 v 0 l -1,-1 v 0 h -1 -2 l -1,1 h 2 1 v 0 l 4,1 z"
       style="fill:#b9b9b9;fill-opacity:1;fill-rule:evenodd;stroke:#b9b9b9;stroke-width:0.7;stroke-linecap:butt;stroke-linejoin:bevel;stroke-miterlimit:10;stroke-dasharray:none;stroke-opacity:1"
       id="path71" />
    <path
       d="m 441.96708,15.18733 v 2 h -1 -1 -1 -1 l -2,1 v 0 l -3,1 -1,1 v 1 l -2,1 h -1 -2 v 0 h -1 v 0 l -3,1 h -1 v 0 h -3 -1 l -1,2 v 1 h -1 v 1 0 h -1 v 0 h -1 v 1 0 l -1,-2 v 0 -1 h 1 l 1,-1 -1,-1 v -1 -2 l 1,-1 2,-1 v -1 0 h -1 -1 -1 v 0 h -1 1 v 0 l 1,-1 2,1 h 3 l 10,-1 h 3 l 6,-1 2,-1 z"
       style="fill:#b9b9b9;fill-opacity:1;fill-rule:evenodd;stroke:#b9b9b9;stroke-width:0.7;stroke-linecap:butt;stroke-linejoin:bevel;stroke-miterlimit:10;stroke-dasharray:none;stroke-opacity:1"
       id="path99" />
    <path
       d="m 299.96708,72.18733 v 0 0 l -1,-1 h 1 v 0 h 2 1 v 0 h -1 v 1 h -1 v 0 h -1 v -1 0 0 0 z"
       style="fill:#b9b9b9;fill-opacity:1;fill-rule:evenodd;stroke:#b9b9b9;stroke-width:0.7;stroke-linecap:butt;stroke-linejoin:bevel;stroke-miterlimit:10;stroke-dasharray:none;stroke-opacity:1"
       id="path105" />
    <path
       d="m 323.96708,38.18733 h -4 l -2,1 h -1 l -1,1 v 0 l -2,2 -1,1 v 0 h -1 -1 v 1 h -1 l -1,-1 v 1 h -1 l -1,1 v 0 0 h -1 v 1 0 l -1,-1 h -1 v 0 h -1 -1 v 0 l -1,1 -1,1 -1,-1 -1,1 h -1 l -1,1 v 1 0 0 h -1 l -2,1 h 1 l -1,1 h -1 -2 l -1,-2 h -1 v 0 -1 l 1,-1 2,-3 2,-3 v 0 l 2,-1 2,-1 4,-1 6,-1 h 2 l 6,-2 5,-2 11,-4 h 3 l 3,-1 1,1 h 1 l 1,1 v 0 2 1 0 -1 -1 l -1,-1 v 0 1 l -1,1 v 0 l -1,1 h -2 -1 l -2,1 v 0 0 l -1,-1 v 0 0 0 1 h 1 l -1,1 h -1 v 0 h -1 v -1 h -1 v 0 l 1,1 v 1 h -1 -1 v 0 l -1,-1 v 0 0 l 1,1 1,1 h 1 1 v 0 l -1,1 h -2 -2 z"
       style="fill:#b9b9b9;fill-opacity:1;fill-rule:evenodd;stroke:#b9b9b9;stroke-width:0.7;stroke-linecap:butt;stroke-linejoin:bevel;stroke-miterlimit:10;stroke-dasharray:none;stroke-opacity:1"
       id="path107" />
    <path
       d="m 288.96708,61.18733 v 0 l -1,1 -1,1 h -1 -1 -1 v 0 1 0 h -1 v 0 -1 0 h 1 -1 l 1,-1 1,-1 h 2 z"
       style="fill:#b9b9b9;fill-opacity:1;fill-rule:evenodd;stroke:#b9b9b9;stroke-width:0.7;stroke-linecap:butt;stroke-linejoin:bevel;stroke-miterlimit:10;stroke-dasharray:none;stroke-opacity:1"
       id="path109" />
    <path
       d="m 275.96708,62.18733 v 1 l -1,1 -2,1 -6,2 -2,1 v 1 2 h 1 v -1 0 0 0 h 1 l -1,1 -1,2 v 0 0 l -3,2 -1,1 h -1 v 1 l -1,1 -2,1 v 0 0 h -1 -2 -3 l -1,1 v 0 1 h 1 -1 -1 v 0 -2 -1 -1 l 6,-3 3,-3 2,-1 2,-2 1,-1 4,-3 2,-1 1,-1 v 0 l 3,-1 2,-1 2,-1 h 1 l 3,1 v 1 l -1,1 v 0 0 h -1 -1 z"
       style="fill:#b9b9b9;fill-opacity:1;fill-rule:evenodd;stroke:#b9b9b9;stroke-width:0.7;stroke-linecap:butt;stroke-linejoin:bevel;stroke-miterlimit:10;stroke-dasharray:none;stroke-opacity:1"
       id="path111" />
    <path
       d="m 227.96708,131.18733 -2,1 v 0 0 0 l -1,1 h -1 v 1 0 h -1 v 0 l -1,-1 v 0 -1 -1 -1 h 1 v 0 0 0 h 1 1 l 3,-1 v 0 h 2 v 1 0 z"
       style="fill:#b9b9b9;fill-opacity:1;fill-rule:evenodd;stroke:#b9b9b9;stroke-width:0.7;stroke-linecap:butt;stroke-linejoin:bevel;stroke-miterlimit:10;stroke-dasharray:none;stroke-opacity:1"
       id="path415" />
    <path
       d="m 249.96708,116.18733 -2,2 -1,1 h -1 -1 -1 l -3,4 v 1 0 1 h -1 -1 l -1,-1 -2,-1 h -1 l 1,1 1,1 v 0 l 1,1 h 1 -2 v 0 1 0 0 h -2 -1 1 l -1,1 h -1 l -1,1 h -1 v -1 -2 l -1,-4 v -2 -1 l 1,-3 v -1 0 l 1,-3 1,-3 1,-3 1,-1 2,-3 2,-4 3,-3 v 0 0 1 1 l 1,-1 v 0 0 l 1,-1 v 0 l 1,-1 h 1 v 1 -1 0 h -1 v -1 l -1,1 v 0 l -2,1 v 0 l 3,-6 1,-1 2,-1 v -1 h 1 1 v 0 l 1,1 1,1 v 1 1 h 1 -1 v 0 1 l 1,1 v 0 l 1,1 2,3 v 1 0 0 0 l -1,1 v 6 3 1 l -1,2 h -1 l -1,1 v 0 0 2 l -2,2 z"
       style="fill:#b9b9b9;fill-opacity:1;fill-rule:evenodd;stroke:#b9b9b9;stroke-width:0.7;stroke-linecap:butt;stroke-linejoin:bevel;stroke-miterlimit:10;stroke-dasharray:none;stroke-opacity:1"
       id="path417" />
    <path
       d="m 289.96708,126.18733 v 0 l -14,12 -1,1 h -1 v -1 h 2 z"
       style="fill:#b9b9b9;fill-opacity:1;fill-rule:evenodd;stroke:#b9b9b9;stroke-width:0.7;stroke-linecap:butt;stroke-linejoin:bevel;stroke-miterlimit:10;stroke-dasharray:none;stroke-opacity:1"
       id="path433" />
    <path
       d="m 256.96708,150.18733 -2,-1 -3,1 v 0 l 4,-2 1,-1 2,-1 h 1 l 2,-3 v -1 0 l 2,-2 h 2 l 1,-1 h 1 l 1,1 h 1 l 1,-1 v 0 h 1 l 1,1 v 0 0 0 0 -1 h 1 v 2 0 l -1,-1 v 0 0 2 0 h -1 v 2 0 l -2,2 h -1 l -2,1 h -1 l -1,2 h -1 v 0 h -1 v 0 h -3 -1 v 1 0 0 z"
       style="fill:#b9b9b9;fill-opacity:1;fill-rule:evenodd;stroke:#b9b9b9;stroke-width:0.7;stroke-linecap:butt;stroke-linejoin:bevel;stroke-miterlimit:10;stroke-dasharray:none;stroke-opacity:1"
       id="path435" />
    <path
       style="fill:#b9b9b9;fill-opacity:1;fill-rule:evenodd;stroke:#b9b9b9;stroke-width:1.05;stroke-linecap:butt;stroke-linejoin:bevel;stroke-miterlimit:10;stroke-dasharray:none;stroke-opacity:1"
       d="m 200.9375,558.28125 -3,1.5 h 3 z m 0,1.5 -4.5,1.5 h -1.5 -1.5 l 3,-1.5 -4.5,1.5 -9,3 -3,1.5 h -1.5 l -4.5,1.5 h -1.5 l -1.5,3 v 1.5 1.5 l 1.5,4.5 v 1.5 h 1.5 v 1.5 h 1.5 l 3,-1.5 v -1.5 h -1.5 v -1.5 h 1.5 1.5 1.5 l 1.5,-1.5 h 1.5 1.5 1.5 l 1.5,-1.5 1.5,-1.5 3,1.5 h 3 l 3,1.5 v 1.5 l 1.5,1.5 1.5,3 h 1.5 v 3 1.5 h -1.5 v 1.5 h 1.5 l -1.5,1.5 v 1.5 l 1.5,3 h 1.5 v 1.5 l 1.5,1.5 v 1.5 l 1.5,3 v 3 h 1.5 1.5 l 1.5,1.5 1.5,-1.5 v 1.5 h 3 3 1.5 1.5 l 1.5,1.5 4.5,1.5 1.5,3 1.5,1.5 h 3 1.5 v 1.5 h 3 l 1.5,1.5 h 1.5 v 1.5 1.5 l 3,1.5 1.5,1.5 h 4.5 1.5 1.5 l 3,-1.5 h 3 1.5 l 4.5,-1.5 3,-1.5 1.5,-1.5 1.5,-3 v -1.5 h -1.5 v -1.5 h 1.5 1.5 1.5 1.5 l 3,-1.5 h -1.5 v -1.5 -1.5 h -1.5 l -1.5,1.5 h -3 -3 -3 -1.5 -3 l -3,-4.5 h -3 l -1.5,-1.5 h -1.5 l -1.5,-1.5 v -1.5 l -3,-1.5 v -1.5 -1.5 h -1.5 l -4.5,-4.5 -4.5,-4.5 h -1.5 v -1.5 h -3 l -1.5,-1.5 h -1.5 l -3,-3 -3,-1.5 h -1.5 l -6,-3 -1.5,-1.5 -4.5,-1.5 v -1.5 l -1.5,-1.5 h -1.5 v 1.5 l -1.5,-1.5 h 1.5 v -1.5 -1.5 h -1.5 v 1.5 h -1.5 v -1.5 l -3,-1.5 v -1.5 z m -28.5,21 -1.5,3 -1.5,1.5 -3,1.5 h 1.5 l 3,1.5 1.5,1.5 h 1.5 v -1.5 l -1.5,-1.5 -1.5,-1.5 z"
       id="path479"
       transform="scale(0.66666667)" />
    <path
       d="m 126.96709,387.18733 1,1 v 0 l -1,-1 h -2 l -2,1 -2,1 h -1 v -1 0 l 2,-1 v -1 l 1,-1 1,-1 v 1 h 1 z"
       style="fill:#b9b9b9;fill-opacity:1;fill-rule:evenodd;stroke:#b9b9b9;stroke-width:0.7;stroke-linecap:butt;stroke-linejoin:bevel;stroke-miterlimit:10;stroke-dasharray:none;stroke-opacity:1"
       id="path483" />
    <path
       d="m 172.96708,394.18733 2,1 3,1 2,1 v 0 l 1,1 h -1 v 0 l -2,1 h -3 -1 l -1,-1 -1,-1 v 0 h -1 l -2,-2 h -1 l -1,-1 v 0 0 l 1,-1 v 0 h 2 z"
       style="fill:#b9b9b9;fill-opacity:1;fill-rule:evenodd;stroke:#b9b9b9;stroke-width:0.7;stroke-linecap:butt;stroke-linejoin:bevel;stroke-miterlimit:10;stroke-dasharray:none;stroke-opacity:1"
       id="path547" />
    <path
       style="fill:#b9b9b9;fill-opacity:1;fill-rule:evenodd;stroke:#b9b9b9;stroke-width:1.05;stroke-linecap:butt;stroke-linejoin:bevel;stroke-miterlimit:10;stroke-dasharray:none;stroke-opacity:1"
       d="m 95.9375,699.28125 v 1.5 h -1.5 -1.5 l -3,1.5 h -1.5 -1.5 l -1.5,1.5 h -1.5 -1.5 -1.5 -1.5 -1.5 v 1.5 h -1.5 l -1.5,1.5 h -1.5 -1.5 l -1.5,1.5 h -1.5 v 1.5 l 1.5,1.5 v 3 1.5 1.5 l 1.5,1.5 v 3 l -4.5,4.5 -1.5,1.5 1.5,1.5 3,3 h -1.5 -1.5 v 1.5 l 1.5,1.5 1.5,1.5 v 1.5 l -1.5,1.5 1.5,1.5 h 1.5 l 1.5,3 h 1.5 l 1.5,3 1.5,-1.5 1.5,1.5 v 1.5 1.5 h 1.5 l 1.5,1.5 h 1.5 4.5 l 12,-1.5 -1.5,-10.5 -1.5,-1.5 3,-1.5 1.5,1.5 h 1.5 v -1.5 h 1.5 1.5 v -1.5 h 1.5 l 1.5,1.5 1.5,1.5 1.5,-1.5 -1.5,-3 3,-1.5 1.5,1.5 3,1.5 1.5,1.5 3,1.5 h 1.5 v -1.5 h 3 l 3,3 h 1.5 l 1.5,1.5 v 1.5 h 4.5 l 1.5,1.5 v -1.5 l 6,1.5 h 1.5 l 1.5,3 h 1.5 v -1.5 l 1.5,1.5 1.5,1.5 h 1.5 v 1.5 l -1.5,1.5 v 3 4.5 3 l 1.5,1.5 h 1.5 v -1.5 l 1.5,1.5 h 1.5 1.5 1.5 1.5 1.5 1.5 1.5 l 3,-3 h 1.5 1.5 v 3 h -1.5 l -1.5,1.5 1.5,1.5 h 1.5 1.5 l 3,-1.5 h 1.5 l -1.5,-3 3,-1.5 1.5,3 h 1.5 v -1.5 h 1.5 1.5 l 1.5,-1.5 v -1.5 h 3 l 1.5,-3 h 1.5 l 1.5,-1.5 3,-1.5 h 1.5 v 1.5 h 1.5 l 1.5,-1.5 v 1.5 h 3 l 1.5,-1.5 h 1.5 l 1.5,-1.5 3,-3 3,-1.5 3,-1.5 7.5,-6 1.5,-1.5 15,-18 h -1.5 v -1.5 h -1.5 v -1.5 -1.5 l -1.5,1.5 v -1.5 -1.5 l -1.5,-1.5 h -1.5 -1.5 l 1.5,-1.5 h -1.5 -1.5 v 1.5 l -1.5,1.5 v 1.5 l 1.5,1.5 h 1.5 v 1.5 1.5 l -1.5,-1.5 -1.5,1.5 h 1.5 l -1.5,1.5 h 1.5 v 1.5 l -1.5,-1.5 h -3 l 1.5,1.5 v 1.5 l -1.5,-3 -1.5,-1.5 h -1.5 l 1.5,1.5 1.5,1.5 h -1.5 v -1.5 h -1.5 v -1.5 -1.5 l -1.5,-1.5 -1.5,-1.5 h -1.5 -3 v 1.5 h 1.5 1.5 1.5 l -1.5,1.5 v 1.5 l 1.5,-1.5 1.5,1.5 h -1.5 v 1.5 1.5 h 1.5 v 1.5 h -1.5 l -3,-6 h -1.5 l -4.5,-3 v -1.5 h -1.5 v 1.5 l -6,-1.5 -1.5,-1.5 v -1.5 l -1.5,-1.5 v -1.5 l -1.5,-1.5 1.5,-1.5 h -1.5 l -1.5,-1.5 v -1.5 h -3 -1.5 l -1.5,-1.5 h -3 l -1.5,3 v 1.5 h -1.5 v 3 1.5 1.5 1.5 l -1.5,1.5 v -1.5 l -1.5,1.5 h -1.5 l -4.5,1.5 -3,1.5 -1.5,1.5 h -1.5 v 1.5 h -3 v 1.5 l -1.5,1.5 h -1.5 -3 -1.5 l -1.5,-1.5 h -1.5 v 1.5 l -1.5,-1.5 v 1.5 1.5 l -1.5,-3 v -1.5 h -1.5 -1.5 v -1.5 h -4.5 v 4.5 l -3,-1.5 v -1.5 l 1.5,-1.5 h -1.5 -3 -1.5 -1.5 -1.5 v -1.5 l -1.5,-1.5 -1.5,-1.5 h -1.5 v -1.5 l -1.5,-1.5 h -4.5 l -3,-1.5 h -1.5 l -4.5,-1.5 h -1.5 v -1.5 h -1.5 l -3,-1.5 h -1.5 l -1.5,-1.5 -1.5,-1.5 h -1.5 l -1.5,-1.5 h -1.5 v -1.5 h -4.5 -1.5 z m 136.5,21 -1.5,-1.5 -1.5,1.5 z m -1.5,-1.5 h 1.5 1.5 1.5 l -1.5,-1.5 h -1.5 v -1.5 h -1.5 v -1.5 h -1.5 -1.5 v 1.5 1.5 l 1.5,1.5 z m 3,-4.5 1.5,1.5 h -1.5 z m 3,0 h 1.5 l -1.5,1.5 z m -10.5,10.5 h 1.5 v 1.5 h -1.5 z"
       id="path625"
       transform="scale(0.66666667)" />
    <path
       d="m 289.96708,126.18733 4,-4 1,-1 11,-10 h 1 l 3,-1 h 1 v 0 0 -1 1 l 1,1 -1,-1 h -1 v 0 l -2,1 h -2 l -9,9 -1,1 v 0 h -1 l -1,1 z"
       style="fill:#b9b9b9;fill-opacity:1;fill-rule:evenodd;stroke:#b9b9b9;stroke-width:0.7;stroke-linecap:butt;stroke-linejoin:bevel;stroke-miterlimit:10;stroke-dasharray:none;stroke-opacity:1"
       id="path651" />
    <path
       d="m 89.967095,437.18733 v 0 l -1,-1 v -1 0 h 1 l 1,1 v 1 l -1,1 v 0 z"
       style="fill:#b9b9b9;fill-opacity:1;fill-rule:evenodd;stroke:#b9b9b9;stroke-width:0.7;stroke-linecap:butt;stroke-linejoin:bevel;stroke-miterlimit:10;stroke-dasharray:none;stroke-opacity:1"
       id="path659" />
    <path
       d="m 94.967095,414.18733 v 0 0 l -1,1 v 2 1 0 l 1,1 1,-1 -1,-1 v 0 l 1,1 -1,1 v 0 l -2,-1 v 1 1 0 0 l -1,-1 v 0 0 l -1,1 v 0 h 1 v 1 h -1 v -1 l -1,1 v 0 1 2 h -1 v 0 l 1,-2 v -1 l -1,-1 v 0 h -1 v 0 0 0 h 1 l 1,-2 2,-1 v -1 0 -1 0 0 1 0 0 h 1 v 0 0 0 h 1 v -1 z"
       style="fill:#b9b9b9;fill-opacity:1;fill-rule:evenodd;stroke:#b9b9b9;stroke-width:0.7;stroke-linecap:butt;stroke-linejoin:bevel;stroke-miterlimit:10;stroke-dasharray:none;stroke-opacity:1"
       id="path661" />
    <path
       d="m 304.96708,192.18733 v 0 h 2 l 7,3 1,1 5,5 2,3 v 1 l 5,8 2,5 v 1 h -1 l -1,1 -2,1 -1,4 -1,2 h 1 v 0 l -1,2 v -2 0 l 1,-2 1,-4 1,-1 2,-1 h 1 v -1 l -2,-5 -7,-12 -5,-5 -1,-1 -6,-3 -1,2 v 0 h -1 -1 -1 1 l 1,-1 1,-1 h -1 v 0 z"
       style="fill:#b9b9b9;fill-opacity:1;fill-rule:evenodd;stroke:#b9b9b9;stroke-width:0.7;stroke-linecap:butt;stroke-linejoin:bevel;stroke-miterlimit:10;stroke-dasharray:none;stroke-opacity:1"
       id="path861" />
    <path
       d="m 441.96708,15.18733 h 2 v 0 1 0 l -2,1 z"
       style="fill:#b9b9b9;fill-opacity:1;fill-rule:evenodd;stroke:#b9b9b9;stroke-width:0.7;stroke-linecap:butt;stroke-linejoin:bevel;stroke-miterlimit:10;stroke-dasharray:none;stroke-opacity:1"
       id="path869" />
    <path
       d="m 459.96708,6.1873306 v 1 0 l 1,1 1,1 1,0.9999994 -1,-0.9999994 h -1 -2 -1 v 0 0.9999994 1 h 1 v 0 l -1,2 -1,-1 -1,-2.9999994 -1,-1 v -1 l 1,-2 h 1 1 1 z"
       style="fill:#b9b9b9;fill-opacity:1;fill-rule:evenodd;stroke:#b9b9b9;stroke-width:0.7;stroke-linecap:butt;stroke-linejoin:bevel;stroke-miterlimit:10;stroke-dasharray:none;stroke-opacity:1"
       id="path871" />
    <path
       d="m 469.96708,7.1873306 h 2 2 l 2,1 v 1 -1 h -2 -2 -1 v 0 h -1 l -1,1 v 0 -1 z"
       style="fill:#b9b9b9;fill-opacity:1;fill-rule:evenodd;stroke:#b9b9b9;stroke-width:0.7;stroke-linecap:butt;stroke-linejoin:bevel;stroke-miterlimit:10;stroke-dasharray:none;stroke-opacity:1"
       id="path873" />
    <path
       d="m 120.96709,396.18733 v 0 0 -1 h 1 l 2,1 h -1 z"
       style="fill:#b9b9b9;fill-opacity:1;fill-rule:evenodd;stroke:#b9b9b9;stroke-width:0.7;stroke-linecap:butt;stroke-linejoin:bevel;stroke-miterlimit:10;stroke-dasharray:none;stroke-opacity:1"
       id="path907" />
    <path
       d="m 157.96708,418.18733 v -1 l -1,-1 -1,-1 v 1 h -1 l -2,-2 1,-1 v 0 h -1 v 1 h -2 v -1 h 2 v 0 h 3 1 v 0 h -1 v 0 h -1 v 0 1 0 h 2 v 1 l 1,1 v 1 z"
       style="fill:#b9b9b9;fill-opacity:1;fill-rule:evenodd;stroke:#b9b9b9;stroke-width:0.7;stroke-linecap:butt;stroke-linejoin:bevel;stroke-miterlimit:10;stroke-dasharray:none;stroke-opacity:1"
       id="path909" />
    <path
       d="m 129.96709,392.18733 h 1 l 1,-1 v 0 1 1 l 1,3 1.99999,2 v 0 0 l -1,1 h -0.99999 v -1 l -1,-1 v -1 l -1,-2 -1,-1 v 0 z"
       style="fill:#b9b9b9;fill-opacity:1;fill-rule:evenodd;stroke:#b9b9b9;stroke-width:0.7;stroke-linecap:butt;stroke-linejoin:bevel;stroke-miterlimit:10;stroke-dasharray:none;stroke-opacity:1"
       id="path911" />
    <path
       d="m 126.96709,394.18733 -1,1 h -1 -1 v -1 h 1 1 2 z"
       style="fill:#b9b9b9;fill-opacity:1;fill-rule:evenodd;stroke:#b9b9b9;stroke-width:0.7;stroke-linecap:butt;stroke-linejoin:bevel;stroke-miterlimit:10;stroke-dasharray:none;stroke-opacity:1"
       id="path913" />
    <path
       d="m 123.96709,418.18733 -1,1 h -1 v 0 h -1 v 0 l -2,-1 h -1 v 0 l 2,-1 v -1 1 l -2,1 h -1 l 1,-2 -1,-1 v -2 h -1 v -1 -1 l -1,-2 -2,-1 -1,1 v -1 l -3,-1 v 0 0 -1 0 -1 l -1,-1 h -2 -0.99999 l -1,1 v 1 h 1 l 0.99999,-1 1,1 -1,-1 -0.99999,1 h -2 l -1,2 -2.000005,1 v 0 0 0 h -1 -1 l -2,1 -1,1 v 2 0 h 1 v 1 h -1 v 0 0 l -1,-1 v 0 0 h 1 v 0 -2 0 l -1,-1 h -1 -1 v -1 l -1,-1 -1,-2 v -2 -2 -1 l 1,-2 2,-2 2,-1 h 1 1 l 4.000005,-1 1,-1 h 2 1.99999 l 3,1 v -1 0 -1 l 1,-1 v -1 h 1 1 l -1,1 h 1 l -1,1 v 0 0 0 -1 0 h -1 v 1 l -1,2 h 1 1 1 1 v 0 0 h 3 l 2,-1 v 0 l 1,1 v 0 l 1,1 v 1 h 1 v 0 h 1 1 l 2,-1 1,1 h 3 v 0 1 0 -1 l 1,1 v 2 0 l 1,1 2,2 0.99999,2 v 2 h 1 2 1 l 2,1 v 0 l 3,2 h 1 v 0 1 h 1 l 2,-2 h 1 1 v 0 h 3 v 0 l 1,-1 h 1 v 2 1 h 1 v 0 l -1,1 v 0 h -1 l 1,-1 v 0 l -1,-1 v -1 h -1 v 1 l -1,-1 -3,1 h -1 l -1,1 h -1 v 1 l 1,1 v 0 1 0 0 0 l -1,1 h 1 v -1 l -1,1 v 1 h -1 l -1,1 -1,2 h -1 l -1,1 -1,-1 -2,1 -1,1 h -2 v 1 h -2.99999 -1 -2 -1 v 0 l -2,-2 v 0 0 z"
       style="fill:#b9b9b9;fill-opacity:1;fill-rule:evenodd;stroke:#b9b9b9;stroke-width:0.7;stroke-linecap:butt;stroke-linejoin:bevel;stroke-miterlimit:10;stroke-dasharray:none;stroke-opacity:1"
       id="path915" />
    <path
       d="m 113.96709,438.18733 v -1 h -1 1 v 0 z"
       style="fill:#b9b9b9;fill-opacity:1;fill-rule:evenodd;stroke:#b9b9b9;stroke-width:0.7;stroke-linecap:butt;stroke-linejoin:bevel;stroke-miterlimit:10;stroke-dasharray:none;stroke-opacity:1"
       id="path929" />
    <path
       d="m 186.96708,405.18733 -1,1 v 0 h 1 v 0 h -1 v 1 l -1,-1 v 0 0 z"
       style="fill:#b9b9b9;fill-opacity:1;fill-rule:evenodd;stroke:#b9b9b9;stroke-width:0.7;stroke-linecap:butt;stroke-linejoin:bevel;stroke-miterlimit:10;stroke-dasharray:none;stroke-opacity:1"
       id="path949" />
  </g>
  <g
     transform="matrix(0.44705406,0,0,0.44705406,97.09407,-5.847496)"
     id="g880">
    <path
       d="m 157.98695,184.38488 15.38788,-16.18471 c 9.01133,-9.01133 24.18529,-5.8854 24.18529,-5.8854 l 45.02946,6.16135 22.80617,-22.31567 c 12.01512,-11.80056 22.86694,6.25375 18.14672,12.47586 l -11.70942,13.61004 48.49336,8.98159 16.46066,-19.18912 c 17.59356,-21.02645 30.68334,-2.08353 22.74478,9.07336 l -10.63664,13.45688 72.86283,9.50247 c 62.65024,-60.29014 88.22733,-85.29891 104.71135,-70.44132 16.59028,14.95339 -12.75624,44.75856 -69.82804,103.5468 l 10.36069,75.06977 15.2651,-12.72081 c 9.01133,-7.50944 25.01187,4.53795 8.49108,20.20051 l -20.99733,19.80177 8.8588,49.13702 13.11954,-10.08475 c 11.586,-9.22589 25.65553,2.97466 9.99297,19.71 l -20.84417,20.99734 c -0.85822,0.64367 6.80502,43.09845 6.80502,43.09845 4.72022,20.8119 -7.01958,28.41564 -7.01958,28.41564 l -14.31509,12.47587 -54.37876,-153.60343 c -4.50567,-13.51701 -15.92502,-28.19577 -35.00611,-26.45363 -10.08411,1.07278 -35.55799,18.2695 -38.99088,22.34606 l -58.97684,56.70849 c -1.50189,1.07278 9.07336,73.72104 9.07336,73.72104 0,2.14556 -18.69861,26.66819 -18.69861,26.66819 l -37.36621,-66.51729 -18.45305,8.58285 10.7898,-16.79799 -67.28375,-37.97951 25.22769,-18.45304 c 12.01512,2.78922 75.00838,9.87019 76.29571,9.22652 0,0 51.29689,-50.87264 54.2256,-53.94965 16.9499,-17.80812 22.65302,-24.46187 25.22769,-33.25865 2.57678,-8.80401 -1.81285,-21.70583 -28.41564,-38.04088 -36.68901,-22.52835 -151.64143,-61.09202 -151.64143,-61.09202 z"
       id="path3166"
       style="fill:#000000;stroke:none" />
  </g>
  <path
     style="fill:none;fill-rule:evenodd;stroke:#000000;stroke-width:7.55906;stroke-linecap:butt;stroke-linejoin:miter;stroke-miterlimit:4;stroke-dasharray:none;stroke-opacity:1"
     d="M 34.694752,347.61609 182.28188,197.54366"
     id="path1240"
     sodipodi:nodetypes="cc" />
</svg>
